<?xml version="1.0" encoding="UTF-8" standalone="no"?><!DOCTYPE svg PUBLIC "-//W3C//DTD SVG 1.1//EN" "http://www.w3.org/Graphics/SVG/1.1/DTD/svg11.dtd"><svg width="100%" height="100%" viewBox="0 0 667 250" version="1.1" xmlns="http://www.w3.org/2000/svg" xmlns:xlink="http://www.w3.org/1999/xlink" xml:space="preserve" xmlns:serif="http://www.serif.com/" style="fill-rule:evenodd;clip-rule:evenodd;stroke-linejoin:round;stroke-miterlimit:2;"><g><path d="M333.333,0c-185.003,0 -333.333,55.456 -333.333,124.986c0,69.11 149.552,125.014 333.333,125.014c183.811,0 333.334,-56.082 333.334,-125.014c0,-68.933 -149.523,-124.986 -333.334,-124.986" style="fill:#003478;fill-rule:nonzero;"/><g><path d="M464.64,151.461c0.088,0.597 0.834,1.133 1.55,1.401c0.298,0.09 0.416,0.269 0.119,0.895c-2.087,4.413 -3.965,6.976 -6.56,10.853c-2.384,3.577 -5.098,6.35 -8.347,9.033c-4.951,4.085 -11.778,8.498 -17.442,5.546c-2.506,-1.312 -3.578,-4.831 -3.549,-7.663c0.12,-8.02 3.698,-16.219 10.256,-24.299c8.021,-9.838 16.877,-14.968 22.661,-12.195c6.022,2.893 4.114,9.84 1.43,15.296c-0.185,0.347 -0.227,0.754 -0.118,1.133m64.52,-62.314c0.416,-0.774 -0,-1.341 -0.984,-1.341l-16.846,0c-1.253,0 -1.909,0.178 -2.476,1.341c-1.937,3.698 -25.491,38.968 -29.873,45.826c-0.717,1.043 -1.64,0.894 -1.73,-0.298c-0.448,-4.054 -3.965,-8.736 -9.51,-10.973c-3.997,-1.612 -8.352,-2.126 -12.613,-1.489c-7.752,1.073 -14.638,5.157 -20.722,9.749c-9.123,6.947 -16.993,15.952 -27.19,22.63c-5.576,3.606 -13.179,6.768 -18.277,2.056c-4.592,-4.262 -4.085,-13.774 2.981,-21.109c0.746,-0.774 1.64,-0.118 1.491,0.567c-0.774,3.243 0.251,6.664 2.683,8.945c3.071,2.743 7.455,3.071 11.24,1.192c4.296,-2.24 7.223,-6.461 7.812,-11.27c0.086,-0.602 0.129,-1.21 0.129,-1.819c0,-6.7 -5.251,-12.328 -11.936,-12.791c-5.843,-0.417 -11.478,1.611 -16.965,6.143c-2.588,2.088 -4.84,4.563 -6.678,7.334c-0.597,0.835 -1.461,0.894 -1.432,-0.298c0.269,-9.601 -3.696,-14.996 -11.627,-15.176c-6.143,-0.148 -12.731,3.191 -17.859,7.276c-5.605,4.5 -10.525,10.494 -15.802,16.099c-0.627,0.715 -1.194,0.686 -1.402,-0.656c0.029,-5.959 -1.59,-11.81 -4.681,-16.904c-1.125,-1.634 -3.323,-2.163 -5.069,-1.223c-0.864,0.447 -3.816,1.789 -5.962,3.548c-1.073,0.894 -1.491,2.147 -1.014,3.787c2.832,9.48 2.206,20.273 -1.64,29.397c-3.547,8.348 -10.405,15.891 -18.485,18.425c-5.307,1.699 -10.853,0.866 -14.281,-3.875c-4.682,-6.499 -2.804,-17.8 4.203,-27.221c6.201,-8.289 15.147,-13.536 24.061,-16.936c1.043,-0.387 1.283,-1.073 0.984,-1.968l-1.58,-4.352c-0.835,-2.206 -3.131,-2.534 -5.904,-2.237c-6.499,0.746 -12.344,2.983 -18.128,6.053c-15.115,8.109 -22.718,23.792 -26.028,32.2c-1.124,3.147 -2.724,6.103 -4.741,8.767c-2.384,2.98 -5.367,5.723 -10.853,10.524c-0.611,0.559 -0.792,1.453 -0.446,2.207c1.121,2.043 2.539,3.912 4.203,5.545c0.894,0.447 1.939,-0.179 2.357,-0.478c3.816,-2.594 8.406,-6.707 10.643,-9.51c0.776,-0.954 1.609,-0.536 2.027,0.894c2.05,7.554 7.736,13.61 15.147,16.13c13.864,4.681 28.264,-2.087 39.117,-13.893c6.886,-7.455 9.392,-12.314 12.045,-15.565c4.472,-5.574 13.328,-18.008 23.853,-25.968c3.875,-2.952 8.436,-5.189 10.732,-3.698c1.85,1.194 2.445,3.967 -0.507,9.362c-10.733,19.619 -26.534,42.637 -29.456,48.242c-0.537,0.953 -0.061,1.729 0.954,1.729l16.278,0c0.866,-0.061 1.253,-0.448 1.671,-1.043c8.228,-12.91 15.98,-25.195 24.299,-37.866c0.477,-0.776 0.894,-0.179 0.894,0.149c0.208,2.922 0.895,6.947 2.683,9.6c2.62,4.403 7.4,7.09 12.524,7.037c3.496,0.048 6.96,-0.686 10.136,-2.147c3.459,-1.282 6.26,-2.952 8.348,-4.472c1.253,-0.864 1.492,0.597 1.431,0.805c-1.907,10.227 0.448,22.361 10.645,27.43c12.164,5.963 25.552,-2.445 33.273,-10.077c0.746,-0.745 1.551,-0.656 1.64,0.923c0.179,2.922 1.491,6.351 3.875,8.796c6.44,6.47 19.471,3.876 32.53,-6.231c8.406,-6.47 17.173,-15.624 25.104,-25.313c0.298,-0.359 0.536,-0.954 -0.061,-1.581c-1.192,-1.251 -2.95,-2.683 -4.144,-3.816c-0.536,-0.477 -1.341,-0.328 -1.789,-0c-8.139,7.752 -15.473,16.547 -26.028,23.853c-3.578,2.473 -9.242,4.472 -11.807,1.043c-1.014,-1.343 -0.894,-3.191 0.09,-5.666c3.07,-7.662 51.878,-81.99 54.443,-86.374" style="fill:#fff;fill-rule:nonzero;"/><path d="M299.464,98.122c0.208,1.104 0.656,1.312 1.162,1.192c2.78,-0.757 5.196,-2.493 6.798,-4.89c1.491,-2.146 2.176,-5.246 0.715,-6.499c-1.312,-1.103 -3.429,-0.805 -5.008,0.597c-2.723,2.401 -4.096,5.995 -3.667,9.6m-124.419,95.676c-18.187,0.12 -34.227,-11.121 -36.077,-30.62c-1.064,-10.136 1.858,-20.3 8.139,-28.324c5.427,-7.067 14.61,-12.91 22.362,-14.34c2.505,-0.479 5.904,-0.18 7.305,1.489c2.207,2.565 1.58,5.367 -0.627,6.501c-5.933,3.011 -13.057,8.198 -16.576,15.264c-3.307,6.112 -2.95,13.582 0.923,19.35c7.306,11.032 27.7,11.33 46.632,-6.26c4.711,-4.324 8.885,-8.468 13.148,-13.357c8.348,-9.541 11.121,-13.031 22.212,-28.415c0.12,-0.179 0.18,-0.417 0.12,-0.507c-0.089,-0.208 -0.238,-0.238 -0.566,-0.297c-7.395,0.238 -13.864,2.444 -20.126,7.126c-1.789,1.31 -4.413,1.133 -5.546,-0.597c-1.251,-1.968 -0.357,-4.533 1.73,-5.963c10.078,-7.037 21.108,-8.288 32.379,-10.197c-0,0 0.776,0 1.432,-0.805c4.621,-5.963 8.109,-11.3 13.029,-17.292c4.979,-6.084 11.388,-11.688 16.278,-15.892c6.858,-5.873 11.24,-7.841 15.683,-10.286c1.192,-0.597 -0.149,-1.342 -0.507,-1.342c-24.896,-4.68 -50.746,-10.733 -75.462,-1.58c-17.114,6.38 -24.628,19.976 -21.02,29.04c2.565,6.44 11.032,7.453 18.964,3.578c6.558,-3.19 12.67,-8.408 16.993,-15.086c2.386,-3.728 7.485,-1.045 4.741,5.425c-7.245,16.995 -21.05,30.472 -37.866,31.039c-14.34,0.476 -23.582,-10.079 -23.553,-23.077c0.059,-25.642 28.622,-42.517 58.587,-45.051c36.136,-2.983 70.363,6.648 106.23,11.001c27.49,3.309 53.847,3.399 81.485,-2.981c3.28,-0.686 5.546,1.4 5.368,4.68c-0.299,4.772 -3.995,9.362 -13.089,14.312c-10.346,5.695 -21.168,7.424 -32.498,7.514c-27.312,0.238 -52.773,-10.435 -79.16,-16.16c0.03,1.162 0.358,2.534 -0.597,3.28c-14.609,10.733 -27.817,21.675 -36.672,37.03c-0.297,0.357 -0.12,0.716 0.387,0.655c7.693,-0.387 14.58,-0.595 21.765,-1.192c1.223,-0.09 1.283,-0.387 1.194,-1.312c-0.786,-5.749 1.286,-11.533 5.545,-15.474c4.77,-4.264 10.733,-4.771 14.7,-1.67c4.472,3.489 4.083,9.809 1.638,14.52c-2.224,4.189 -6.058,7.301 -10.613,8.617c-4.557,1.317 -0.835,0.18 -0.717,0.924c0.151,1.193 5.576,4.204 6.024,5.009c0.447,0.775 0.208,1.938 -0.596,2.832c-0.645,0.786 -1.608,1.245 -2.624,1.253c-0.925,-0 -1.492,-0.328 -2.684,-0.984c-2.843,-1.518 -5.371,-3.563 -7.454,-6.022c-0.715,-0.866 -1.074,-0.895 -2.773,-0.776c-7.752,0.448 -19.856,1.611 -28.025,2.624c-1.999,0.238 -2.296,0.625 -2.684,1.312c-13.059,21.526 -27.012,44.752 -42.337,60.316c-16.399,16.666 -30.055,21.048 -44.544,21.168" style="fill:#fff;fill-rule:nonzero;"/><path d="M333.333,20.453c-170.215,-0 -308.17,47.019 -308.17,104.592c0,57.542 137.955,104.592 308.17,104.592c170.216,-0 308.169,-47.05 308.169,-104.592c0,-57.544 -137.984,-104.592 -308.169,-104.592m-0,218.664c-176.416,-0 -319.41,-51.072 -319.41,-114.072c0,-63.029 142.994,-114.074 319.41,-114.074c176.387,0 319.381,51.045 319.381,114.074c-0,63 -142.994,114.072 -319.381,114.072" style="fill:#fff;fill-rule:nonzero;"/></g></g></svg>