<?xml version="1.0" encoding="UTF-8" standalone="no"?><!DOCTYPE svg PUBLIC "-//W3C//DTD SVG 1.1//EN" "http://www.w3.org/Graphics/SVG/1.1/DTD/svg11.dtd"><svg width="100%" height="100%" viewBox="0 0 1520 250" version="1.1" xmlns="http://www.w3.org/2000/svg" xmlns:xlink="http://www.w3.org/1999/xlink" xml:space="preserve" xmlns:serif="http://www.serif.com/" style="fill-rule:evenodd;clip-rule:evenodd;stroke-linejoin:round;stroke-miterlimit:2;"><path d="M179.856,237.277c-20.116,-12.603 -34.944,-56.092 -34.944,-107.776c0,-1.896 0.008,-3.769 0.056,-5.633l0.016,0.024c-55.964,-8.794 -96.397,-32.888 -97.437,-61.39l-0.16,0.336c-13.691,17.02 -21.509,36.696 -21.509,57.661c-0,61.694 67.719,112.241 153.618,116.714l0.36,0.064Zm-179.856,-112.281c0,-69.023 85.907,-124.996 191.875,-124.996c105.976,-0 191.883,55.973 191.883,124.996c-0,69.031 -85.907,125.004 -191.883,125.004c-105.968,-0 -191.875,-55.973 -191.875,-125.004Zm191.883,-106.96c20.461,0 37.864,31.039 44.314,74.345l0.016,-0.072c39.809,-6.194 67.671,-20.485 67.671,-37.121c0,-22.317 -50.147,-40.393 -112.001,-40.393c-61.846,0 -111.993,18.076 -111.993,40.393c-0,16.636 27.862,30.919 67.663,37.121l0.024,0.072c6.45,-43.306 23.853,-74.345 44.306,-74.345Zm12.387,219.169c85.899,-4.473 153.626,-55.02 153.626,-116.714c0,-20.965 -7.826,-40.641 -21.509,-57.661l-0.168,-0.336c-1.032,28.502 -41.465,52.596 -97.438,61.39l0.024,-0.024c0.041,1.864 0.057,3.737 0.057,5.633c-0,51.684 -14.836,95.173 -34.944,107.776l0.352,-0.064Zm-12.387,-141.616c8.881,0.011 17.758,-0.368 26.606,-1.136l-0.008,0.008c-4.241,-27.75 -14.547,-47.346 -26.59,-47.346c-12.043,-0 -22.341,19.596 -26.59,47.346l-0.008,-0.008c8.843,0.764 17.714,1.143 26.59,1.136Zm-0,102.791c15.403,0 27.974,-32.055 28.638,-72.248l0.08,0.024c-19.102,1.76 -38.326,1.76 -57.428,0l0.08,-0.024c0.664,40.193 13.227,72.248 28.63,72.248Zm787.232,-73.384c0,-52.756 42.778,-95.533 95.534,-95.533c52.78,-0 95.549,42.777 95.549,95.533c0,52.772 -42.777,95.533 -95.549,95.533c-52.756,0 -95.534,-42.761 -95.534,-95.533Zm95.534,60.502c29.462,-0 53.356,-27.095 53.356,-60.51c-0,-33.407 -23.894,-60.502 -53.356,-60.502c-29.463,0 -53.34,27.095 -53.34,60.502c-0,33.423 23.885,60.51 53.34,60.51Zm203.957,-116.234l0,146.928l-40.265,0l0,-146.928l0.144,-0l-56.292,-0l-0,-33.216l152.562,0l-0,33.216l-56.149,-0Zm104.848,106.399l-0.032,0.04l-15.444,40.497l-47.026,0l74.329,-180.152l50.107,0l74.312,180.152l-47.01,0l-15.444,-40.497l-0.048,-0.04l-73.744,0Zm11.538,-30.406l50.676,-0l-0.016,0.008l-25.15,-65.935l-0.344,-0l-25.15,65.935l-0.016,-0.008Zm-858.416,-75.993l0,146.928l-40.257,0l0,-146.928l0.144,-0l-56.3,-0l-0,-33.216l152.57,0l-0,33.216l-56.157,-0Zm66.455,55.732c0,-52.756 42.778,-95.533 95.549,-95.533c52.764,-0 95.542,42.777 95.542,95.533c-0,52.772 -42.778,95.533 -95.542,95.533c-52.771,0 -95.549,-42.761 -95.549,-95.533Zm95.549,60.502c29.455,-0 53.348,-27.095 53.348,-60.51c0,-33.407 -23.893,-60.502 -53.348,-60.502c-29.462,0 -53.347,27.095 -53.347,60.502c-0,33.423 23.885,60.51 53.347,60.51Zm167.622,30.694l40.817,0l0,-68.399l70.232,-111.745l-47.011,0l-43.633,75.721l-43.618,-75.721l-47.011,0l70.224,111.745l0,68.399Z" style="fill:#cc2229;"/></svg>