<?xml version="1.0" encoding="UTF-8" standalone="no"?><!DOCTYPE svg PUBLIC "-//W3C//DTD SVG 1.1//EN" "http://www.w3.org/Graphics/SVG/1.1/DTD/svg11.dtd"><svg width="100%" height="100%" viewBox="0 0 577 250" version="1.1" xmlns="http://www.w3.org/2000/svg" xmlns:xlink="http://www.w3.org/1999/xlink" xml:space="preserve" xmlns:serif="http://www.serif.com/" style="fill-rule:evenodd;clip-rule:evenodd;stroke-linejoin:round;stroke-miterlimit:2;"><g><path d="M97.579,201.624l-24.116,0l-0,-32.251l-16.825,-0l0,80.616l16.825,0l-0,-36.064l24.105,0l0.004,36.064l16.831,0l0,-80.616l-16.824,-0l-0,32.251Zm401.442,-32.251l0,12.304l22.856,0l-0,68.312l16.824,0l0,-68.312l22.848,0l0,-12.304l-62.528,-0Zm-88.833,-0l-16.825,-0l0,80.616l48.126,0l-0,-12.307l-31.308,-0l0.007,-68.309Zm-192.524,67.207c-0.247,0.838 -0.866,1.066 -1.753,1.066c-0.852,0 -1.507,-0.33 -1.775,-1.105l-17.715,-67.165l-19.627,0l20.356,73.541c0.989,4.84 4.214,7.083 8.78,7.083l15.522,0c4.566,0 7.52,-2.331 8.664,-6.967l19.866,-73.657l-14.86,0l-17.458,67.204Zm-217.653,-54.614l-0.011,55.427c0,8.967 4.601,12.603 12.565,12.603l37.624,-0.007l-0,-12.328l-27.21,-0c-4.669,-0 -6.165,-1.134 -6.165,-6.161l0.021,-43.669c0,-4.855 1.123,-6.154 6.154,-6.154l27.2,0l-0,-12.301l-37.589,0c-8.601,-0.003 -12.589,4.44 -12.589,12.59Zm141.317,49.534l0.007,-17.575l33.438,0l0,-12.301l-33.417,0l-0.003,-13.793c-0,-4.668 1.031,-6.154 6.157,-6.154l27.619,0l-0,-12.301l-38.022,0.014c-8.692,0 -12.579,4.338 -12.579,12.576l-0.01,55.427c-0,8.513 4.147,12.603 12.568,12.603l41.546,-0.007l-0,-12.328l-31.136,-0c-4.672,-0 -6.168,-1.046 -6.168,-6.161Zm157.752,-15.575c7.784,-0 12.568,-3.542 12.568,-12.604l-0.014,-21.355c-0,-8.418 -3.968,-12.59 -12.575,-12.59l-46.89,0l-0,80.613l16.824,0l0,-68.312l19.659,0c5.21,0 6.154,1.486 6.154,6.154l0.021,9.819c-0,4.759 -1.313,6.168 -6.161,6.168l-9.192,0.007c-3.57,-0 -5.577,2.151 -5.577,5.626c0,1.746 0.888,3.01 1.588,4.263l21.239,36.279l20.821,-0l-22.243,-34.037l3.778,-0.031Zm71.509,-46.538l-37.068,-0c-8.875,-0 -12.575,4.517 -12.575,12.575l-0.014,55.427c-0,9.154 4.876,12.604 12.568,12.604l37.096,-0c8.058,-0 12.582,-3.816 12.582,-12.604l-0.014,-55.427c0,-8.234 -3.883,-12.575 -12.575,-12.575Zm-10.389,68.274l-16.29,-0c-4.848,-0 -6.161,-1.314 -6.161,-6.161l0,-43.669c0,-4.214 0.578,-6.154 6.161,-6.154l16.297,0c4.393,0 6.14,0.757 6.14,6.154l0.014,43.669c-0,5.203 -1.588,6.161 -6.161,6.161Zm101.366,-6.161l0.007,-17.575l33.438,0l0,-12.301l-33.416,0l-0,-13.793c-0,-4.668 1.031,-6.154 6.153,-6.154l27.615,0l0,-12.301l-38.018,0.014c-8.699,0 -12.582,4.338 -12.582,12.576l-0.007,55.427c-0,8.513 4.147,12.603 12.568,12.603l41.546,-0.007l-0,-12.328l-31.136,-0c-4.668,-0 -6.168,-1.046 -6.168,-6.161Zm-33.547,-208.532l-89.608,0.011c-2.288,-0 -3.788,-0.683 -3.788,-3.827l0,-13.29c0,-3.834 -2.063,-5.862 -5.809,-5.862l-102.578,0.004c-3.833,-0 -5.805,2.158 -5.805,5.822l-0.007,13.29c0,2.806 -1.324,3.827 -3.788,3.827l-58.723,0.018c-4.492,-0 -7.122,2.144 -8.477,4.96l-28.59,55.889c-0.38,0.732 -0.58,1.544 -0.585,2.369c0,2.215 1.451,5.07 5.454,5.07l90.914,-0.011c2.806,0 3.788,1.275 3.788,3.827l-0.007,13.29c-0,4.003 2.327,5.826 5.819,5.826l51.295,-0.003l51.28,-0.004c3.492,0 5.816,-1.689 5.816,-5.784l-0.008,-13.29c0,-2.718 1.155,-3.827 3.789,-3.827l57.008,-0.014c3.932,0 6.759,-1.035 8.73,-4.696l28.267,-55.23c0.619,-1.194 1.052,-1.873 1.052,-3.292c0.011,-3.753 -3.224,-5.073 -5.439,-5.073Zm-22.58,22.264l-13.628,26.654c-0.852,1.545 -2.373,1.612 -3.44,1.612l-67.647,0c-2.806,0 -3.83,1.275 -3.83,3.823l-0.014,15.332c-0,2.549 -1.113,3.767 -3.838,3.767l-35.511,0l-35.537,0.007c-2.376,0 -3.83,-0.834 -3.83,-3.812l-0.007,-15.332c-0,-2.803 -1.285,-3.802 -3.83,-3.802l-82.934,-0c-2.038,-0 -3.446,-1.285 -3.446,-3.067c-0,-0.514 0.13,-1.003 0.355,-1.429l13.628,-26.654c0.521,-0.947 1.377,-1.595 3.436,-1.595l68.961,0.004c2.379,-0 3.858,-0.958 3.858,-3.848l-0.003,-15.329c-0,-2.721 1.186,-3.812 3.819,-3.812l71.055,-0.004c2.553,0 3.824,1.134 3.824,3.851l-0.007,15.329c-0,2.633 1.225,3.802 3.858,3.802l81.62,0c2.598,0 3.447,1.711 3.447,3.066c-0.007,0.501 -0.13,0.993 -0.359,1.437Z"/><path d="M347.952,11.783c-0,-1.359 -1.106,-1.669 -2.25,-1.669l-2.742,0l-0,6.306l0.887,-0l-0,-2.76l1.225,-0l1.802,2.76l0.99,-0l-1.877,-2.852c1.127,-0.028 1.965,-0.546 1.965,-1.785Zm-2.454,1.123l-1.651,0l-0,-2.038l1.686,-0c0.662,-0 1.535,0.074 1.535,0.898c-0.003,0.619 -0.296,1.14 -1.57,1.14Z"/><path d="M345.058,7.636c-0.006,0 -0.012,0 -0.018,0c-3.087,0 -5.629,2.538 -5.633,5.626c0,3.105 2.496,5.622 5.651,5.622c3.116,0 5.626,-2.492 5.626,-5.626c-0,-3.101 -2.51,-5.622 -5.626,-5.622Zm-0,10.361c-2.552,-0.07 -4.613,-2.188 -4.613,-4.74c-0,-2.553 2.061,-4.671 4.613,-4.741c2.583,0.004 4.706,2.128 4.71,4.711c0,2.644 -2.098,4.77 -4.71,4.77Zm228.926,155.868c-0,-1.355 -1.105,-1.665 -2.25,-1.665l-2.742,-0l-0,6.298l0.887,0l0,-2.757l1.225,0l1.803,2.757l0.989,0l-1.876,-2.848c1.123,-0.025 1.964,-0.549 1.964,-1.785Zm-2.457,1.12l-1.651,-0l-0,-2.035l1.686,-0c0.662,-0 1.535,0.074 1.535,0.901c-0,0.62 -0.296,1.134 -1.57,1.134Z"/><path d="M571.087,169.718c-3.13,-0 -5.651,2.524 -5.651,5.626c0,3.101 2.496,5.625 5.651,5.625c3.115,0 5.625,-2.496 5.625,-5.625c0,-3.102 -2.51,-5.626 -5.625,-5.626Zm-0,10.364c-2.6,0 -4.739,-2.139 -4.739,-4.738c-0,-2.6 2.139,-4.739 4.739,-4.739c2.582,0.004 4.706,2.128 4.71,4.71c0,2.641 -2.098,4.767 -4.71,4.767Z"/></g></svg>