<?xml version="1.0" encoding="UTF-8" standalone="no"?><!DOCTYPE svg PUBLIC "-//W3C//DTD SVG 1.1//EN" "http://www.w3.org/Graphics/SVG/1.1/DTD/svg11.dtd"><svg width="100%" height="100%" viewBox="0 0 674 250" version="1.1" xmlns="http://www.w3.org/2000/svg" xmlns:xlink="http://www.w3.org/1999/xlink" xml:space="preserve" xmlns:serif="http://www.serif.com/" style="fill-rule:evenodd;clip-rule:evenodd;stroke-linejoin:round;stroke-miterlimit:2;"><g><path d="M84.806,164.533c21.612,0 18.915,22.965 19.298,23.931l-22.386,-0c-0,-0.196 -0,-6.95 -6.173,-6.95l-45.152,-0c-8.877,-0 -8.877,15.444 -0.774,15.827c14.667,0.77 38.593,0.574 58.275,1.54c9.26,0.582 17.367,6.563 17.367,16.597c0,0.383 0.387,17.368 0.387,17.368c0.192,11.574 -9.839,16.98 -19.681,16.98l-64.451,0c-10.805,0 -19.682,-7.908 -21.226,-18.528c-0.387,-2.558 -0.387,-5.159 0,-7.716l22.383,-0c-0,-0 -0.387,9.647 9.26,9.647c16.981,-0 26.628,0.391 42.065,-0c11.578,-0.195 13.505,-16.981 -0,-17.751c-16.207,-0.77 -28.559,-1.348 -49.011,-1.931c-13.892,-0.383 -23.93,-5.785 -23.93,-16.98l-0,-17.368c-0,-8.103 7.72,-14.666 18.524,-14.666l65.225,0Zm53.263,2.701c-0.387,0.582 0,33.965 0,59.44c0,3.666 2.314,6.555 6.942,6.555l43.226,-0c4.632,-0 5.789,-3.854 5.789,-6.942c0.387,-22.77 0.387,-58.084 -0,-58.662l24.697,-0c-0,-0 0.195,42.451 0.387,65.221c0.195,10.229 -8.491,16.785 -20.839,16.98c-23.157,0.391 -34.735,0 -56.348,0c-15.053,0 -27.98,-4.436 -28.175,-16.98c-0.192,-25.862 -0.77,-65.03 -0.387,-65.612l24.708,0Zm166.717,0.391c22.77,-0 25.084,16.597 25.084,21.613c-0,13.505 -11.383,19.103 -11.966,19.298c0.196,-0 13.51,5.015 13.51,18.138c-0,7.333 -1.157,22.957 -26.632,23.152c-29.329,0.391 -76.608,0 -76.799,0l-0,-82.201l76.803,-0Zm-6.172,33.957c4.628,0 8.49,-2.701 8.49,-8.873c-0,-5.402 -4.437,-8.487 -9.26,-8.487c-16.207,0 -44.574,-0.391 -45.153,0l0,17.36c0.575,0.387 28.168,0 45.923,0Zm0.383,31.647c4.823,-0 9.647,-2.693 9.647,-8.873c0,-5.793 -4.824,-9.452 -10.034,-9.265c-15.054,0.196 -45.348,0 -45.926,0.391l-0,17.751c0.582,0.383 26.631,-0.004 46.313,-0.004Zm76.033,-65.604l30.095,-0l44.39,82.201l-24.322,0l-8.873,-16.597l-51.715,-0l-9.265,16.597l-24.696,0l44.386,-82.201Zm14.658,18.137l-16.206,29.716l33.195,0l-16.989,-29.716Zm136.626,-1.54c6.172,0 10.034,7.326 10.034,13.119c0,5.793 -4.057,11.965 -10.034,11.965c-17.758,0 -44.773,0.195 -45.152,0l-0,-25.084c0.574,-0.391 28.938,0 45.152,0Zm-45.152,40.13c0.187,-0 29.716,0.195 44.382,-0c6.36,-0.196 11.571,6.563 11.571,12.356l-0,13.118l21.999,0l0,-12.735c0,-11.965 -12.54,-18.912 -12.735,-18.912c0.582,-0.195 12.356,-8.103 12.356,-21.221c-0,-15.444 -6.173,-29.333 -28.946,-29.333l-73.328,-0l-0,82.201l24.701,0l-0,-25.474Zm111.147,-57.118c-0.583,0.77 0.383,33.965 0.383,59.44c-0,3.666 1.931,6.555 6.95,6.555l42.834,-0c4.632,-0 5.793,-3.854 5.793,-6.942c0.383,-22.77 0.77,-58.084 0.383,-58.662l24.322,-0c-0,-0 0.188,42.451 0.383,65.221c0.195,10.229 -8.103,16.785 -20.452,16.98c-23.543,0.391 -35.125,0 -56.347,0c-15.05,0 -28.367,-4.241 -28.555,-16.98c-0.391,-25.862 -0.391,-65.03 -0,-65.612l24.306,0Z"/><path d="M342.425,3.487c-30.927,-0 -59.466,8.206 -80.5,20.658c-21.544,12.755 -35.137,29.904 -35.137,47.095c-0,17.153 13.532,34.114 34.991,46.712c21.042,12.352 49.643,20.455 80.642,20.455c31.249,0 59.968,-8.088 81.087,-20.421c21.574,-12.605 35.133,-29.582 35.133,-46.746c0,-17.21 -13.62,-34.375 -35.275,-47.133c-21.092,-12.429 -49.75,-20.62 -80.941,-20.62Zm-82.267,17.662c21.529,-12.747 50.701,-21.149 82.267,-21.149c31.819,0 61.098,8.383 82.703,21.107c22.712,13.383 37.003,31.624 37.003,50.125c0,18.471 -14.233,36.532 -36.869,49.754c-21.605,12.62 -50.953,20.9 -82.837,20.9c-31.624,-0 -60.853,-8.299 -82.397,-20.946c-22.52,-13.222 -36.719,-31.256 -36.719,-49.708c-0.004,-18.478 14.252,-36.704 36.849,-50.083Z" style="fill-rule:nonzero;"/><path d="M310.307,45.543l53.731,11.682l-53.149,11.092l-11.678,29.198l-11.678,-29.781l-49.052,-10.509l49.052,-10.513l11.096,-28.03l11.678,26.861Zm58.983,27.444l22.77,4.674l-22.77,5.257l-4.678,12.26l-5.252,-12.846l-21.023,-4.671l21.023,-4.674l4.678,-11.678l5.252,11.678Zm55.478,0l22.77,4.674l-22.77,5.257l-4.678,12.26l-5.253,-12.846l-20.444,-4.671l20.444,-4.674l5.253,-11.678l4.678,11.678Zm-14.597,-34.451l22.769,4.67l-22.769,4.67l-4.678,12.851l-5.253,-12.851l-21.023,-4.67l21.023,-4.67l4.67,-11.682l5.261,11.682Zm-21.613,61.899l23.364,5.256l-22.781,4.671l-5.253,12.264l-5.261,-12.264l-20.436,-4.671l20.436,-4.67l5.261,-11.682l4.67,11.096Zm-60.148,4.088l22.777,5.256l-22.777,4.671l-4.674,12.264l-5.253,-12.847l-21.023,-4.088l21.023,-4.674l4.67,-12.26l5.257,11.678Z"/></g></svg>