<?xml version="1.0" encoding="UTF-8" standalone="no"?><!DOCTYPE svg PUBLIC "-//W3C//DTD SVG 1.1//EN" "http://www.w3.org/Graphics/SVG/1.1/DTD/svg11.dtd"><svg width="100%" height="100%" viewBox="0 0 405 250" version="1.1" xmlns="http://www.w3.org/2000/svg" xmlns:xlink="http://www.w3.org/1999/xlink" xml:space="preserve" xmlns:serif="http://www.serif.com/" style="fill-rule:evenodd;clip-rule:evenodd;stroke-linejoin:round;stroke-miterlimit:2;"><path d="M340.547,248.232l0,-53.656l-22.143,-0l-0,53.656l22.143,-0Zm-117.23,-22.28l-0,-30.565l-21.463,0l-0,23.365c-0,6.791 -0.271,8.695 -0.678,10.461c-1.495,4.892 -6.658,7.06 -11.954,7.06c-7.334,0 -10.73,-2.851 -12.09,-7.333c-0.407,-1.491 -0.542,-3.121 -0.678,-4.752c-0.136,-1.766 0,-3.67 0,-5.703l0,-23.095l-21.734,-0l-0,30.7c-0,6.932 2.311,12.092 6.112,15.622c6.52,6.386 17.524,8.288 27.711,8.288c12.361,-0 21.87,-1.766 28.661,-8.421c3.535,-3.399 6.113,-7.881 6.113,-15.627Zm-105.41,-3.803c-1.076,-0.187 -2.167,-0.277 -3.259,-0.269l-24.45,-0c-1.224,-0 -2.583,0.135 -3.261,0.269c0.407,-0.41 1.223,-1.221 2.037,-2.309l11.002,-18.204c1.495,-2.443 2.173,-4.073 2.445,-4.752c0.271,0.679 0.949,2.309 2.444,4.892l11.275,18.34c0.545,0.812 1.36,1.623 1.767,2.033Zm41.023,26.083l-48.902,-73.351l-27.437,0l7.197,8.557c0.136,0.136 0.41,0.269 0.679,0.41c-0.271,0.135 -0.543,0.269 -0.679,0.404l-42.652,63.98l24.722,-0l6.657,-11.004c0.272,-0.543 0.408,-1.088 0.408,-1.357c0.271,-0 0.952,0.269 1.63,0.269l44.147,-0c0.678,-0 1.221,-0.136 1.492,-0.269c-0.025,0.382 0.07,0.762 0.272,1.088l6.929,11.273l25.537,-0Zm153.499,-27.574c0,-5.979 -2.447,-12.908 -10.052,-22.552l-18.34,-23.227l-25.538,-0l14.534,16.3c2.447,2.718 5.57,5.16 5.57,5.16c-3.53,-2.039 -8.012,-2.851 -11.544,-2.851c-8.422,-0 -16.983,1.766 -24.586,5.979c-8.152,4.477 -13.586,11.951 -13.586,21.87c-0,7.605 3.396,13.448 7.743,17.93c9.782,9.779 27.573,10.731 34.095,10.731c9.642,-0 24.721,-2.173 33.283,-9.916c5.027,-4.621 8.421,-11.002 8.421,-19.424Zm-21.191,0.679c-0,5.57 -3.671,9.778 -8.288,12.087c-3.804,2.04 -8.288,2.582 -12.225,2.582c-3.937,0 -8.558,-0.816 -12.361,-2.718c-4.618,-2.309 -8.153,-6.791 -8.153,-11.682c0,-5.839 4.483,-10.461 9.783,-12.77c3.261,-1.49 7.201,-2.035 10.321,-2.035c2.992,-0 7.338,0.404 10.735,1.766c6.115,2.578 10.188,7.469 10.188,12.77Zm42.275,-221.337c-15.902,-0.026 -31.351,5.342 -43.812,15.222c-12.459,-9.88 -27.909,-15.248 -43.811,-15.222c-15.9,-0.025 -31.349,5.343 -43.808,15.222c-12.459,-9.881 -27.908,-15.249 -43.809,-15.222c-15.901,-0.025 -31.349,5.343 -43.809,15.222c-12.46,-9.879 -27.908,-15.247 -43.809,-15.222c-39.028,0 -70.655,31.625 -70.655,70.655c0,39.026 31.625,70.655 70.655,70.655c15.901,0.025 31.349,-5.343 43.809,-15.221c12.46,9.879 27.908,15.246 43.809,15.221c15.901,0.027 31.35,-5.341 43.809,-15.221c12.459,9.878 27.908,15.246 43.808,15.221c15.902,0.027 31.352,-5.341 43.811,-15.221c12.46,9.88 27.91,15.248 43.812,15.221c39.027,0 70.652,-31.627 70.652,-70.655c0,-39.027 -31.625,-70.655 -70.652,-70.655Zm-230.609,114.547c-9.004,6.568 -20.251,10.576 -32.249,10.576c-30.107,0 -54.47,-24.36 -54.47,-54.468c0,-30.107 24.363,-54.47 54.47,-54.47c11.998,0 23.238,4.011 32.249,10.581c-9.926,12.469 -15.317,27.952 -15.284,43.889c0.007,15.931 5.395,31.402 15.284,43.892Zm11.562,-11.528c-6.942,-9.358 -10.681,-20.712 -10.659,-32.364c-0.029,-11.653 3.711,-23.008 10.659,-32.363c6.947,9.355 10.687,20.711 10.659,32.363c0.022,11.652 -3.717,23.005 -10.659,32.364Zm76.057,11.528c-9.352,6.885 -20.673,10.588 -32.287,10.56c-11.59,0.024 -22.885,-3.68 -32.212,-10.56c9.89,-12.489 15.278,-27.959 15.284,-43.889c0.033,-15.937 -5.358,-31.421 -15.284,-43.89c9.326,-6.882 20.622,-10.586 32.212,-10.562c12.085,-0 23.25,3.909 32.287,10.562c-9.925,12.469 -15.316,27.953 -15.283,43.89c0.007,15.93 5.394,31.4 15.283,43.889Zm11.559,-11.528c-6.943,-9.358 -10.682,-20.712 -10.659,-32.364c-0.029,-11.652 3.711,-23.008 10.659,-32.363c6.948,9.355 10.689,20.71 10.661,32.363c0.022,11.652 -3.718,23.006 -10.661,32.364Zm76.059,11.528c-9.038,6.655 -20.203,10.56 -32.285,10.56c-12.083,-0 -23.176,-3.912 -32.214,-10.56c9.891,-12.488 15.278,-27.959 15.284,-43.889c0.033,-15.937 -5.359,-31.421 -15.284,-43.89c9.038,-6.65 20.131,-10.562 32.214,-10.562c12.082,-0 23.247,3.909 32.285,10.562c-9.924,12.47 -15.316,27.953 -15.284,43.89c0.008,15.93 5.395,31.4 15.284,43.889Zm11.563,-11.528c-6.943,-9.358 -10.682,-20.712 -10.659,-32.364c-0.03,-11.653 3.71,-23.009 10.659,-32.363c6.947,9.355 10.687,20.711 10.659,32.363c0.021,11.652 -3.719,23.005 -10.659,32.364Zm43.809,22.104c-12.002,0 -23.248,-4.008 -32.249,-10.576c9.889,-12.489 15.276,-27.959 15.284,-43.889c0.032,-15.937 -5.36,-31.42 -15.284,-43.89c9.01,-6.568 20.249,-10.58 32.249,-10.58c30.102,-0 54.47,24.362 54.47,54.47c-0,30.102 -24.368,54.465 -54.47,54.465Z"/></svg>