<?xml version="1.0" encoding="UTF-8" standalone="no"?><!DOCTYPE svg PUBLIC "-//W3C//DTD SVG 1.1//EN" "http://www.w3.org/Graphics/SVG/1.1/DTD/svg11.dtd"><svg width="100%" height="100%" viewBox="0 0 250 250" version="1.1" xmlns="http://www.w3.org/2000/svg" xmlns:xlink="http://www.w3.org/1999/xlink" xml:space="preserve" xmlns:serif="http://www.serif.com/" style="fill-rule:evenodd;clip-rule:evenodd;stroke-linejoin:round;stroke-miterlimit:2;"><g><path d="M125,250c33.388,0 64.777,-13.003 88.387,-36.613c23.61,-23.609 36.613,-54.999 36.613,-88.387c0,-33.388 -13.003,-64.778 -36.613,-88.388c-23.609,-23.609 -54.999,-36.612 -88.387,-36.612c-68.926,-0 -125,56.074 -125,125c-0,33.388 13.003,64.778 36.612,88.387c23.61,23.61 55,36.613 88.388,36.613Z" style="fill-rule:nonzero;"/><path d="M4.325,125c-0,-32.233 12.552,-62.537 35.345,-85.33c22.793,-22.793 53.097,-35.345 85.33,-35.345c32.233,-0 62.537,12.552 85.329,35.345c22.793,22.793 35.346,53.097 35.346,85.33c-0,66.54 -54.135,120.675 -120.675,120.675c-32.233,-0 -62.537,-12.553 -85.33,-35.345c-22.793,-22.794 -35.345,-53.097 -35.345,-85.33Z" style="fill:#fff;fill-rule:nonzero;"/><path d="M125,9.298c-63.9,0 -115.702,51.802 -115.702,115.702c0,63.899 51.802,115.701 115.702,115.701c63.899,0 115.701,-51.802 115.701,-115.701c0,-63.9 -51.802,-115.702 -115.701,-115.702Z" style="fill-rule:nonzero;"/><path d="M125,198.906c-40.817,-0 -73.906,-33.089 -73.906,-73.906c-0,-40.817 33.089,-73.906 73.906,-73.906c40.816,-0 73.906,33.089 73.906,73.906c-0,40.817 -33.089,73.906 -73.906,73.906Z" style="fill:#fff;fill-rule:nonzero;"/><path d="M55.848,125l69.152,-0l-0,-69.152c-38.191,-0 -69.152,30.961 -69.152,69.152Zm69.152,-0l-0,69.151c38.19,0 69.151,-30.96 69.151,-69.151l-69.151,-0Z" style="fill-rule:nonzero;"/><path d="M70.688,54.485c-2.45,-2.382 -6.237,-3.099 -9.792,-0.895c0.679,-1.76 0.402,-3.555 0.041,-4.547c-1.532,-2.793 -2.066,-3.142 -3.329,-4.201c-4.086,-3.429 -8.386,-0.502 -11.462,3.164l-14.86,17.709l23.36,19.603l15.672,-18.677c3.58,-4.267 4.134,-8.497 0.37,-12.156Zm58.183,-8.416l8.022,-21.264l0,21.264l6.098,0l-0,-30.454l-9.162,-0l-8.332,21.805l0.086,0l-8.332,-21.805l-9.16,-0l-0,30.454l6.096,0l0,-21.264l8.023,21.264l6.661,0Zm81.975,12.67l-11.479,16.253l17.796,-8.449l4.712,5.819l-28.011,13.578l-5.53,-6.885l11.018,-16.109l-0.066,-0.081l-18.048,7.427l-5.584,-6.84l19.105,-24.576l4.713,5.819l-11.965,15.651l18.284,-7.85l5.055,6.243Z" style="fill:#fff;fill-rule:nonzero;"/><path d="M49.393,52.389c1.035,-1.233 3.372,-1.182 4.875,0.079c1.652,1.386 1.656,3.352 0.546,4.674l-8.825,10.517l-5.521,-4.633l8.925,-10.637Zm15.702,12.406l-9.305,11.089l-5.834,-4.896l9.38,-11.178c1.059,-1.263 3.42,-1.63 5.013,-0.294c1.803,1.513 1.982,3.807 0.746,5.279Z" style="fill-rule:nonzero;"/></g></svg>