<?xml version="1.0" encoding="UTF-8" standalone="no"?><!DOCTYPE svg PUBLIC "-//W3C//DTD SVG 1.1//EN" "http://www.w3.org/Graphics/SVG/1.1/DTD/svg11.dtd"><svg width="100%" height="100%" viewBox="0 0 1579 250" version="1.1" xmlns="http://www.w3.org/2000/svg" xmlns:xlink="http://www.w3.org/1999/xlink" xml:space="preserve" xmlns:serif="http://www.serif.com/" style="fill-rule:evenodd;clip-rule:evenodd;stroke-linejoin:round;stroke-miterlimit:2;"><g><path d="M1553.3,146.758l-170.697,0l5.189,-20.75l170.115,0l8.076,-28.833l-212.197,-0l-13.847,50.739c-2.886,12.691 -0.574,27.686 14.421,27.686l190.865,-0l8.075,-28.842Zm-194.341,-70.923c3.459,-13.265 7.501,-28.834 32.301,-28.834l187.422,0l-7.501,28.834l-212.222,-0Zm-513.231,-28.834l-7.502,28.834l160.901,-0c25.939,0.573 23.34,20.699 21.905,28.259c-2.303,12.109 -17.88,38.065 -39.786,42.664l-119.368,0l11.536,-45.55l-42.107,0l-19.02,74.392l184.536,-0c43.246,-0 69.185,-53.625 70.341,-73.818c1.156,-20.193 0.574,-54.781 -60.553,-54.781l-160.883,0Zm-81.894,0c43.255,0 57.676,29.407 53.634,57.667c-9.805,57.085 -59.405,70.932 -77.86,70.932l-120.515,-0c-43.246,-0 -57.667,-29.399 -53.633,-57.667c9.805,-57.093 71.514,-70.932 89.968,-70.932l20.758,25.374c-24.8,-0 -66.316,12.117 -69.784,42.672c-3.46,30.572 14.413,35.188 38.065,35.188l74.383,-0c24.792,-0 54.207,-12.118 57.667,-42.681c3.46,-30.563 -14.412,-35.179 -38.056,-35.179l-62.275,-0l-20.758,-25.374l108.406,0Zm573.793,28.834l-163.196,-0c-24.8,-0 -54.798,16.142 -56.511,39.212c-2.303,30.673 14.404,31.711 38.057,31.711l79.007,0c18.589,0 29.728,-4.86 35.601,-20.767l-90.973,0l7.502,-28.825l144.226,0c-0.067,2.498 -1.417,5.004 -1.78,7.502c-9.805,57.085 -59.971,70.932 -78.434,70.932l-120.532,-0c-43.246,-0 -57.667,-29.399 -53.625,-57.667c9.806,-57.093 71.515,-70.932 89.969,-70.932l141.273,0c17.307,0 29.998,7.493 29.416,28.834c-0,-0 0.582,-21.341 -0,-0Zm-1006.3,-28.834l-7.493,28.834l160.892,-0c25.948,0.573 23.357,20.699 21.914,28.259c-2.304,12.109 -17.872,38.065 -39.786,42.664l-119.376,0l11.526,-45.55l-42.09,0l-19.036,74.392l184.536,-0c43.246,-0 69.202,-53.625 70.358,-73.818c1.156,-20.193 0.574,-54.781 -60.553,-54.781l-160.892,0Zm-211.058,-47.001c44.403,0 78.139,2.886 96.593,4.616c10.379,1.147 23.931,7.493 23.644,25.374c0.295,12.682 -0.861,94.575 -3.164,119.949c-0.574,17.881 -2.886,33.736 -20.471,45.854c-22.142,15.248 -47.288,33.162 -96.593,54.207c-49.305,-21.045 -74.451,-38.959 -96.593,-54.207c-17.585,-12.118 -19.897,-27.965 -20.471,-45.854c-2.312,-25.374 -3.46,-107.258 -3.173,-119.949c-0.295,-17.881 13.257,-24.218 23.636,-25.374c18.454,-1.73 52.19,-4.616 96.592,-4.616c0,0 -44.402,0 0,0Z"/><path d="M120.271,9.231c40.082,0.574 76.696,2.304 92.273,4.616c7.493,0.574 17.298,1.73 17.872,16.725c1.156,24.226 -1.73,103.799 -3.164,124.844c-1.73,18.176 -4.684,23.205 -14.134,31.145c-12.683,10.666 -65.161,42.672 -92.838,53.052c-27.678,-10.38 -80.163,-42.386 -92.846,-53.052c-9.443,-7.94 -12.396,-12.969 -14.126,-31.145c-1.443,-21.045 -4.329,-100.618 -3.173,-124.844c0.574,-14.995 10.38,-16.151 17.881,-16.725c15.56,-2.312 52.174,-4.042 92.255,-4.616c0,0 -40.081,0.574 0,0Z" style="fill:#fff;"/><path d="M28.581,103.225c-2.877,-0.869 -5.763,-0.574 -6.919,5.19c-1.156,5.763 -0.869,9.223 0.574,12.682c-1.443,2.296 -0.295,12.109 2.017,13.839c-0.861,2.886 1.443,11.535 4.328,12.97c-0.573,3.459 4.608,10.682 7.789,12.117c-2.312,1.156 5.603,6.211 9.223,7.502c4.903,1.729 13.552,1.729 17.011,1.156c2.886,-0 3.747,-4.616 1.157,-6.624c-2.591,-2.026 -29.982,-24.227 -30.851,-52.478c0.279,-2.599 -1.451,-5.772 -4.329,-6.354c0,0 2.878,0.582 0,0Zm86.788,-42.959c-2.304,-2.304 -4.321,-4.616 -8.362,-4.616c-1.73,-3.173 -6.92,-6.919 -10.093,-7.206c-1.729,-2.877 -8.075,-6.919 -11.822,-6.632c-1.443,-2.599 -14.994,-3.173 -17.88,-1.443c-2.599,-1.443 -13.552,0.869 -14.708,4.328c-3.747,0.87 -11.248,6.92 -14.995,15.856c-1.443,2.59 1.443,3.46 2.886,1.73c1.443,-1.73 12.109,-6.633 18.159,-4.608c6.059,2.017 21.627,9.51 40.082,35.171c3.173,4.616 13.839,7.789 15.855,-2.017c2.506,-12.134 4.911,-25.947 0.878,-30.563c-0,-0 4.033,4.616 -0,-0Zm96.592,42.959c2.886,-0.869 5.772,-0.574 6.92,5.19c1.156,5.763 0.869,9.223 -0.574,12.682c1.443,2.296 0.287,12.109 -2.017,13.839c0.869,2.886 -1.443,11.535 -4.329,12.97c0.583,3.459 -4.615,10.682 -7.78,12.117c2.304,1.156 -5.603,6.211 -9.223,7.502c-4.902,1.729 -13.551,1.729 -17.011,1.156c-2.886,-0 -3.755,-4.616 -1.156,-6.624c2.599,-2.026 29.989,-24.227 30.85,-52.478c-0.295,-2.599 1.435,-5.772 4.32,-6.354c0,0 -2.885,0.582 0,0Z"/><path d="M120.271,191.455c2.886,1.156 5.477,0.296 7.494,-1.156c-3.46,0 -5.764,-2.303 -5.764,-6.05c0,-3.755 1.156,-6.067 4.903,-5.468c3.747,0.557 6.059,-0.59 4.903,-6.641c-1.156,-6.05 -1.73,-8.936 -1.156,-11.813l5.476,-18.159c4.32,-0.574 9.223,-2.026 8.649,-7.797c-2.599,-0.574 -6.919,1.73 -7.788,4.042c-0.869,1.451 -3.46,-0 -2.599,-1.73l1.443,-4.042c0.573,-1.73 2.59,-2.591 3.746,-3.165c1.156,-0.573 2.886,-1.729 7.789,-2.303c1.443,-4.337 3.459,-14.708 -0.574,-17.881c-1.443,-0.861 -0.295,-1.73 1.156,-1.73c1.443,0 3.46,-0.869 4.903,-3.459c1.434,-2.599 13.264,-28.547 23.07,-37.196c9.797,-8.649 27.103,-3.164 31.424,4.329c4.329,7.501 6.632,18.741 5.772,26.816c-0,2.304 -1.157,2.886 -2.591,3.173c-1.475,0.378 -2.853,1.065 -4.042,2.017c-1.443,1.156 -1.443,2.599 -1.443,3.747c0,1.147 -3.46,26.234 -21.627,40.36c-3.46,2.32 -6.919,0.295 -6.919,-2.591c-0,-2.886 -0,-8.354 2.885,-9.805c-1.738,-1.435 -0.869,-10.371 1.156,-12.117c-1.442,-2.017 -0.573,-11.814 2.304,-13.257c-1.443,-0.869 -2.413,-5.198 -2.304,-6.345c0.574,-6.346 -6.05,-10.093 -8.649,-3.747c2.017,0.869 4.616,3.173 3.173,14.412l-15.569,9.51c0.87,2.886 -0.869,12.118 -2.599,17.603c-1.729,5.468 -3.459,14.125 -7.788,19.019c-4.32,4.911 -7.206,10.379 -9.797,23.931c-0.574,4.911 -4.616,5.772 -7.206,6.346c4.042,1.451 2.017,4.616 -0.574,6.067c-2.599,1.434 -6.337,3.738 -11.248,3.738c-4.911,0 -8.649,-2.304 -11.248,-3.738c-2.591,-1.451 -4.608,-4.616 -0.574,-6.067c-2.599,-0.574 -6.633,-1.435 -7.206,-6.346c-2.599,-13.543 -5.477,-19.02 -9.806,-23.931c-4.328,-4.894 -6.058,-13.543 -7.788,-19.019c-1.73,-5.485 -3.46,-14.717 -2.591,-17.603l-15.577,-9.51c-1.434,-11.248 1.156,-13.551 3.173,-14.412c-2.599,-6.346 -9.223,-2.599 -8.649,3.747c0.101,1.147 -0.869,5.476 -2.304,6.345c2.878,1.443 3.747,11.24 2.304,13.257c2.017,1.738 2.877,10.682 1.156,12.117c2.886,1.451 2.886,6.919 2.886,9.805c-0,2.886 -3.468,4.911 -6.919,2.591c-18.168,-14.126 -21.628,-39.204 -21.628,-40.36c0,-1.156 0,-2.599 -1.443,-3.747c-1.184,-0.958 -2.564,-1.646 -4.042,-2.017c-1.434,-0.287 -2.59,-0.869 -2.59,-3.173c-0.869,-8.075 1.443,-19.315 5.763,-26.816c4.329,-7.493 21.627,-12.978 31.433,-4.329c9.805,8.649 21.627,34.605 23.07,37.196c1.443,2.59 3.46,3.459 4.902,3.459c1.435,0 2.591,0.869 1.148,1.73c-4.033,3.173 -2.017,13.544 -0.574,17.881c4.903,0.574 6.633,1.73 7.78,2.303c1.148,0.574 3.173,1.435 3.747,3.165l1.443,4.042c0.869,1.73 -1.73,3.181 -2.599,1.73c-0.869,-2.304 -5.19,-4.616 -7.789,-4.042c-0.573,5.771 4.329,7.214 8.65,7.797l5.476,18.159c0.582,2.886 -0,5.771 -1.148,11.813c-1.156,6.051 1.148,7.207 4.903,6.641c3.747,-0.59 4.903,1.713 4.903,5.468c-0,3.738 -2.304,6.05 -5.772,6.05c2.017,1.452 4.616,2.312 7.501,1.156c0,0 -2.885,1.156 0,0Z"/><path d="M125.174,60.266c2.304,-2.304 4.32,-4.616 8.362,-4.616c1.73,-3.173 6.92,-6.919 10.093,-7.206c1.729,-2.877 8.075,-6.919 11.822,-6.632c1.442,-2.599 14.994,-3.173 17.88,-1.443c2.599,-1.443 13.544,0.869 14.7,4.328c3.746,0.87 11.248,6.92 14.994,15.856c1.435,2.59 -1.443,3.46 -2.885,1.73c-1.443,-1.73 -12.118,-6.633 -18.168,-4.608c-6.05,2.026 -21.627,9.51 -40.082,35.171c-3.173,4.616 -13.847,7.789 -15.864,-2.017c-2.489,-12.134 -4.894,-25.947 -0.852,-30.563c0,-0 -4.042,4.616 0,-0Z"/></g></svg>