<?xml version="1.0" encoding="UTF-8" standalone="no"?><!DOCTYPE svg PUBLIC "-//W3C//DTD SVG 1.1//EN" "http://www.w3.org/Graphics/SVG/1.1/DTD/svg11.dtd"><svg width="100%" height="100%" viewBox="0 0 364 250" version="1.1" xmlns="http://www.w3.org/2000/svg" xmlns:xlink="http://www.w3.org/1999/xlink" xml:space="preserve" xmlns:serif="http://www.serif.com/" style="fill-rule:evenodd;clip-rule:evenodd;stroke-linejoin:round;stroke-miterlimit:2;"><g><path d="M11.294,76.578c-3.095,-0 -5.57,1.083 -7.426,2.939c-2.629,2.629 -3.868,5.26 -3.868,8.202l0,75.186c0,2.939 1.239,5.566 3.095,7.424c2.629,2.629 5.104,3.712 8.199,3.712l341.429,0c2.631,0 4.798,-1.085 7.429,-3.712c1.854,-1.085 3.095,-3.712 3.095,-7.424l-0,-75.186c-0,-3.404 -1.241,-6.343 -3.095,-8.202c-1.858,-1.856 -4.487,-2.939 -7.429,-2.939l-341.429,-0Zm77.353,20.886l15.624,-0l-0,55.692l-15.624,-0l-0,-55.692Zm-68.534,-0l25.37,-0l17.018,42.388l0,-42.388l15.626,-0l0,55.692l-24.598,-0l-17.79,-43.779l-0,43.779l-15.626,-0l-0,-55.692Zm107.983,-0l32.022,-0l0,12.53l-31.247,0l-0,8.973l16.243,-0c13.459,-0 20.111,5.57 20.111,17.173c-0,4.797 -1.392,8.817 -4.487,12.529c-3.713,3.095 -7.427,4.487 -11.139,4.487l-35.735,-0l0,-12.529l34.962,-0l0,-8.972l-17.018,-0c-6.343,-0 -11.139,-1.548 -14.234,-4.487c-2.939,-2.942 -4.331,-7.735 -4.331,-14.079c-0,-6.032 1.083,-10.055 3.559,-11.913c2.631,-2.629 6.343,-3.712 11.294,-3.712Zm88.489,-0l0,12.53l-31.247,0l-0,8.973l16.241,-0c13.459,-0 20.113,5.57 20.113,17.173c-0,4.797 -1.703,9.283 -5.109,12.529c-2.939,3.095 -6.648,4.487 -11.136,4.487l-34.188,-0l0,-12.529l34.189,-0l0,-8.972l-17.171,-0c-6.962,-0 -12.222,-1.858 -15.626,-6.033c-2.631,-3.25 -3.714,-7.428 -3.714,-12.533c0,-5.568 1.547,-9.746 4.487,-11.913c2.629,-2.629 6.343,-3.712 11.141,-3.712l32.02,-0Zm23.053,-0l23.048,-0l20.113,55.692l-16.397,-0l-2.939,-10.364l-23.825,-0l-2.94,10.364l-16.396,-0l19.336,-55.692Zm46.099,-0l26.149,-0l16.241,42.388l0,-42.388l16.401,-0l-0,55.692l-24.445,-0l-18.722,-43.779l-0,43.779l-15.624,-0l-0,-55.692Z" style="fill:#374e8e;"/><path d="M244.123,130.88l14.851,0l-7.425,-20.886l-7.426,20.886Z" style="fill:#374e8e;"/><path d="M116.029,19.338c-20.42,12.995 -35.273,29.858 -45.328,49.815l222.464,0c-10.675,-21.194 -25.681,-38.367 -45.328,-50.588c-20.109,-12.377 -42.078,-18.565 -65.439,-18.565c-23.514,0.002 -45.794,6.19 -66.369,19.338Zm-45.328,162.13c10.055,20.113 24.908,36.818 45.328,49.813c19.802,12.378 41.771,18.719 66.369,18.719c24.598,0 46.41,-6.341 66.214,-18.719c20.421,-13.304 35.271,-30.011 44.553,-49.813l-222.464,-0Z" style="fill:#ca3132;"/></g></svg>