<?xml version="1.0" encoding="UTF-8" standalone="no"?><!DOCTYPE svg PUBLIC "-//W3C//DTD SVG 1.1//EN" "http://www.w3.org/Graphics/SVG/1.1/DTD/svg11.dtd"><svg width="100%" height="100%" viewBox="0 0 1105 250" version="1.1" xmlns="http://www.w3.org/2000/svg" xmlns:xlink="http://www.w3.org/1999/xlink" xml:space="preserve" xmlns:serif="http://www.serif.com/" style="fill-rule:evenodd;clip-rule:evenodd;stroke-linejoin:round;stroke-miterlimit:2;"><g><path d="M845.171,229.219l0,-208.312l36.429,0l0,79.785l40.019,0l0,-79.785l37.202,0l0,208.312l-37.2,0l0,-91.587l-40.021,0l0,91.587m-569.903,-80.682l-40.408,-127.63l36.3,0l24.885,81.067l27.577,-81.065l34.122,0l-41.945,123.524l-0,84.786l-40.535,0m216.651,0l32.709,0l0,-157.13l27.835,136.605l30.528,0l24.755,-138.787l0,159.312l38.224,0l0,-208.312l-59.387,0l-17.445,99.026l-20.268,-99.026l-56.949,0m485.243,0l56.438,0l34.378,208.312l-37.199,0l-7.824,-48.488l-41.945,-0l-8.21,48.488l-33.735,0l38.097,-208.312Zm40.148,125.066l-15.006,-93.125l-15.522,93.123l30.528,0.002Zm-316.57,-125.066l56.312,0l34.376,208.312l-37.071,0l-7.952,-48.488l-41.946,-0l-8.08,48.488l-33.736,0l38.097,-208.312Zm9.492,125.066l30.656,-0l-15.133,-93.125l-15.523,93.125Zm-364.415,83.246l38.095,-208.312l56.312,0l34.376,208.312l-37.198,0l-7.825,-48.488l-41.943,-0l-8.081,48.488l-33.736,0Zm47.587,-83.248l30.659,-0l-15.137,-93.123l-15.522,93.123Z" style="fill-rule:nonzero;"/><path d="M0,125.063c0,-69.009 55.925,-125.063 124.937,-125.063c69.007,0 124.932,56.054 124.932,125.063c0,69.01 -55.925,124.937 -124.934,124.937c-69.01,0 -124.935,-55.929 -124.935,-124.939l0,0.002Zm124.937,119.547c66.056,-0 119.675,-53.488 119.675,-119.547c0,-66.187 -53.619,-119.675 -119.675,-119.675c-66.061,-0 -119.678,53.488 -119.678,119.675c0,66.059 53.617,119.547 119.676,119.547" style="fill-rule:nonzero;"/><path d="M18.854,125.063c0,-58.622 47.465,-106.209 106.083,-106.209c58.618,0 106.207,47.587 106.207,106.207c-0,58.62 -47.589,106.08 -106.209,106.08c-58.619,0 -106.079,-47.46 -106.079,-106.082l-0.002,0.004Zm193.049,48.102l-17.317,-20.269c-0.258,-0.258 -0.515,-0.387 -0.771,-0.642c-0.869,-0.512 -1.952,-0.512 -2.822,-0c-2.693,1.155 -5.899,1.155 -8.594,-0.384c-2.334,-1.346 -3.973,-3.641 -4.488,-6.286c-1.155,-6.541 -5.132,-12.571 -11.289,-16.033l-7.823,-4.49l44.252,-25.526l-5.515,-9.492l-49.641,28.604l-6.028,-3.462l-0,-6.798l49.64,-28.733l-5.388,-9.491l-44.252,25.526l-0,-8.976c-0,-7.183 -3.206,-13.469 -8.21,-17.83c-2.033,-1.78 -3.202,-4.353 -3.206,-7.055c0,-3.079 1.538,-5.901 3.975,-7.567c0.808,-0.546 1.29,-1.462 1.284,-2.437c0,-0.387 0,-0.771 -0.129,-1.027l-8.851,-25.142c-0.27,-0.759 -0.989,-1.273 -1.795,-1.282c-0.807,0.009 -1.526,0.523 -1.796,1.282l-8.851,25.142c-0.129,0.258 -0.129,0.642 -0.129,1.027c-0,1.026 0.515,1.924 1.284,2.437c2.488,1.713 3.978,4.547 3.977,7.567c-0,2.822 -1.155,5.388 -3.208,7.055c-5.004,4.361 -8.208,10.647 -8.208,17.83l0,8.978l-44.254,-25.526l-5.388,9.491l49.642,28.733l0,6.798l-5.901,3.462l-49.768,-28.604l-5.517,9.492l44.254,25.528l-7.696,4.489c-6.286,3.463 -10.134,9.491 -11.416,16.034c-0.515,2.645 -2.154,4.94 -4.488,6.286c-2.695,1.54 -5.903,1.54 -8.596,0.386c-0.769,-0.515 -1.924,-0.515 -2.822,0c-0.258,0.256 -0.513,0.383 -0.642,0.64l-17.444,20.268c-0.515,0.64 -0.642,1.41 -0.257,2.179c0.431,0.694 1.25,1.052 2.053,0.898l26.295,-4.875c0.257,-0.129 0.515,-0.257 0.897,-0.384c0.898,-0.513 1.411,-1.411 1.411,-2.309c0.258,-2.95 1.924,-5.772 4.617,-7.312c2.44,-1.41 5.261,-1.666 7.699,-0.768c6.283,2.179 13.339,1.795 19.625,-1.796l7.696,-4.49l0,51.046l11.032,0l-0,-57.336l5.899,-3.463l6.029,3.463l0,57.336l10.903,0l-0,-51.048l7.825,4.488c6.157,3.593 13.211,3.977 19.496,1.797c2.438,-0.897 5.259,-0.642 7.697,0.769c2.693,1.54 4.359,4.362 4.617,7.312c0.129,0.898 0.642,1.795 1.411,2.309c0.386,0.129 0.642,0.257 1.026,0.386l26.166,4.875c0.771,0.127 1.54,-0.129 2.053,-0.9c0.387,-0.769 0.258,-1.54 -0.257,-2.18" style="fill-rule:nonzero;"/><path d="M124.937,133.015l-6.928,-3.975l0,-7.954l6.926,-3.975l6.927,3.975l0,7.954m-12.826,-43.869c-0,-3.335 2.564,-6.028 5.899,-6.028c0.002,0 0.005,0 0.008,0c3.303,0 6.021,2.718 6.021,6.021c0,0.003 0,0.005 0,0.007l0,16.803l-6.029,3.464l-5.899,-3.464m-25.656,48.102c-2.821,1.667 -6.414,0.64 -8.08,-2.181c-1.669,-2.822 -0.642,-6.541 2.179,-8.081l14.624,-8.465l5.901,3.464l0,6.925m56.565,6.157c-1.666,2.821 -5.259,3.848 -8.08,2.181l-14.624,-8.338l-0,-6.923l6.03,-3.464l14.495,8.465c2.95,1.54 3.848,5.261 2.179,8.081" style="fill-rule:nonzero;"/></g></svg>