<?xml version="1.0" encoding="UTF-8" standalone="no"?><!DOCTYPE svg PUBLIC "-//W3C//DTD SVG 1.1//EN" "http://www.w3.org/Graphics/SVG/1.1/DTD/svg11.dtd"><svg width="100%" height="100%" viewBox="0 0 315 250" version="1.1" xmlns="http://www.w3.org/2000/svg" xmlns:xlink="http://www.w3.org/1999/xlink" xml:space="preserve" xmlns:serif="http://www.serif.com/" style="fill-rule:evenodd;clip-rule:evenodd;stroke-linejoin:round;stroke-miterlimit:2;"><path d="M146.161,181.115l-79.181,8.515l15.631,15.25l112.098,0l-41.558,-24.531l-6.99,0.766Zm0,-63.168l109.05,-29.106c-0,-0 15.887,-1.143 31.647,-36.858l-140.697,46.138l-109.431,35.712c-0,0 -9.406,3.05 -13.091,5.592c-0,0 -2.543,1.527 -2.543,5.083c0,0 0.254,2.67 2.161,4.579l4.703,4.703l59.734,-15.508c0,0 -3.685,-4.831 3.686,-5.846l54.781,-14.489Zm0,56.939c0.126,1.271 1.143,2.418 1.143,2.418l-1.143,0.124l-82.995,9.406l-15.761,-14.743l98.754,-17.668l84.391,-14.998c-13.851,27.202 -41.815,27.202 -41.815,27.202l-34.823,4.447c-5.846,0.128 -7.497,1.651 -7.753,3.18l0.002,0.632Zm0,-47.027l115.024,-29.103c-13.599,30.758 -40.925,31.773 -40.925,31.773l-74.099,14.998l-24.276,4.955c-11.694,0.256 -6.609,6.23 -6.609,6.23l-70.793,12.075l-13.218,-11.694l114.896,-29.234Zm0,-62.149l160.779,-65.71c0,-0 -5.468,16.143 -8.899,24.404c-0,-0 -4.194,13.091 -20.969,18.301l-130.911,46.265l-113.498,39.908c-0,0 -14.615,5.212 -17.031,11.314c-0,0 -3.432,6.988 5.848,14.87l54.778,49.821l-21.478,0l-44.103,-43.213c-0,0 -9.914,-8.134 -10.677,-19.701l0,-2.414c0.128,-0.762 0.128,-1.523 0.382,-2.415c-0,0 1.906,-12.711 20.97,-20.462l124.809,-50.968Zm-116.93,147.306l-28.468,0l0,6.991l6.48,0l0,21.225l-6.48,-0l0,7.245l28.468,-0l-0,-7.245l-6.99,-0l0,-6.736l20.972,-0l0,6.736l-6.863,-0l-0,7.245l28.089,-0l0,-7.245l-6.736,-0l0,-21.225l6.736,0l0,-6.991l-28.217,0l0,6.991l6.991,0l0,6.988l-20.972,0l0,-6.988l6.99,0l-0,-6.991Zm244.409,16.397l11.057,0l-5.464,-8.262l-0.638,-0.762l-4.955,9.024Zm-12.455,-16.397l29.358,0l17.031,28.216l6.991,-0l0,7.245l-30.633,-0l0,-7.245l6.863,-0l-2.922,-4.194l-18.554,0l-2.288,4.194l6.735,-0l0,7.245l-23.638,-0l-0,-7.245l7.245,-0l11.691,-21.225l-7.879,0l-0,-6.991Zm-36.478,27.834c6.736,-0.762 10.677,-3.304 10.677,-9.914c-0,-7.625 -4.448,-10.039 -10.677,-10.676c-1.143,-0.128 -2.288,-0.128 -3.556,-0.128l-7.119,-0l-0,20.972l5.72,-0c1.779,-0 3.43,-0.126 4.955,-0.254Zm-31.901,-27.834l36.476,0c11.694,0 20.466,5.465 20.466,17.92c-0,14.361 -8.263,17.287 -25.041,17.541l-31.901,-0l0,-7.245l6.863,-0l0,-21.225l-6.863,0l0,-6.991Zm-98.501,29.487c6.61,-0.128 11.821,-5.337 11.821,-11.694c-0,-6.736 -5.339,-11.819 -11.821,-11.819l-0.127,0c-6.482,0 -11.693,5.083 -11.693,11.694c0,6.226 4.957,11.819 11.567,11.819l0.253,-0Zm0,-31.267l0.382,-0c16.649,-0 27.58,6.229 27.58,19.067c-0,11.818 -10.041,19.697 -27.962,19.697l-0.507,-0c-17.413,-0 -27.836,-6.736 -27.836,-19.444c0,-12.201 10.296,-19.32 28.343,-19.32Zm58.338,1.78l-28.088,0l0,6.991l6.736,0l-0,21.225l-6.736,-0l0,7.245l22.369,-0l0,-7.245l-6.991,-0l0,-18.175l19.701,25.418l21.734,-0l-0,-28.469l7.115,-0l0,-6.991l-23.132,-0l-0,6.991l7.245,-0l-0,18.682l-19.953,-25.672Z"/></svg>