<?xml version="1.0" encoding="UTF-8" standalone="no"?><!DOCTYPE svg PUBLIC "-//W3C//DTD SVG 1.1//EN" "http://www.w3.org/Graphics/SVG/1.1/DTD/svg11.dtd"><svg width="100%" height="100%" viewBox="0 0 627 250" version="1.1" xmlns="http://www.w3.org/2000/svg" xmlns:xlink="http://www.w3.org/1999/xlink" xml:space="preserve" xmlns:serif="http://www.serif.com/" style="fill-rule:evenodd;clip-rule:evenodd;stroke-linejoin:round;stroke-miterlimit:2;"><g><path d="M10.968,191.56l85.954,-0l21.751,-52.935l39.832,52.671l185.007,-0l57.389,-53.195l-9.696,53.195l72.59,-0l60.009,-52.671l-8.389,52.671l78.353,-0l32.495,-147.27l-78.613,0l-63.418,56.342l12.055,-56.866l-75.474,0.524l-82.287,82.544l34.334,-99.841l122.639,0l7.337,-26.729l-328.085,0l-9.956,25.682l121.331,-0.26l-51.1,129.719l-40.359,-52.942l69.708,-58.436l-58.177,0.523l-71.543,57.126l24.11,-57.126l-85.166,0c-31.711,71.8 -62.631,147.274 -62.631,147.274Z" style="fill:#da8f35;"/><path d="M19.089,219.076c0.524,-3.41 -1.047,-4.454 -2.619,-4.454c-2.359,0 -3.93,1.308 -4.454,3.927c-1.572,6.813 11.791,10.224 9.432,21.228c-1.571,6.556 -6.817,10.223 -13.363,10.223c-6.289,0 -8.908,-5.242 -7.861,-11.268l6.814,-0.787c-0.524,3.927 0.524,6.026 2.883,6.026c2.359,-0 4.19,-1.315 4.714,-3.667c1.835,-7.865 -11.791,-10.224 -9.172,-21.755c1.311,-6.286 6.029,-9.953 12.842,-9.953c5.766,0 8.125,3.927 7.601,9.697l-6.817,0.783Zm16.513,30.397l8.909,-40.353l9.96,0c8.648,0 11.791,3.403 9.956,11.792c-1.835,8.652 -6.55,12.055 -15.198,12.055l-2.883,-0l-3.667,16.509l-7.077,0l0,-0.003Zm12.052,-22.272l2.619,0c4.454,0 6.289,-1.308 7.337,-6.293c1.048,-4.718 0,-6.026 -4.714,-6.026l-2.619,0l-2.623,12.319Zm33.806,-8.388c1.311,-5.506 5.766,-10.217 13.103,-10.217c7.077,0 9.432,4.711 8.388,10.217l-4.718,20.964c-1.311,5.505 -5.765,10.223 -12.842,10.223c-7.338,0 -9.696,-4.718 -8.385,-10.223l4.454,-20.964Zm2.619,20.707c-0.787,3.139 -0.26,4.454 2.619,4.454c2.62,0 3.931,-1.315 4.718,-4.454l4.455,-20.44c0.524,-3.146 -0,-4.454 -2.619,-4.454c-2.883,-0 -4.195,1.308 -4.718,4.454l-4.455,20.44Zm36.689,9.953l-6.813,-0l8.909,-40.353l9.696,0c7.864,0 11.007,3.403 9.172,11.792c-1.571,6.556 -4.454,9.172 -7.073,10.223l1.835,18.338l-7.074,-0l-1.311,-16.766c-0.784,0.256 -2.359,0.256 -3.667,0.256l-3.674,16.51Zm4.979,-22.272l2.619,0c3.666,0 5.241,-1.308 6.289,-6.293c1.311,-4.718 0,-6.026 -3.67,-6.026l-2.359,0l-2.879,12.319Zm39.048,-12.055l-6.817,0l1.311,-6.029l20.44,-0l-1.308,6.029l-6.817,0l-7.597,34.327l-6.813,-0l7.601,-34.327Zm57.909,-6.029l-8.909,40.356l-6.025,-0l7.073,-31.448l-0.26,0l-13.103,31.448l-3.406,-0l0.784,-31.448l-0.261,0l-7.077,31.448l-6.025,-0l9.172,-40.356l8.909,-0l-0.261,23.59l0.261,-0l9.959,-23.59l9.169,-0Zm15.462,9.696c1.311,-5.506 5.502,-10.217 12.842,-10.217c7.341,0 9.697,4.711 8.389,10.217l-4.718,20.964c-1.308,5.505 -5.502,10.223 -12.839,10.223c-7.337,0 -9.696,-4.718 -8.389,-10.223l4.715,-20.964Zm2.359,20.707c-0.788,3.139 -0.264,4.454 2.619,4.454c2.883,0 3.93,-1.315 4.718,-4.454l4.454,-20.44c0.784,-3.146 0.264,-4.454 -2.619,-4.454c-2.883,-0 -3.93,1.308 -4.718,4.454l-4.454,20.44Zm41.667,-24.374l-6.813,0l1.311,-6.029l20.44,-0l-1.311,6.029l-6.814,0l-7.6,34.327l-6.814,-0l7.601,-34.327Zm28.037,3.667c1.312,-5.506 5.502,-10.217 12.843,-10.217c7.337,0 9.696,4.711 8.381,10.217l-4.711,20.964c-1.315,5.505 -5.505,10.223 -12.842,10.223c-7.338,0 -9.697,-4.718 -8.385,-10.223l4.714,-20.964Zm2.363,20.707c-0.788,3.139 -0.264,4.454 2.622,4.454c2.88,0 3.931,-1.315 4.718,-4.454l4.455,-20.44c0.787,-3.146 0.263,-4.454 -2.623,-4.454c-2.883,-0 -3.927,1.308 -4.711,4.454l-4.461,20.44Zm36.953,9.953l-7.077,-0l8.908,-40.353l9.696,0c7.865,0 11.011,3.403 9.173,11.792c-1.308,6.556 -4.455,9.172 -7.077,10.223l1.838,18.338l-7.077,-0l-1.307,-16.766c-0.788,0.256 -2.359,0.256 -3.404,0.256l-3.673,16.51Zm4.71,-22.272l2.623,0c3.667,0 5.499,-1.308 6.55,-6.293c1.051,-4.718 -0,-6.026 -3.934,-6.026l-2.359,0l-2.88,12.319Zm47.433,-4.721l0.528,-3.147c0.787,-3.403 -0.528,-4.711 -2.103,-4.711c-2.883,0 -4.19,1.308 -4.711,4.454l-4.718,20.44c-0.52,3.14 0,4.455 2.883,4.455c2.359,-0 3.667,-1.315 4.191,-4.198l1.051,-4.718l6.813,-0l-0.787,4.718c-1.308,5.505 -5.762,10.223 -12.576,10.223c-7.337,0 -9.696,-4.718 -8.388,-10.223l4.454,-20.964c1.308,-5.505 5.763,-10.216 13.107,-10.216c6.813,-0 9.165,4.974 7.857,11.004l-0.787,2.883l-6.814,-0Zm31.708,26.993l-7.07,-0l3.667,-16.766l-3.147,-23.59l7.077,-0l1.568,15.458l8.128,-15.458l7.07,-0l-13.626,23.59l-3.667,16.766Zm43.242,-26.993l0.788,-3.147c0.787,-3.403 -0.528,-4.711 -2.359,-4.711c-2.623,0 -3.934,1.308 -4.718,4.454l-4.455,20.44c-0.52,3.14 0,4.455 2.623,4.455c2.616,-0 3.667,-1.315 4.454,-4.198l1.044,-4.718l6.814,-0l-1.044,4.718c-1.315,5.505 -5.506,10.223 -12.583,10.223c-7.07,0 -9.429,-4.718 -8.121,-10.223l4.454,-20.964c1.315,-5.505 5.77,-10.216 12.843,-10.216c7.077,-0 9.172,4.974 7.864,11.004l-0.527,2.883l-7.077,-0Zm18.868,26.993l8.909,-40.356l7.077,-0l-7.601,34.326l10.74,0l-1.307,6.03l-17.818,-0Zm33.279,-0l8.909,-40.356l18.605,-0l-1.308,6.029l-11.531,0l-2.359,10.48l8.908,0l-1.311,6.029l-8.909,0l-2.615,11.788l12.311,0l-1.307,6.03l-19.393,-0Zm55.291,-30.397c0.527,-3.41 -1.044,-4.454 -2.616,-4.454c-2.102,0 -3.667,1.308 -4.198,3.927c-1.571,6.813 11.799,10.224 9.173,21.228c-1.308,6.556 -6.55,10.223 -13.107,10.223c-6.549,0 -8.908,-5.242 -7.857,-11.268l6.813,-0.787c-0.787,3.927 0.521,6.026 2.616,6.026c2.359,-0 4.454,-1.315 4.982,-3.667c1.831,-7.865 -11.799,-10.224 -9.436,-21.755c1.571,-6.286 6.293,-9.953 13.106,-9.953c5.505,0 8.121,3.927 7.337,9.697l-6.813,0.783Z"/></g></svg>