<?xml version="1.0" encoding="UTF-8" standalone="no"?><!DOCTYPE svg PUBLIC "-//W3C//DTD SVG 1.1//EN" "http://www.w3.org/Graphics/SVG/1.1/DTD/svg11.dtd"><svg width="100%" height="100%" viewBox="0 0 332 250" version="1.1" xmlns="http://www.w3.org/2000/svg" xmlns:xlink="http://www.w3.org/1999/xlink" xml:space="preserve" xmlns:serif="http://www.serif.com/" style="fill-rule:evenodd;clip-rule:evenodd;stroke-linejoin:round;stroke-miterlimit:2;"><path d="M331.259,79.123l-70.334,0c0.443,-7.532 6.765,-13.488 14.31,-13.483l-0,-31.446c-64.969,-2.273 -95.374,-23.473 -109.369,-34.194c-13.995,10.723 -44.487,31.922 -109.456,34.194l-0,31.446c7.546,-0.007 13.869,5.951 14.31,13.483l-70.72,0l-0,86.946l65.729,0c-0,2.778 -1.472,11.008 -19.13,12.972c12.099,11.118 82.642,70.959 119.267,70.959c36.625,-0 107.349,-59.841 119.449,-70.959c-16.516,-1.801 -19.132,-9.048 -19.132,-12.972l65.074,0l-0,-86.946l0.002,0Zm-267.669,-18.853l0.01,-19.615c58.797,-3.049 87.81,-20.693 102.266,-31.536c15.501,10.997 43.382,28.485 102.178,31.536l-0.03,19.615c-7.999,2.886 -13.773,9.922 -14.044,18.853l-7.058,0c0.232,-10.112 5.758,-18.405 13.915,-23.234l0.022,-8.883c-47.474,-3.344 -78.474,-18.06 -94.983,-29.418c-14.418,10.584 -43.402,24.765 -95.068,29.418l0.021,8.883c8.157,4.829 13.685,13.122 13.914,23.234l-7.06,0c-0.269,-8.931 -6.084,-15.969 -14.083,-18.853Zm176.925,10.859l-0,7.994l-7.685,0l0,-6.276c0,-1.962 -2.372,-2.862 -3.433,-2.862l-7.359,0l0,9.138l-7.684,0l0,-33.746l18.478,3.843c2.615,0.571 7.685,2.289 7.685,7.356l-0,5.477c-0,1.962 -0.247,3.679 -2.697,4.905c1.142,0.656 2.695,2.863 2.695,4.171Zm-32.702,-20.111l0,20.602c0.084,2.533 -1.39,7.503 -8.091,7.503l-10.057,0c-3.352,0 -7.685,-1.781 -7.685,-7.831l0,-30.085c0,-3.596 3.679,-5.885 7.768,-4.414l13.407,5.151c3.268,1.307 4.742,4.168 4.658,9.074Zm-55.916,-9.402l0,-8.502l13.971,-7.601l14.641,8.01l-0,8.503l-10.137,-5.477l-0,42.574l-8.338,0l0,-43.066l-10.137,5.559Zm-0.982,-0.409l-0,30.085c-0,6.05 -4.333,7.831 -7.685,7.831l-10.055,0c-6.705,0 -8.177,-4.97 -8.094,-7.503l0,-20.602c-0.081,-4.906 1.39,-7.767 4.661,-9.074l13.407,-5.151c4.088,-1.471 7.766,0.818 7.766,4.414Zm-44.064,37.916l-6.296,-13.47l-0,13.47l-7.685,0l0,-28.351l7.685,-1.39l6.05,12.919l6.704,-15.615l7.194,-1.881l-0,34.318l-7.685,0l0,-13.963l-5.967,13.963Zm162.114,102.861c-19.293,19.62 -77.592,60.496 -103.099,60.496c-25.508,0 -83.623,-40.876 -102.917,-60.496c9.974,-4.414 11.608,-10.845 12.263,-15.913l8.012,0c-0.49,4.742 -1.471,12.317 -8.012,16.895c7.522,7.194 63.838,52.322 90.654,52.322c26.814,-0 83.314,-45.126 90.836,-52.322c-6.539,-4.578 -7.522,-12.153 -8.012,-16.895l8.012,0c0.655,5.068 2.289,11.499 12.263,15.913Zm-169.113,4.561c0.439,0.292 17.699,13.749 17.699,13.749l0,8.192c0,0 -24.28,-18.138 -25.012,-18.577c-0.878,-0.584 -2.048,-2.631 -2.34,-4.094c-0.293,-1.462 -0,-13.166 -0,-14.482c-0,-1.315 1.462,-5.262 3.509,-5.262l18.869,0l0,7.748l-11.262,0c-1.755,-0.147 -2.779,0.439 -2.779,2.047l0,8.63c0,0.586 0.732,1.757 1.316,2.049Zm17.253,-20.474l7.899,0l4.242,13.166l6.875,-13.166l7.46,0l-10.677,23.112l0,27.646c0,1.316 -7.46,-2.78 -7.605,-3.803c-0.294,-1.023 0,-24.135 0,-24.135l-8.194,-22.82Zm36.875,50.146c0.439,0.878 10.092,5.412 10.092,5.412l0,9.07c0,-0 -15.505,-6.584 -16.968,-8.046c-1.609,-1.608 -1.756,-3.363 -1.756,-4.094l-0,-45.928c-0,-2.78 5.56,-6.558 6.875,-6.558l11.408,-0l0,8.313c0,0.292 -6.581,0.292 -8.191,-0c-0.878,-0.147 -2.046,1.023 -2.046,5.119l-0,33.935c0.001,0.73 0.001,2.045 0.586,2.777Zm32.908,-2.194l0,7.897c0,-0 -12.872,5.705 -14.919,6.728c-1.172,0.586 -2.489,-0.437 -2.489,-2.192l-0,-60.385l8.777,0l-0,51.461l8.631,-3.509Zm18.861,-27.772l-0,6.728l-8.193,0l0,16.237l9.946,-4.682l-0,7.168l-13.163,6.583c-1.611,0.731 -3.658,-0 -3.658,-1.463l-0,-47.831c-0,-1.902 1.608,-2.92 2.925,-2.92l15.358,0l0,8.333l-11.408,-0l0,11.847l8.193,-0Zm25.29,0.565c-0,-0 -12.873,0.292 -15.214,-0c-2.192,-0.292 -3.07,-0.732 -3.07,-2.341c0,-1.461 -0.145,-11.114 0,-13.896c0.291,-2.778 4.68,-4.219 6.73,-4.51c1.898,-0.147 19.303,0 19.303,0l0,7.582l-18.573,0c-0.73,0 -0.585,6.289 -0,6.289l16.675,0c2.338,0 2.047,0.585 2.047,1.608l0,9.363c0,1.022 -1.462,2.194 -2.047,2.778c-0.439,0.439 -24.868,15.213 -24.868,15.213l0,-6.583c0,0 19.456,-12.286 19.601,-13.164c0.294,-1.316 -0.584,-2.339 -0.584,-2.339Zm93.189,-28.049l-316.869,0l-0,-71.288l316.869,-0l-0,71.288Zm-189.663,-110.284l6.213,-2.452c1.144,-0.491 2.452,-0 2.452,1.799l0,20.928c0,1.39 -0.653,2.534 -2.371,2.534l-5.641,-0c-1.799,-0 -2.454,-0.899 -2.454,-2.371l0,-16.677c0.002,-1.797 0.167,-2.943 1.801,-3.761Zm65.564,3.761l-0,16.677c-0,1.472 -0.653,2.371 -2.452,2.371l-5.642,-0c-1.719,-0 -2.372,-1.144 -2.372,-2.534l-0,-20.928c-0,-1.799 1.307,-2.29 2.452,-1.799l6.215,2.452c1.638,0.818 1.799,1.964 1.799,3.761Zm31.065,4.088c1.636,0.328 1.636,1.88 1.636,3.27c0,1.39 -0.246,2.699 -1.719,2.699l-9.074,-0l-0,-7.849l9.157,1.88Zm-216.477,37.688l0,57.389l302.318,-0l0,-57.389l-302.318,-0Zm28.199,50.685l-6.656,0l0,-19.19l-5.257,0l0,19.19l-6.655,0l-0,-44.703l6.655,0l0,17.877l5.257,-0l0,-17.877l6.656,0l0,44.703Zm15.498,0l-1.174,-11.626l-4.872,0l-1.364,11.626l-6.027,0l5.085,-44.703l9.985,0l5.085,44.703l-6.718,0Zm27.868,-30.702c-0,3.327 -0.606,5.931 -2.994,7.824c0.345,0.397 2.913,2.107 2.989,5.135l0.005,17.743l-6.656,0l0.002,-14.951c0,-2.7 -1.144,-3.561 -5.388,-3.561l0,18.512l-6.656,0l0,-44.703l10.998,0c5.336,0 7.702,1.883 7.702,7.66l-0,6.341l-0.002,-0Zm17.265,30.702l-13.414,0l0,-44.703l6.656,0l-0,37.638l6.758,0l0,7.065Zm16.111,0l-13.88,0l0,-44.703l13.756,0l0,6.984l-7.1,-0l-0,10.917l6.785,0l-0,7.065l-6.785,0l-0,12.671l7.224,-0l0,7.066Zm15.436,0l-6.655,0l-0,-16.702l-6.844,-28.001l6.844,0l3.587,15.617l3.695,-15.617l6.217,0l-6.844,27.689l0,17.014Zm16.966,-19.701l-12.182,-0l0,-5.642l12.182,0l0,5.642Zm20.975,11.602c-0,4.269 -2.764,8.099 -7.911,8.099l-9.48,0l0,-44.703l8.037,0c6.592,0 9.356,2.26 9.356,10.109l-0,26.495l-0.002,0Zm15.202,8.099l-1.172,-11.626l-4.872,0l-1.364,11.626l-6.027,0l5.083,-44.703l9.985,0l5.087,44.703l-6.72,0Zm18.321,0l-7.449,0l-6.248,-44.703l6.785,0l3.233,26.882l3.222,-26.882l6.705,0l-6.248,44.703Zm14.781,0l-6.654,0l0,-44.703l6.654,0l0,44.703Zm21.347,-8.099c-0,4.269 -2.764,8.099 -7.913,8.099l-9.48,0l-0,-44.703l8.037,0c6.592,0 9.354,2.26 9.354,10.109l-0,26.495l0.002,0Zm21.66,-21.429l-6.658,-0l0,-6.236c0,-2.262 -1.342,-2.763 -2.663,-2.763c-1.379,0 -2.642,0.501 -2.642,2.763l0,4.952c0,3.203 11.879,8.865 11.879,13.386l0,10.772c0,5.84 -5.156,7.534 -9.299,7.534c-4.081,0 -9.154,-1.694 -9.154,-7.534l-0,-9.724l6.654,-0l-0,7.932c-0,2.26 1.183,2.764 2.562,2.764c1.321,0 2.583,-0.503 2.583,-2.764l0,-4.708c0,-6.28 -11.882,-8.017 -11.882,-15.301l-0,-9.592c-0,-5.839 5.156,-7.534 9.237,-7.534c4.143,0 9.383,1.697 9.383,7.534l-0,8.519Zm21.61,22.872c-0,5.84 -5.363,7.534 -9.445,7.534c-4.084,0 -9.32,-1.694 -9.32,-7.534l-0,-31.391c-0,-5.839 5.236,-7.534 9.32,-7.534c4.082,0 9.445,1.697 9.445,7.534l-0,31.391Zm22.85,6.656l-8.142,0l-5.294,-25.449l0,25.449l-6.687,0l-0,-44.703l9.001,0l4.351,22.728l-0,-22.728l6.771,0l-0,44.703Zm-255.647,-19.183l1.549,-17.359l0.441,0l1.3,17.359l-3.29,0Zm21.079,-19.365l2.631,0c1.507,0 2.511,1.075 2.511,2.769l0,6.709c0,1.633 -0.503,3.625 -2.826,3.625l-2.316,-0l0,-13.103Zm88.058,0.898l1.571,-0c1.696,-0 2.51,0.439 2.51,3.327l0,23.94c0,2.89 -0.816,3.329 -2.51,3.329l-1.571,0l0,-30.596Zm20.685,18.467l1.552,-17.359l0.439,0l1.3,17.359l-3.291,0Zm48.968,-18.467l1.57,-0c1.695,-0 2.511,0.439 2.511,3.327l-0,23.94c-0,2.89 -0.816,3.329 -2.511,3.329l-1.57,0l-0,-30.596Zm41.899,28.305l0,-26.257c0,-2.259 1.343,-2.763 2.725,-2.763c1.38,-0 2.725,0.502 2.725,2.763l0,26.257c0,2.259 -1.345,2.762 -2.725,2.762c-1.382,-0.002 -2.725,-0.503 -2.725,-2.762Z"/></svg>