<?xml version="1.0" encoding="UTF-8" standalone="no"?><!DOCTYPE svg PUBLIC "-//W3C//DTD SVG 1.1//EN" "http://www.w3.org/Graphics/SVG/1.1/DTD/svg11.dtd"><svg width="100%" height="100%" viewBox="0 0 918 250" version="1.1" xmlns="http://www.w3.org/2000/svg" xmlns:xlink="http://www.w3.org/1999/xlink" xml:space="preserve" xmlns:serif="http://www.serif.com/" style="fill-rule:evenodd;clip-rule:evenodd;stroke-linejoin:round;stroke-miterlimit:2;"><g><path d="M266.186,35.164c-0,0 5.023,3.902 5.023,21.206l0,98.202c0,11.724 3.356,15.07 10.048,15.07l31.81,-0c0,-0 -5.581,-6.693 -5.581,-16.173l-0,-99.897c-0,-13.394 -2.233,-18.973 -10.046,-18.973c-7.814,-0 -31.254,0.565 -31.254,0.565m64.732,-0.567c0,-0 5.024,3.903 5.024,15.062l-0,83.159c-0,25.108 21.205,41.29 49.67,41.29c25.665,0 35.157,-13.391 35.157,-13.391c-0,-0 1.676,9.481 10.603,9.481c8.926,-0 30.131,-0.556 30.131,-0.556c0,-0 -5.579,-8.369 -5.579,-17.852l-0,-117.191l-41.291,-0c0,-0 5.023,7.257 5.023,17.295c0,10.046 -0.565,56.927 -0.565,69.199c-0,12.272 -4.46,26.787 -23.996,26.787c-19.53,-0 -22.32,-19.529 -22.32,-26.787l-0,-73.659c-0,-6.69 -3.902,-13.391 -8.925,-13.391c-5.023,-0 -32.932,0.556 -32.932,0.556m147.324,-0.002c-0,-0 7.258,5.025 7.258,18.418l-0,97.655c-0,13.392 -5.58,18.972 -5.58,18.972l38.502,-0c0,-0 -5.023,-6.136 -5.023,-18.973l-0,-74.77c-0,-0 15.626,31.801 25.116,47.428c9.483,15.626 17.864,16.748 25.676,17.295c7.814,0.557 11.15,-1.669 11.15,-1.669c-0,0 18.973,-53.015 28.465,-68.086c-1.113,1.119 -0,70.312 -0,82.036c-0,11.715 -5.582,17.295 -5.582,17.295l42.415,-0c-0,-0 -5.582,-8.925 -5.582,-18.408l0,-99.895c0,-10.595 5.582,-17.296 5.582,-17.296c-0,-0 -34.045,0.565 -41.858,0.565c-7.814,0 -11.714,3.902 -15.626,14.495c-3.902,10.612 -19.53,50.227 -19.53,50.227c0,-0 -20.085,-41.291 -24.552,-51.328c-4.467,-10.058 -7.814,-14.515 -16.184,-14.515c-8.368,-0 -44.647,0.556 -44.647,0.556m223.782,22.874c0,0 12.272,-0.556 16.184,-0.556c3.902,-0 19.528,4.469 19.528,17.86c-0,27.899 -35.71,31.81 -35.71,31.81l-0.002,-49.114Zm-43.534,-23.43l71.988,-0c22.329,-0 40.18,16.738 40.18,42.968c0,42.969 -68.634,51.896 -68.634,51.896l0,28.461c0,10.603 -4.467,12.272 -8.933,12.272l-34.603,-0c0,-0 6.145,-7.812 6.145,-16.739l0,-103.242c0,-8.359 -6.145,-15.616 -6.145,-15.616" style="fill:#010202;"/><path d="M912.96,154.025l0,-119.428l-42.969,-0c0,-0 5.024,9.481 5.024,17.86l-0,18.964c-17.323,1.961 -34.153,10.566 -52.452,22.847l-0,-59.669l-42.969,-0c-0,-0 5.014,9.481 5.014,17.86l-0,69.491c-61.505,46.179 -146.541,107.228 -304.688,108.523c-204.244,1.669 -262.839,-111.605 -262.839,-111.605c0,-0 29.019,-11.725 29.019,-42.411c0,-25.12 -19.538,-42.414 -38.5,-42.414c-18.984,-0 -60.275,1.119 -60.275,1.119l-3.348,-35.162c-0,0 -26.787,2.791 -71.989,2.791c-45.201,-0.002 -68.643,-2.227 -68.643,-2.227l-3.345,41.849c13.393,-5.582 54.128,-8.372 54.128,-8.372c-0,-0 -0.554,41.292 -0.554,77.015c-0,35.711 -8.927,59.142 -8.927,59.142l58.597,-0.556c-0,-0 -9.492,-25.109 -9.492,-60.821l-0,-74.778c-0,-0 37.946,2.225 43.525,5.579c3.492,2.088 5.581,5.581 5.581,9.492l0,103.789c0,7.814 -5.015,17.295 -5.015,17.295l45.194,-0.556c-0,-0 -4.458,-7.256 -4.458,-13.392c0,-6.136 -0.565,-28.456 -0.565,-28.456l5.588,-0.565c0,-0 82.028,122.771 293.529,122.771c148.445,0 241.852,-52.094 307.923,-93.915c1.149,9.264 4.632,14.113 9.602,14.113l32.93,-0c0,-0 -5.023,-6.692 -5.023,-16.175l-0,-28.087c17.86,-13.549 36.35,-23.95 52.452,-29.393l-0,52.46c-0,13.948 3.91,21.197 10.046,21.197l32.923,-0c-0,-0 -5.024,-6.692 -5.024,-16.175Zm-734.381,-96.552l15.06,0c6.145,0 20.651,4.467 20.651,17.86c0,27.343 -36.278,30.69 -36.278,30.69l0.567,-48.55Z" style="fill:#010202;"/></g></svg>