<?xml version="1.0" encoding="UTF-8" standalone="no"?><!DOCTYPE svg PUBLIC "-//W3C//DTD SVG 1.1//EN" "http://www.w3.org/Graphics/SVG/1.1/DTD/svg11.dtd"><svg width="100%" height="100%" viewBox="0 0 2334 250" version="1.1" xmlns="http://www.w3.org/2000/svg" xmlns:xlink="http://www.w3.org/1999/xlink" xml:space="preserve" xmlns:serif="http://www.serif.com/" style="fill-rule:evenodd;clip-rule:evenodd;stroke-linejoin:round;stroke-miterlimit:2;"><g><path d="M226.302,126.233l65.349,0c95.605,2.42 258.977,52.192 167.002,120.16l297.089,0c-0,-37.638 -45.981,-105.606 -163.373,-123.801c117.392,-18.208 163.373,-84.966 163.373,-122.592l-297.089,-0c77.446,72.832 -106.491,116.518 -167.002,117.741l-65.349,-0l0,-117.741l-226.302,-0l0,246.393l226.302,0l0,-120.16Zm1560.41,86.787c10.65,0 25.94,-3.367 25.653,-15.763c-0.761,-34.845 -108.325,-4.477 -108.412,-72.483c-0.05,-41.242 42.801,-54.299 79.217,-54.299c38.087,-0 82.834,5.063 86.837,51.63l-61.308,0c-0.661,-5.699 -3.006,-9.702 -6.66,-12.733c-3.692,-3.005 -10.513,-4.352 -15.851,-4.352c-12.01,-0 -19.704,3.679 -19.704,12.396c-0,24.444 108.861,-1.721 108.736,73.094c-0.05,34.445 -27.013,59.774 -91.152,59.488c-37.501,-0.175 -80.152,-12.621 -79.99,-61.134l57.367,-0c1.721,9.964 7.159,22.71 25.267,24.156Zm481.837,34.334l-0,-170.669l64.663,0l0,170.669l-64.663,-0Zm-0,-240.083l64.663,-0l0,44.135l-64.663,0l-0,-44.135Zm-883.123,155.478l25.005,83.42l63.541,-0l58.402,-173.113l-67.793,0l-26.738,89.119l1.184,0l-27.062,-89.119l-56.308,0l-27.037,89.119l-0.699,0l-26.7,-89.119l-67.831,0l58.402,173.113l67.819,-0l24.967,-83.42l0.848,0Zm-552.748,-155.491l-0,238.499l68.966,0l-0,-70.387l22.996,-24.893l62.93,95.28l84.704,0l-96.813,-145.04l87.136,-93.459l-90.766,0l-70.187,74.042l-0,-74.042l-68.966,0Zm1307.83,191.683l0,48.637l-66.446,0l-0,-241.193l66.446,0l0,118.651l41.392,-48.139l70.874,0l-56.956,63.753l66.496,106.928l-73.218,0l-36.179,-58.664l-12.409,10.027Z" style="fill-rule:nonzero;"/><path d="M1240.62,221.576l0,-82.073c0,-39.147 -13.768,-68.193 -83.008,-67.831c-62.057,0.324 -84.754,21.862 -88.87,58.353l59.538,-0c3.566,-18.283 20.739,-21.326 30.429,-21.326c7.346,-0 20.89,1.671 20.89,14.404c-0,32.812 -115.82,10.177 -116.706,75.152c0.013,36.54 23.945,51.705 57.018,51.705c26.053,0 42.802,-3.492 60.635,-15.589l7.895,12.983l55.172,-0l0,-2.12c-3.454,-6.049 -2.831,-16.375 -2.993,-23.658Zm-91.713,-9.79c-13.619,1.459 -23.857,-3.517 -23.857,-12.209l-0,-0.1c-0,-22.773 28.247,-20.141 50.957,-31.203c1.683,24.107 -3.592,41.005 -27.1,43.512Zm913.353,9.79l-0,-82.073c-0,-39.147 -13.768,-68.193 -82.996,-67.831c-62.082,0.324 -84.742,21.862 -88.857,58.353l59.512,-0c3.58,-18.283 20.752,-21.326 30.418,-21.326c7.358,-0 20.901,1.671 20.901,14.404c0,32.812 -115.82,10.177 -116.693,75.152c0,36.54 23.945,51.705 56.994,51.705c26.064,0 42.838,-3.492 60.647,-15.589l7.894,12.983l55.173,-0l-0,-2.12c-3.442,-6.049 -2.831,-16.375 -2.993,-23.658Zm-91.701,-9.79c-13.631,1.459 -23.845,-3.517 -23.845,-12.209l0,-0.1c0,-22.773 28.235,-20.141 50.958,-31.203c1.621,24.107 -3.605,41.005 -27.113,43.512Zm-275.065,9.79l0,-82.073c0,-39.147 -13.768,-68.193 -83.008,-67.831c-62.081,0.324 -84.742,21.862 -88.857,58.353l59.512,-0c3.58,-18.283 20.753,-21.326 30.418,-21.326c7.358,-0 20.901,1.671 20.901,14.404c0,32.812 -115.82,10.177 -116.68,75.152c-0,36.54 23.945,51.705 56.981,51.705c26.065,0 42.838,-3.492 60.647,-15.589l7.895,12.983l55.172,-0l0,-2.12c-3.442,-6.049 -2.831,-16.375 -2.981,-23.658Zm-91.713,-9.79c-13.631,1.459 -23.845,-3.517 -23.845,-12.209l0,-0.1c0,-22.773 28.235,-20.141 50.958,-31.203c1.621,24.107 -3.642,41.005 -27.113,43.512Z" style="fill-rule:nonzero;"/></g></svg>