<?xml version="1.0" encoding="UTF-8" standalone="no"?><!DOCTYPE svg PUBLIC "-//W3C//DTD SVG 1.1//EN" "http://www.w3.org/Graphics/SVG/1.1/DTD/svg11.dtd"><svg width="100%" height="100%" viewBox="0 0 886 251" version="1.1" xmlns="http://www.w3.org/2000/svg" xmlns:xlink="http://www.w3.org/1999/xlink" xml:space="preserve" xmlns:serif="http://www.serif.com/" style="fill-rule:evenodd;clip-rule:evenodd;stroke-miterlimit:2.613;"><g><path d="M772.2,0.465l-64.934,68.125l-16.052,-68.125l-432.489,0.025l-258.26,249.975l125.709,-0l36.993,-34.591l-13.279,34.591l639.668,-0l95.558,-250l-112.914,-0Zm-601.171,235.473l25.677,-70.627l-70.26,70.627l-94.576,-0l228.33,-221.958l105.379,0l-87.812,221.958l-106.738,-0Zm122.992,0.015l90.685,-221.928l191.706,-0.055l-24.393,63.056l-91.874,0l-5.396,15.136l87.812,0l-24.312,64.325l-90.525,-0l-4.052,15.126l87.811,0l-25.661,64.32l-191.801,0.02Zm482.82,-0.025l-106.678,-0l18.403,-49.179l-47.965,47.925l-12.831,-49.183l-21.086,50.437l-103.974,-0l91.37,-221.958l83.624,-0l14.914,87.021l82.406,-87.011l88.853,-0.01l-87.036,221.958Z" style="fill:#d46342;stroke:#d46342;stroke-width:0.33px;"/><path d="M260.2,13.98l105.379,0l-87.817,221.958l-106.733,-0l25.677,-70.627l-70.265,70.627l-94.571,-0l228.33,-221.958Zm124.501,0.045l191.711,-0.05l-24.393,63.056l-91.874,0l-5.396,15.136l87.812,0l-24.312,64.325l-90.525,0l-4.047,15.126l87.806,0l-25.656,64.32l-191.806,0.015l90.68,-221.928Zm209.379,-0.05l83.624,-0l14.914,87.021l82.406,-87.016l88.853,-0.005l-87.036,221.953l-106.678,-0l18.403,-49.174l-47.965,47.92l-12.831,-49.178l-21.086,50.432l-103.979,-0l91.375,-221.953Z" style="fill:#f1e352;stroke:#000;stroke-width:1.59px;"/></g></svg>