<?xml version="1.0" encoding="UTF-8" standalone="no"?><!DOCTYPE svg PUBLIC "-//W3C//DTD SVG 1.1//EN" "http://www.w3.org/Graphics/SVG/1.1/DTD/svg11.dtd"><svg width="100%" height="100%" viewBox="0 0 4538 737" version="1.1" xmlns="http://www.w3.org/2000/svg" xmlns:xlink="http://www.w3.org/1999/xlink" xml:space="preserve" xmlns:serif="http://www.serif.com/" style="fill-rule:evenodd;clip-rule:evenodd;stroke-linejoin:round;stroke-miterlimit:2;"><g><path d="M644.459,368.379l-633.438,-368.379l204.538,168.267c-284.875,9.912 -289.938,378.712 -0,400.221l-204.538,168.479l633.438,-368.588Zm-596.746,0c0,-103.325 83.713,-187.246 187.246,-187.246c103.325,0 187.246,83.713 187.246,187.246c-0,103.321 -83.713,187.246 -187.246,187.246l-0.208,-0c-103.325,-0 -187.25,-83.925 -187.038,-187.246Z" style="fill-rule:nonzero;"/><path d="M90.096,408.021l-15.183,32.896l229.208,-0c47.025,0.421 78.442,-34.371 82.659,-77.6c3.796,-39.854 -32.471,-67.896 -68.109,-67.475l-185.558,-0l-16.658,36.266l34.371,0l-35.005,75.7l-25.725,0.213Zm156.671,-77.6l26.146,-0c22.354,-0.842 15.396,32.475 15.604,29.733c-1.475,17.292 -15.179,47.654 -44.491,46.179l-32.05,0l34.791,-75.912Z" style="fill:#e60012;fill-rule:nonzero;"/><path d="M4492.51,180.5l-507.758,0l-34.371,74.646l79.071,-0l-102.688,224.992l-79.287,-0l-34.371,74.645l345.183,0l34.371,-74.858l-71.483,0l35.85,-78.229l228.575,-0c30.996,-0 74.225,-8.646 97.629,-47.025c36.9,-59.675 95.946,-174.171 9.279,-174.171Zm-171.012,100.158c-5.905,20.667 -9.909,51.663 -50.605,51.875l-81.816,0l35.425,-77.387l83.712,-0c20.667,-0.213 15.817,16.658 13.284,25.512Zm-1667.51,-25.725l59.675,0l34.159,-74.225l-224.146,0l-35.85,74.225l63.891,0l-65.787,144.021l-115.763,-218.246l-224.57,0l-35.217,74.646l67.687,0l-103.112,224.783l-68.108,0l-33.95,74.855l235.116,-0l34.159,-74.434l-64.105,0l66.634,-149.079l120.404,223.513l150.767,-0l138.116,-300.059Zm-1273.62,74.225c23.616,-49.341 40.908,-148.658 -58.409,-148.658l-454.833,-0l-34.792,74.646l70.638,-0l-103.325,224.566l-70.425,0l-34.584,75.071l448.296,0c168.059,0 213.817,-176.071 237.434,-225.625Zm-293.1,150.554l-88.355,0l102.692,-224.145l63.258,-0c49.342,-2.53 35.425,34.37 23.83,76.541c-11.596,42.175 -57.775,146.763 -101.425,147.605Zm523.154,79.075c-2.954,-0 47.021,0.42 104.166,-3.375c73.38,-5.059 139.592,-23.192 174.171,-90.246l98.475,-209.392l64.313,-0l34.791,-75.7l-223.091,-0l-34.371,75.071l63.679,-0l-75.7,169.112c-25.304,45.754 -39.008,53.138 -102.058,51.871c-63.046,-1.266 -61.15,-29.733 -48.921,-61.991l72.329,-159.205l61.992,0l34.371,-74.645l-330.213,-0l-35.637,74.858l70.22,-0c0,-0 -82.658,180.287 -84.137,184.083c-44.279,128.625 96.787,117.029 155.621,119.559Zm1142.25,-78.863l-68.95,0l-33.95,74.858l499.958,0l85.608,-186.404l-72.325,0l-95.941,111.546l-111.125,0l101.633,-224.779l63.892,-0l34.162,-74.646l-336.75,-0l-34.583,74.221l71.275,-0l-102.904,225.204Zm555.837,70.429c17.292,5.692 138.75,21.717 282.346,13.704c206.646,-1.262 258.942,-185.979 288.883,-268.008c19.613,-53.767 19.613,-108.804 -98.683,-121.033c-83.079,-5.905 -166.371,-6.75 -249.454,-2.742c-53.767,4.429 -118.713,11.175 -179.021,64.733c-16.871,15.184 -53.558,63.05 -96.996,181.134c-40.908,109.437 44.913,129.47 52.925,132.212Zm150.979,-143.808c16.446,-43.863 55.879,-121.671 66.634,-135.796c21.508,-29.733 49.341,-31.421 115.341,-26.358c25.092,5.479 57.354,21.295 22.35,95.729c-30.575,65.158 -50.604,126.308 -85.608,138.537c-26.992,9.279 -55.038,10.754 -93.838,6.117c-30.995,-4.008 -46.179,-21.508 -24.879,-78.229Z" style="fill-rule:nonzero;"/></g></svg>