<?xml version="1.0" encoding="UTF-8" standalone="no"?><!DOCTYPE svg PUBLIC "-//W3C//DTD SVG 1.1//EN" "http://www.w3.org/Graphics/SVG/1.1/DTD/svg11.dtd"><svg width="100%" height="100%" viewBox="0 0 250 250" version="1.1" xmlns="http://www.w3.org/2000/svg" xmlns:xlink="http://www.w3.org/1999/xlink" xml:space="preserve" xmlns:serif="http://www.serif.com/" style="fill-rule:evenodd;clip-rule:evenodd;stroke-linejoin:round;stroke-miterlimit:2;"><g><rect x="0" y="0" width="248.433" height="250" style="fill:none;fill-rule:nonzero;"/><path d="M210.417,34.469c-23.168,-21.799 -53.453,-33.806 -85.277,-33.806c-31.823,0 -62.108,12.007 -85.276,33.806c-23.06,21.698 -36.885,51.004 -38.928,82.516c-0.182,2.79 -0.272,5.536 -0.272,8.157c0,6.303 0.478,12.645 1.419,18.849c0.095,0.617 0.185,1.228 0.271,1.828l0.077,0.519c0.351,2.414 0.714,4.911 1.265,7.72l15.201,76.135c1.067,5.352 4.045,10.261 8.382,13.82c4.339,3.558 9.734,5.516 15.191,5.516l165.337,0c5.457,0 10.852,-1.958 15.19,-5.515c4.338,-3.559 7.316,-8.467 8.386,-13.819l15.206,-76.18c0.55,-2.787 0.915,-5.302 1.268,-7.732c0.11,-0.761 0.222,-1.529 0.336,-2.292c0.944,-6.196 1.422,-12.538 1.422,-18.849c-0,-2.634 -0.091,-5.379 -0.271,-8.155c-2.044,-31.512 -15.871,-60.819 -38.927,-82.517" style="fill:#fff;fill-rule:nonzero;"/><path d="M89.851,32.75c-12.093,4.556 -23.275,11.48 -32.908,20.545c-18.35,17.264 -29.349,40.575 -30.974,65.636c-0.143,2.165 -0.216,4.335 -0.219,6.505c0.001,5.029 0.379,10.051 1.132,15.023c0.13,0.856 0.252,1.698 0.375,2.538c0.273,1.878 0.538,3.668 0.862,5.448l61.732,0l0,-115.695Z" style="fill:#0daa4c;fill-rule:nonzero;"/><path d="M221.492,148.445c0.307,-1.939 0.558,-3.655 0.818,-5.448c0.123,-0.84 0.244,-1.682 0.374,-2.538c0.753,-4.972 1.131,-9.994 1.131,-15.023c-0,-2.09 -0.073,-4.279 -0.218,-6.507c-1.625,-25.059 -12.627,-48.37 -30.973,-65.634c-9.573,-9.009 -20.676,-15.906 -32.684,-20.462l0,115.612l61.552,0Z" style="fill:#ed1c24;fill-rule:nonzero;"/><path d="M157.793,32.044c-10.487,-3.703 -21.623,-5.64 -33.01,-5.215c-11.386,-0.425 -22.523,1.512 -33.011,5.215c-0.643,0.226 -1.282,0.465 -1.921,0.707l0,115.694l70.088,0l0,-115.612c-0.712,-0.27 -1.427,-0.535 -2.146,-0.789" style="fill:#fff;fill-rule:nonzero;"/><path d="M245.632,117.522c-1.982,-30.569 -15.396,-58.998 -37.765,-80.049c-22.474,-21.147 -51.854,-32.795 -82.727,-32.795c-30.875,0 -60.254,11.648 -82.727,32.795c-22.371,21.051 -35.784,49.48 -37.766,80.046c-0.174,2.697 -0.264,5.36 -0.264,7.918c0,6.116 0.465,12.27 1.379,18.289c0.123,0.809 0.239,1.606 0.354,2.397c0.347,2.387 0.706,4.853 1.235,7.543l15.334,76.812c1.777,8.908 9.967,15.625 19.05,15.625l58.883,-0l-0,-12.068l-58.882,-0c-3.319,-0 -6.565,-2.662 -7.215,-5.917l-15.334,-76.817c-0.631,-3.203 -1.011,-6.212 -1.494,-9.39c-0.827,-5.452 -1.242,-10.959 -1.242,-16.474c0,-2.397 0.087,-4.775 0.239,-7.134c3.679,-56.7 50.82,-101.556 108.45,-101.556c57.629,-0 104.772,44.856 108.449,101.556c0.152,2.36 0.239,4.737 0.239,7.134c0,5.599 -0.425,11.102 -1.242,16.474c-0.482,3.178 -0.863,6.187 -1.493,9.391l-15.333,76.816c-0.65,3.255 -3.896,5.917 -7.215,5.917l-48.605,-0l0,12.068l48.605,-0c9.08,-0 17.269,-6.715 19.051,-15.622l15.338,-76.847c0.528,-2.673 0.889,-5.157 1.237,-7.557c0.112,-0.778 0.227,-1.563 0.346,-2.349c0.918,-6.054 1.379,-12.168 1.379,-18.291c0,-2.548 -0.089,-5.21 -0.264,-7.915" style="fill:#141111;fill-rule:nonzero;"/><path d="M118.29,171.474l12.918,-0l0,40.686l-12.918,-0l0,-40.686Zm-17.673,-3.831l-0,48.346c0.012,4.889 3.988,8.854 8.917,8.866l21.446,0l-0,9.179l-19.596,-0.001l-0,12.068l28.577,-0c4.932,-0.006 8.91,-3.978 8.919,-8.862l0,-69.593c-0.009,-4.897 -3.987,-8.86 -8.919,-8.871l-30.422,0c-4.934,0.011 -8.91,3.974 -8.921,8.868m-28.382,44.517l-12.918,-0l-0,-18.045l12.918,0l0,18.045Zm8.702,-53.386l-30.52,0l0,12.699l21.852,0l-0,9.945l-21.685,-0.003c-4.853,0.007 -8.802,3.85 -8.939,8.868l0.004,25.719c0.047,4.835 3.888,8.746 8.907,8.853l30.357,0.009c4.919,-0.007 8.905,-3.939 8.937,-9.059l0,-48.163c-0.006,-4.89 -3.986,-8.862 -8.913,-8.867m122.656,57.225l11.953,-57.225l-17.254,0l-11.074,53.385l-9.61,-0l-0,-53.386l-17.67,0l-0,66.16l34.838,0c4.852,-0.006 7.811,-3.884 8.816,-8.934" style="fill:#141111;fill-rule:nonzero;"/></g></svg>