<?xml version="1.0" encoding="UTF-8" standalone="no"?><!DOCTYPE svg PUBLIC "-//W3C//DTD SVG 1.1//EN" "http://www.w3.org/Graphics/SVG/1.1/DTD/svg11.dtd"><svg width="100%" height="100%" viewBox="0 0 1945 250" version="1.1" xmlns="http://www.w3.org/2000/svg" xmlns:xlink="http://www.w3.org/1999/xlink" xml:space="preserve" xmlns:serif="http://www.serif.com/" style="fill-rule:evenodd;clip-rule:evenodd;stroke-linejoin:round;stroke-miterlimit:2;"><path d="M1226.06,56.383l-14.844,53.451l63.649,0.031l1.601,-5.333c12.609,-46.382 -22.557,-55.863 -36.726,-55.863l-49.886,0c-24.137,0 -54.313,2.901 -64.802,40.312c-8.929,32.672 -14.189,47.173 -1.85,63.503c7.494,9.907 25.727,12.651 50.914,17.921c18.878,4.21 15.738,15.811 12.589,27.942c-2.62,8.95 -8.119,14.221 -17.058,14.221c-5.77,-0 -12.589,-3.951 -9.969,-13.181l5.156,-19.98l-64.73,-0.041l-5.26,19.501c-7.879,25.811 7.879,51.112 42.516,51.112l35.696,0c46.185,0 68.971,-12.027 82.142,-56.122c4.729,-15.811 9.688,-34.221 2.38,-47.163c-9.99,-17.65 -51.767,-23.191 -65.613,-26.871c-8.93,-2.37 -6.456,-11.559 -4.626,-20.53c4.064,-14.73 7.515,-18.461 12.671,-23.004l21.175,-20.936c2.017,-1.403 5.364,-1.268 4.875,1.03Zm-994.875,66.143c19.782,6.84 46.57,23.191 33.898,66.268c-13.638,46.372 -43.046,61.206 -91.33,61.206l-173.753,-0l162.193,-152.9l-29.397,107.505l15.749,-0c11.549,-0 18.898,-7.37 22.048,-16.861l52.484,-187.609c37.796,0 79.678,4.345 71.393,59.023c-6.954,45.904 -37.443,56.622 -62.932,61.445c-1.621,0.208 -1.621,1.777 -0.353,1.923Zm-10.821,-122.526l-175.842,164.418l45.925,-164.418l129.917,-0Zm236.268,249.99l55.634,-201.31l65.083,-0l-55.634,201.31l-65.083,-0Zm865.665,-141.206l25.177,-20.063l-58.773,0l11.008,-40.052l133.856,0l-11.548,40.052l-35.167,0l-44.605,161.269l-65.093,-0l32.744,-118.587c2.412,-9.47 5.333,-17.047 12.401,-22.619Zm394.397,-52.401l-53.513,193.607l65.093,-0l41.986,-152.828c8.409,-32.682 -7.349,-48.482 -30.437,-48.482l-111.278,-0l-55.655,201.31l65.093,-0l41.341,-150.759c4.605,-15.052 8.004,-18.93 12.672,-23.233l20.197,-20.821c1.643,-0.967 5.281,-1.622 4.501,1.206Zm-694.106,86.34l13.212,-7.775c3.088,-2.214 12.267,-6.954 24.346,-7.214l29.906,-0l-11.029,38.992l-66.653,-0l-8.41,29.521c-2.089,7.911 3.68,13.701 9.969,13.701l53.535,0l-11.009,40.052l-75.582,-0c-34.646,-0 -48.815,-30.042 -42.515,-51.112l29.916,-110.156c9.449,-36.882 40.946,-40.052 65.084,-40.052l78.731,-0l-11.029,40.052l-54.064,-0c-9.969,-0 -15.229,6.85 -16.258,11.07l-11.455,40c-0.873,2.163 -0.634,5 3.305,2.921Zm-134.823,-86.34l-15.78,56.715l65.26,-0.094l3.036,-11.102c12.598,-46.372 -25.198,-53.222 -39.366,-53.222l-49.345,-0c-24.148,-0 -55.645,3.16 -65.084,40.052l-29.916,110.156c-7.869,25.811 7.869,51.112 42.515,51.112l100.26,-0l30.177,-109.012l-65.115,-0.011l-19.137,68.981l-13.638,0c-5.78,0 -12.079,-5.8 -8.929,-14.23l26.164,-96.466c1.923,-6.029 5.249,-17.193 12.64,-22.942l21.216,-20.831c1.134,-1.279 5.791,-1.934 5.042,0.894Zm-471.403,0.041l-53.649,193.566l65.613,-0c0,-0 9.813,-37.464 17.329,-62.703c6.819,-22.931 -18.628,-35.842 -21.778,-35.842c-3.149,-0 -3.149,-4.74 0,-4.74c17.838,-0.53 35.697,-3.69 46.975,-45.322c13.275,-48.961 -29.761,-52.693 -45.665,-52.693l-98.68,0l-56.164,201.31l65.613,-0l41.56,-150.696c3.243,-11.83 8.045,-19.522 12.921,-23.088l21.32,-20.727c1.07,-1.279 5.239,-1.591 4.605,0.935Zm1438.91,86.299l13.202,-7.775c3.087,-2.214 12.287,-6.954 24.345,-7.214l29.927,-0l-11.029,38.992l-66.673,-0l-8.389,29.521c-2.11,7.911 3.68,13.701 9.969,13.701l53.534,0l-11.029,40.052l-75.582,-0c-34.636,-0 -48.805,-30.042 -42.516,-51.112l29.927,-110.156c9.439,-36.882 40.936,-40.052 65.094,-40.052l78.732,-0l-11.029,40.052l-54.065,-0c-9.969,-0 -15.229,6.85 -16.278,11.07l-11.456,40c-0.873,2.163 -0.644,5 3.316,2.921Zm-1148.35,-94.043l-95.01,-0l-56.165,201.31l92.381,-0c46.185,-0 69.283,-15.811 77.162,-45.312l27.817,-100.135c12.609,-46.383 -32.006,-55.863 -46.185,-55.863Zm-5.208,7.651l-37.755,134.584c-6.819,22.131 -23.617,18.971 -31.486,18.971l30.322,-110.707c3.555,-11.362 7.734,-18.94 12.817,-23.046l21.071,-20.717c1.663,-1.518 6.31,-1.653 5.031,0.915Zm837.277,-7.651l-40.427,-0c-24.137,-0 -55.634,3.16 -65.093,40.052l-29.907,110.156c-7.879,25.811 7.88,51.112 42.516,51.112l34.106,-0c46.206,-0 69.293,-15.811 77.173,-45.312l27.817,-100.135c12.609,-46.393 -32.017,-55.873 -46.185,-55.873Zm-5.728,7.599l-39.366,142.557c-2.64,8.96 -9.989,13.69 -15.759,13.69c-5.769,-0 -12.588,-4.2 -9.438,-12.64l27.224,-100.686c4.387,-14.512 8.202,-19.221 12.589,-23.244l20.197,-20.831c1.403,-1.227 5.062,-0.957 4.553,1.154Z"/></svg>