<?xml version="1.0" encoding="UTF-8" standalone="no"?><!DOCTYPE svg PUBLIC "-//W3C//DTD SVG 1.1//EN" "http://www.w3.org/Graphics/SVG/1.1/DTD/svg11.dtd"><svg width="100%" height="100%" viewBox="0 0 921 250" version="1.1" xmlns="http://www.w3.org/2000/svg" xmlns:xlink="http://www.w3.org/1999/xlink" xml:space="preserve" xmlns:serif="http://www.serif.com/" style="fill-rule:evenodd;clip-rule:evenodd;stroke-linejoin:round;stroke-miterlimit:2;"><g><rect x="0" y="0" width="920.455" height="250" style="fill:#ed252f;"/><g id="logo_motul_cmyk"><path id="Fill-2" d="M258.034,42.936l0,165l-58.398,0l3.228,-72l-31.756,72l-38.938,0l-11.119,-73.062l-18.841,72.915l-59.932,-0l48.989,-164.853l63.506,-0.001l9.88,67.023l28.353,-67.023l65.028,-0.001" style="fill:#fff;"/><path id="Fill-3" d="M585.057,95.244l-26.222,-1.056l-13.443,113.602l-63.534,-0l14.454,-113.375l-24.136,0.829l-40.534,-52.378l158.926,-0l-5.511,52.378" style="fill:#fff;"/><path id="Fill-4" d="M666.136,42.866l-11.818,102.449c-0.398,6.187 2.5,12.375 8.068,15.011c5.739,2.119 12.898,1.261 17.387,-2.994c3.977,-3.375 5.397,-7.943 6.477,-12.733l14.148,-101.733l60.682,0.002l-13.125,112.852c-2.841,16.097 -10.398,31.313 -24.944,41.574c-20.966,15 -48.977,17.29 -76.079,13.597c-21.534,-3.898 -46.08,-17.699 -53.125,-39.261c-3.012,-7.768 -2.5,-17.12 -2.5,-25.608l12.557,-103.154l62.272,0.002" style="fill:#fff;"/><path id="Fill-5" d="M827.102,155.648l49.887,-0l-14.716,52.142l-106.25,-0l22.102,-164.926l63.125,0.002l-14.148,112.784" style="fill:#fff;"/><path id="Fill-6" d="M411.182,48.981l6.29,4.776l37.136,47.021c4.136,7.932 4.307,18.029 3.943,27.586c-0.528,31.602 -21.517,61.119 -50.784,74.375c-35.699,16.63 -83.432,8.846 -111.415,-18.364c-24.761,-23.17 -29.79,-62.227 -16.869,-92.267c15.074,-33.409 50.591,-54.276 87.204,-52.664c15.79,0.34 31.035,2.992 44.495,9.537Zm-38.392,45.252c-13.46,-1.79 -26.205,4.403 -33.017,16.25c-5.739,9.903 -7.182,23.676 -1.086,33.761c4.313,8.472 13.29,14.319 22.796,15.194c12.375,1.062 23.329,-4.932 29.784,-15.194c6.636,-9.534 7.011,-25.108 1.608,-35.346c-3.585,-7.779 -12.023,-13.25 -20.085,-14.665Z" style="fill:#fff;"/></g></g></svg>