<?xml version="1.0" encoding="UTF-8" standalone="no"?><!DOCTYPE svg PUBLIC "-//W3C//DTD SVG 1.1//EN" "http://www.w3.org/Graphics/SVG/1.1/DTD/svg11.dtd"><svg width="100%" height="100%" viewBox="0 0 694 250" version="1.1" xmlns="http://www.w3.org/2000/svg" xmlns:xlink="http://www.w3.org/1999/xlink" xml:space="preserve" xmlns:serif="http://www.serif.com/" style="fill-rule:evenodd;clip-rule:evenodd;stroke-linejoin:round;stroke-miterlimit:2;"><g><path d="M567.019,225.223c4.809,-0 8.766,3.957 8.766,8.766c-0,4.808 -3.957,8.765 -8.766,8.765c-4.845,0 -8.762,-3.925 -8.762,-8.769c0,-4.845 3.921,-8.762 8.762,-8.762Z"/><path d="M567.019,240.863c3.996,0 6.74,-3.025 6.74,-6.878c0,-3.85 -2.744,-6.871 -6.74,-6.871c-3.988,0 -6.732,3.025 -6.732,6.871c-0,3.853 2.748,6.878 6.732,6.878Z" style="fill:#fff;"/><path d="M328.695,65.388l32.374,58.652l82.095,0l-33.969,-61.542l79.342,-60.579l-82.095,0l-74.556,56.923l26.842,-55l-85.945,-0l-58.652,120.198l85.941,0l28.623,-58.652Zm195.901,64.421l-36.694,75.185l-41.212,-75.185l-145.058,0l-58.653,120.191l85.937,0l47.833,-98.019l53.736,98.019l106.012,0l58.656,-120.191l-70.557,0Zm-290.272,120.191l58.656,-120.191l-292.98,0l0,119.35l234.324,0.841Zm-28.848,-125.96l58.656,-120.198l-264.132,-0l0,119.354l205.476,0.844Z"/><path d="M634.338,47.114c0,0 28.845,6.733 28.845,24.039c-0,12.501 -13.457,15.384 -19.226,15.384c-17.314,-0 -53.854,-27.885 -79.812,-27.885c-25.966,0 -39.423,16.347 -39.423,26.925c0,14.906 20.667,16.588 17.307,0c-0,0 9.618,-1.923 9.618,5.769c0,7.692 -3.85,20.193 -25.002,20.193c-21.153,0 -27.885,-16.347 -27.885,-25.962c0,-9.614 11.538,-29.807 46.155,-29.807l0,-6.733c0,0 -23.075,2.883 -23.075,-20.193c-0,-11.537 12.493,-20.193 24.038,-20.193c11.538,0 19.226,7.692 19.226,14.424c0,11.056 -12.501,10.82 -12.501,1.923c-0,0 1.69,-1.2 5.05,0.241c0,0 1.682,-8.892 -8.892,-8.892c-10.582,0 -15.384,7.692 -15.384,12.501c0,4.806 6.733,14.42 23.076,14.42c16.351,0 20.438,-8.892 20.438,-16.584c-0,-18.27 -25.244,-26.684 -46.396,-26.684c-21.153,0 -51.924,9.615 -51.924,29.808c0,20.193 22.12,21.152 22.12,21.152c0,0 -56.737,4.81 -56.737,34.617c-0,29.808 56.737,37.504 70.194,37.504c28.366,-0 71.876,-11.06 63.461,-49.041c0,-0 6.733,-6.733 19.234,10.578c12.501,17.31 34.621,43.268 60.579,43.268c25.966,0 36.54,-19.229 36.54,-40.382c-0,-21.152 -14.428,-47.122 -59.624,-40.39Zm-70.754,181.978l3.759,0c2.491,0 3.787,0.81 3.787,2.863c-0,1.749 -1.11,2.492 -2.559,2.653l2.63,4.312l-2.168,0l-2.492,-4.312l-1.066,0l0,4.312l-1.891,0l-0,-9.828Z"/><path d="M567.138,233.274c1.018,-0 1.966,-0.162 1.966,-1.505c-0,-1.149 -1.133,-1.334 -1.943,-1.334l-1.682,-0l0,2.839l1.659,-0Z" style="fill:#fff;"/></g></svg>