<?xml version="1.0" encoding="UTF-8" standalone="no"?><!DOCTYPE svg PUBLIC "-//W3C//DTD SVG 1.1//EN" "http://www.w3.org/Graphics/SVG/1.1/DTD/svg11.dtd"><svg width="100%" height="100%" viewBox="0 0 534 250" version="1.1" xmlns="http://www.w3.org/2000/svg" xmlns:xlink="http://www.w3.org/1999/xlink" xml:space="preserve" xmlns:serif="http://www.serif.com/" style="fill-rule:evenodd;clip-rule:evenodd;stroke-linejoin:round;stroke-miterlimit:2;"><g><path d="M155.621,156.218c-0,0 -11.421,8.147 -25.807,8.147c-15.758,0 -23.829,-9.597 -23.829,-26.725l-0,-19.413c-0,-34.258 49.636,-27.864 49.636,-52.072c-0,-5.254 -1.599,-9.594 -7.538,-9.594c-5.939,-0 -7.535,4.34 -7.535,9.594l0,10.58l-32.279,0l-0,-10.58c-0,-26.265 18.499,-34.106 40.196,-34.106c21.697,0 43.242,7.841 43.242,34.106l0,96.609l-36.086,-0l-0,-6.546Zm-93.424,-1.677c-4.11,4.568 -5.785,7.534 -11.724,9.136c-5.708,1.826 -6.166,2.287 -11.647,2.287c-24.894,-0 -38.826,-10.28 -38.826,-47.51l-0,-70.95c-0,-37.227 22.84,-47.504 47.962,-47.504c30.605,-0 47.731,12.333 48.189,44.307l-0.228,14.083l-37.912,-0l-0,-15.758c-0,-6.621 -2.057,-12.788 -10.049,-12.788c-7.993,0 -10.049,6.167 -10.049,12.788l-0,81.461c-0,6.625 1.826,12.791 10.049,12.791c7.992,0 10.049,-6.166 10.049,-12.791l-0,-18.651l-12.106,-0l0,-30.757l50.018,-0l0,88.082l-31.67,-0l-2.056,-8.226Z"/><path d="M140.545,135.662c0,4.568 3.197,6.855 6.625,6.855c7.535,-0 8.451,-5.029 8.451,-16.677l-0,-22.61c-7.08,5.026 -15.073,7.996 -15.073,18.27l0,14.162l-0.003,-0Z" style="fill:#fff;"/><path d="M262.348,75.497c-24.363,0 -23.692,15.152 -23.692,15.152l-0,72.115l-36.084,-0l0,-126.832l36.084,-0l-0,13.322l0.685,-0c4.544,-10.814 10.977,-16.092 23.004,-16.81l0,43.053l0.003,0Zm65.088,0c-24.36,0 -23.693,15.152 -23.693,15.152l0,72.115l-36.08,-0l-0,-126.832l36.083,-0l0,13.322l0.689,-0c4.543,-10.814 10.977,-16.092 23.004,-16.81l-0,43.053l-0.003,0Zm40.029,30.242l0,22.309c0,7.769 2.736,12.561 7.535,12.561c5.712,0 7.535,-4.792 7.535,-12.561l-0,-13.476l34.946,-0l-0,15.754c-0,24.67 -17.132,34.036 -42.484,34.036c-23.068,0 -43.621,-10.51 -43.621,-34.715l-0,-60.067c-0,-23.523 15.527,-36.772 43.621,-36.772c23.068,-0 42.484,8.678 42.484,36.772l-0,36.159l-50.016,-0Z"/><path d="M382.538,79.859l-0,-17.814c-0,-5.026 -2.512,-7.765 -7.535,-7.765c-5.023,-0 -7.535,2.739 -7.535,7.765l0,17.814l15.07,0Z" style="fill:#fff;"/><path d="M533.087,61.205l-0,-26.417l-9.288,0l-0,-25.045l-36.084,-0l0,25.045l-21.014,0l0,-25.045l-36.083,-0l-0,25.045l-6.771,0l0,26.417l6.771,-0l-0,74.378c-0,17.126 4.343,27.181 22.382,27.181l22.613,-0l-0,-24.017c-8.739,-1.02 -8.912,-4.984 -8.912,-11.612l0,-65.93l21.014,-0l0,74.378c0,17.126 4.344,27.181 22.383,27.181l22.619,-0l-0,-24.017c-8.745,-1.02 -8.915,-4.984 -8.915,-11.612l-0,-65.93l9.285,-0Zm-523.244,129.82l29.58,-0l0,4.713l-12.181,0l-0,42.396l-5.215,-0l0,-42.396l-12.184,0l-0,-4.713Z"/><path d="M52.615,233.548l-0.128,-0c-1.695,3.579 -4.898,5.526 -8.29,5.526c-5.214,0 -8.414,-2.766 -8.414,-8.921l0,-26.944l4.963,0l-0,27.133c-0,2.951 0.943,4.525 4.458,4.525c2.388,0 4.587,-1.074 5.967,-3.082c1.131,-1.759 1.447,-4.146 1.447,-6.154l-0,-22.425l4.962,0l0,34.925l-4.965,-0l-0,-4.583Zm17.395,-24.621l0.125,-0c2.074,-4.586 5.026,-6.534 10.24,-6.091l-0,4.899c-6.406,-1.132 -10.174,2.884 -10.174,9.23l0,21.169l-4.962,-0l0,-34.925l4.774,0l0,5.718l-0.003,-0Zm18.075,29.207l-4.522,-0l-0,-47.109l4.962,-0l0,15.769l0.128,0c1.947,-3.145 4.207,-4.525 7.285,-4.525c8.858,-0 10.993,8.981 10.993,16.143c-0,9.922 -1.323,20.662 -10.741,20.662c-3.015,0 -5.902,-1.007 -7.977,-5.09l-0.128,0l0,4.15Z"/><path d="M95.183,234.87c5.151,0 6.594,-5.402 6.594,-14.829c0,-4.587 -0.315,-13.562 -6.657,-13.562c-7.35,0 -6.91,9.982 -6.91,15.072c-0,5.09 -0.061,13.319 6.973,13.319Z" style="fill:#fff;"/><path d="M125.015,239.074c-7.534,0 -12.497,-4.519 -12.497,-19.598c0,-10.552 3.895,-17.21 12.497,-17.21c8.605,-0 12.5,6.658 12.5,17.21c0,15.139 -4.835,19.598 -12.5,19.598Z"/><path d="M125.015,206.479c-5.087,0 -7.346,4.016 -7.346,14.569c-0,8.229 1.571,13.822 7.346,13.822c5.906,0 7.35,-5.593 7.35,-13.822c-0,-10.553 -2.136,-14.569 -7.35,-14.569Z" style="fill:#fff;"/><path d="M147.692,222.179c-0,4.586 0.315,12.691 6.655,12.691c5.402,0 5.905,-4.65 6.154,-8.921l4.711,0c-0.188,6.719 -2.7,13.128 -10.489,13.128c-10.677,0 -12.185,-8.92 -12.185,-17.963c0,-8.541 1.383,-18.845 12.06,-18.845c7.034,-0 10.429,5.469 10.365,11.939l-4.65,-0c-0.064,-3.834 -1.068,-7.726 -5.778,-7.726c-7.222,-0.003 -6.843,10.732 -6.843,15.697Zm28.567,15.955l-4.963,-0l0,-47.109l4.963,-0l-0,16.018c2.387,-3.015 4.962,-4.774 8.729,-4.774c5.212,-0 8.603,2.766 8.603,8.921l-0,26.944l-4.963,-0l0,-25.564c0,-3.643 -1.192,-6.091 -5.211,-6.091c-1.821,-0.005 -3.576,0.692 -4.898,1.944c-2.011,1.826 -2.263,3.834 -2.263,6.346l-0,23.365l0.003,-0Zm48.362,-0c-0.383,0.052 -0.762,0.135 -1.132,0.249c-4.21,0.188 -5.778,-0.188 -6.281,-4.96l-0.128,0c-1.195,3.076 -4.395,5.651 -7.725,5.651c-6.971,0 -8.982,-3.891 -8.982,-10.237c0,-1.322 0.188,-6.345 5.026,-8.478c2.824,-1.262 9.858,-3.898 10.489,-4.401c1.068,-0.819 0.943,-2.199 0.943,-4.016c0,-3.959 -1.507,-5.463 -5.526,-5.463c-4.52,0 -5.151,2.069 -5.087,6.154l-4.459,0c-0.251,-7.228 3.328,-10.367 10.365,-10.367c10.364,-0 9.485,8.666 9.485,9.485l-0,20.034c-0,0.877 -0.128,2.133 0.879,2.636c0.692,0.188 1.444,0.131 2.136,0.064l-0,3.649l-0.003,-0Z"/><path d="M216.455,219.288c-2.451,1.447 -5.214,2.512 -7.85,3.768c-2.323,1.073 -3.075,3.643 -3.075,6.03c-0,3.518 0.879,5.781 4.898,5.781c1.884,0 6.03,-1.447 6.03,-7.104l0,-8.475l-0.003,0Z" style="fill:#fff;"/><path d="M233.969,208.927l0.128,-0c2.071,-4.586 5.023,-6.534 10.237,-6.091l-0,4.899c-6.406,-1.132 -10.174,2.884 -10.174,9.23l0,21.169l-4.962,-0l0,-34.925l4.774,0l0,5.718l-0.003,-0Zm30.633,-5.718l4.965,0l0,30.712c0,4.271 -0.315,7.54 -2.641,11.244c-2.2,3.455 -5.779,4.835 -9.61,4.835c-5.59,-0 -9.737,-2.572 -10.425,-8.536l4.835,0c0.44,3.14 2.451,4.332 5.463,4.332c8.038,-0 7.222,-7.914 7.286,-11.742l-0.128,0c-2.074,3.579 -4.334,5.023 -7.537,5.023c-6.595,0 -11.181,-4.586 -11.181,-18.654c0,-7.347 1.823,-18.151 11.056,-18.151c3.203,-0 6.091,1.571 7.79,4.899l0.127,-0l0,-3.962Z"/><path d="M250.786,220.675c-0,8.535 1.443,14.195 6.342,14.195c7.538,0 7.474,-9.36 7.474,-14.954c0,-6.906 -1.447,-13.437 -6.973,-13.437c-6.592,0 -6.843,9.479 -6.843,14.196Z" style="fill:#fff;"/><path d="M296.569,226.511c0.316,6.849 -3.2,12.566 -10.552,12.566c-6.595,0 -11.305,-4.395 -11.305,-18.466c-0,-7.353 1.95,-18.342 11.18,-18.342c11.305,-0 10.677,10.68 10.932,18.845l-16.962,0c0.125,4.711 -0.688,13.756 6.279,13.756c4.774,0 6.097,-4.401 5.781,-8.359l4.647,-0Z"/><path d="M291.671,217.032c-0.188,-4.083 0.063,-10.553 -5.712,-10.553c-5.781,0 -5.906,6.403 -6.097,10.553l11.809,-0Z" style="fill:#fff;"/><path d="M307.55,208.927l0.127,-0c2.075,-4.586 5.023,-6.534 10.237,-6.091l0,4.899c-6.403,-1.132 -10.173,2.884 -10.173,9.23l-0,21.169l-4.966,-0l0,-34.925l4.775,0l-0,5.718Zm27.872,3.643c0.188,-4.147 -1.316,-6.091 -5.526,-6.091c-3.513,0 -5.521,1.629 -5.521,5.272c0,4.519 3.704,5.09 7.092,6.533c5.029,2.257 10.052,3.513 10.052,10.047c0,6.657 -4.65,10.801 -11.808,10.74c-3.082,0.061 -6.849,-1.007 -8.666,-3.643c-2.075,-2.766 -1.951,-5.089 -1.951,-7.477l4.711,0c-0.188,4.271 1.256,6.913 5.906,6.913c4.016,0 6.658,-1.635 6.658,-5.906c-0,-4.965 -5.03,-5.402 -8.609,-6.906c-5.402,-2.014 -8.541,-3.834 -8.541,-9.922c-0,-6.03 4.213,-9.864 10.237,-9.864c6.913,-0 10.932,3.139 10.804,10.301l-4.838,-0l0,0.003Z"/></g></svg>