<?xml version="1.0" encoding="UTF-8" standalone="no"?><!DOCTYPE svg PUBLIC "-//W3C//DTD SVG 1.1//EN" "http://www.w3.org/Graphics/SVG/1.1/DTD/svg11.dtd"><svg width="100%" height="100%" viewBox="0 0 2305 250" version="1.1" xmlns="http://www.w3.org/2000/svg" xmlns:xlink="http://www.w3.org/1999/xlink" xml:space="preserve" xmlns:serif="http://www.serif.com/" style="fill-rule:evenodd;clip-rule:evenodd;stroke-linejoin:round;stroke-miterlimit:2;"><g><path d="M0,246.771l0,-243.792l148.601,0l39.478,109.701l40.636,-109.701l156.718,0l-0,243.792l-120.726,-0l0,-111.451l-45.292,111.451l-61.515,-0l-46.45,-112.608l0,112.608l-111.45,-0Zm1871.2,-0l0,-243.792l-118.989,0l0,243.792l118.989,-0Zm-355.242,-243.792l-0,243.792l218.257,-0l0,-83.009l-89.377,-0l-0,-160.783l-128.88,0Zm-648.527,0l0,243.792l122.475,-0l0,-78.944l69.657,-0l-0,78.944l121.896,-0l-0,-243.792l-121.896,0l-0,87.062l-69.657,-0l0,-87.062l-122.475,0Zm339.144,0l-0,243.792l282.678,-0l0,-62.685l-155.56,0l0,-23.81l155.56,0l0,-56.304l-155.56,-0l0,-23.798l155.56,0l0,-77.195l-282.678,0Zm689.741,243.792l-0,-243.792l121.908,0l77.774,95.191l0,-95.191l120.75,0l0,243.792l-106.819,-0l-88.219,-95.782l0,95.782l-125.394,-0Zm-1059.49,-239.727c-53.397,-8.709 -171.819,-11.037 -205.496,2.895c-33.664,13.931 -81.26,40.636 -78.944,119.58c2.316,78.932 51.081,96.349 74.3,106.806c23.219,10.446 110.872,24.956 211.877,-0.578l-1.737,-76.05c-31.927,4.644 -156.73,33.085 -155.572,-30.178c1.071,-58.041 109.122,-36.571 155.572,-35.993l0,-86.482Zm-305.331,239.727l0,-243.792l-118.989,0l0,243.792l118.989,-0Zm1764.34,-234.233c-5.493,-5.623 -13.068,-8.739 -20.928,-8.61c-8.129,-0 -15.064,2.87 -20.804,8.61c-5.636,5.45 -8.765,13.002 -8.635,20.841c-0,8.216 2.833,15.2 8.561,20.965c5.727,5.802 12.699,8.696 20.878,8.696c8.179,0 15.151,-2.894 20.928,-8.696c5.777,-5.789 8.659,-12.786 8.659,-20.965c0,-8.154 -2.882,-15.101 -8.659,-20.841Zm-2.944,38.961c-4.927,4.988 -10.95,7.489 -17.996,7.489c-7.046,-0 -13.045,-2.501 -17.996,-7.489c-4.82,-4.777 -7.482,-11.323 -7.366,-18.107c-0,-7.022 2.476,-13.033 7.415,-17.984c4.683,-4.875 11.188,-7.589 17.947,-7.489c7.021,-0 13.044,2.5 17.996,7.489c4.832,4.721 7.515,11.228 7.415,17.984c0,7.082 -2.476,13.118 -7.415,18.107Z"/><path d="M2288.06,49.121c-0.179,-0.545 -0.275,-1.114 -0.284,-1.687c-0.047,-0.804 -0.072,-1.609 -0.074,-2.415l0,-2.377c-0.067,-1.822 -0.691,-3.58 -1.786,-5.038c-1.182,-1.712 -3.03,-2.771 -5.58,-3.178c1.996,-0.32 3.585,-0.837 4.718,-1.564c2.119,-1.367 3.178,-3.498 3.178,-6.405c-0,-4.078 -1.688,-6.812 -5.026,-8.216c-1.872,-0.776 -4.84,-1.17 -8.856,-1.17l-11.357,-0l0,32.432l5.703,0l0,-12.798l4.521,-0c3.03,-0 5.149,0.345 6.356,1.047c2.044,1.207 3.054,3.683 3.054,7.44l0,2.574l0.124,1.047c0.051,0.228 0.109,0.454 0.172,0.678l5.346,-0l-0.209,-0.37Zm-8.783,-17.109c-1.207,0.493 -3.005,0.727 -5.432,0.727l-5.149,-0l0,-11.751l4.878,-0c3.178,-0 5.457,0.406 6.91,1.207c1.417,0.8 2.143,2.389 2.143,4.754c-0.012,2.489 -1.108,4.188 -3.35,5.063Z"/></g></svg>