<?xml version="1.0" encoding="UTF-8" standalone="no"?><!DOCTYPE svg PUBLIC "-//W3C//DTD SVG 1.1//EN" "http://www.w3.org/Graphics/SVG/1.1/DTD/svg11.dtd"><svg width="100%" height="100%" viewBox="0 0 1196 250" version="1.1" xmlns="http://www.w3.org/2000/svg" xmlns:xlink="http://www.w3.org/1999/xlink" xml:space="preserve" xmlns:serif="http://www.serif.com/" style="fill-rule:evenodd;clip-rule:evenodd;stroke-linejoin:round;stroke-miterlimit:2;"><g><path id="path63" d="M324.702,0l-107.015,79.227c-132.717,8.669 -172.353,65.328 -172.353,65.328c-101.695,85.947 -0.524,77.175 -0.524,77.175c51.116,-4.359 149.247,-46.605 149.247,-46.605l133.427,45.865l-1.006,-11.22c29.361,20.665 50.023,2.177 50.023,2.177l1.088,4.352l63.07,0l-8.685,33.701l60.894,0l7.606,-34.799c14.141,8.71 36.976,2.176 36.976,2.176l156.607,0l1.088,-11.959c47.849,29.361 86.998,3.264 86.998,3.264c54.373,26.096 91.34,-5.44 91.34,-5.44c9.79,26.106 66.344,11.959 66.344,11.959c36.868,8.762 41.328,-4.342 41.328,-4.342l1.088,5.44l84.822,0l5.441,-22.85c16.307,33.713 70.697,25.016 70.697,25.016c71.766,-21.74 35.877,-69.598 35.877,-69.598l16.311,-2.177c-1.079,-66.34 -80.469,-41.317 -80.469,-41.317c-14.135,-9.8 -33.721,-3.265 -33.721,-3.265l-48.935,0l-2.176,6.519c-19.566,-11.966 -69.599,-6.519 -69.599,-6.519l-16.311,0l8.705,-43.504l-67.433,34.8l-2.176,8.704l-13.047,0l-0,4.353c-44.583,-15.236 -76.127,9.783 -76.127,9.783c-52.201,-34.801 -90.263,-1.088 -90.263,-1.088c-15.227,-22.836 -53.287,-11.959 -53.287,-11.959l-29.358,-0l7.606,-32.623l-59.805,-0l-8.705,40.229c-14.133,-15.23 -44.582,-8.695 -44.582,-8.695l-29.369,0l7.607,-33.711l-27.183,0l77.544,-30.867l-219.605,25.006l0,-62.536Z" style="fill:#fff;fill-rule:nonzero;"/><path id="path16" d="M1195.39,146.689c-1.079,-66.341 -80.47,-41.318 -80.47,-41.318c-14.135,-9.8 -33.714,-3.266 -33.714,-3.266l-48.935,0l-2.18,6.521c-19.565,-11.966 -69.594,-6.521 -69.594,-6.521l-16.314,0l8.704,-43.502l-67.429,34.794l-2.179,8.708l-13.048,0l-0,4.353c-44.584,-15.237 -76.126,9.783 -76.126,9.783c-52.2,-34.8 -90.259,-1.089 -90.259,-1.089c-15.228,-22.836 -53.294,-11.96 -53.294,-11.96l-29.357,0l7.61,-32.624l-59.813,-0l-8.702,40.234c-14.133,-15.231 -44.584,-8.697 -44.584,-8.697l-29.37,0l7.616,-33.713l-27.188,-0l77.543,-30.86l-219.603,25.004l0,-62.533l-107.016,79.218c-132.718,8.669 -172.35,65.327 -172.35,65.327c-101.694,85.947 -0.526,77.182 -0.526,77.182c51.116,-4.359 149.247,-46.605 149.247,-46.605l133.429,45.865l-1.01,-11.223c29.361,20.665 50.023,2.173 50.023,2.173l1.087,4.353l63.075,-0l-8.691,33.706l60.896,-0l7.61,-34.801c14.141,8.71 36.974,2.173 36.974,2.173l156.604,0l1.086,-11.956c47.849,29.361 87.001,3.265 87.001,3.265c54.373,26.096 91.346,-5.442 91.346,-5.442c9.79,26.107 66.343,11.96 66.343,11.96c36.867,8.763 41.324,-4.344 41.324,-4.344l1.093,5.439l84.815,-0l5.445,-22.843c16.307,33.713 70.694,25.011 70.694,25.011c71.767,-21.74 35.88,-69.595 35.88,-69.595l16.307,-2.177Zm-616.122,-63.105l33.709,-0l-4.941,23.164l-33.725,-0l4.957,-23.164Zm-264.422,109.567l-117.825,-37.705c-189.456,85.774 -181.92,37.705 -181.92,37.705c12.261,-39.588 127.248,-58.438 127.248,-58.438c47.133,-7.547 43.358,-22.63 43.358,-22.63c-3.761,-10.367 -55.613,16.975 -55.613,16.975c-19.789,-2.834 -56.55,11.305 -56.55,11.305c38.647,-42.413 110.285,-49.01 110.285,-49.01c9.425,-1.883 47.127,-3.775 47.127,-3.775l82.949,-62.213l0,49.963l158.347,-18.852l-157.406,58.44l0,78.235Zm116.778,-106.274l-5.439,26.099c-10.871,-8.703 -32.627,-8.703 -32.627,-8.703l38.066,-17.396Zm20.479,117.484l-65.288,-0c-0.766,-3.463 -1.149,-6.789 -1.149,-9.975c-8.771,8.023 -18.568,12.028 -29.37,12.028c-11.029,0 -18.953,-2.584 -23.777,-7.755c-4.826,-5.16 -7.238,-11.161 -7.238,-17.974c0,-7.752 2.146,-13.659 6.45,-17.725c4.308,-4.07 9.608,-6.832 15.915,-8.288c6.31,-1.462 14.922,-2.738 25.833,-3.838c9.71,-1.049 16.181,-2.059 19.413,-3.049c0.652,-2.64 0.986,-4.666 0.986,-6.064c0,-2.25 -1.131,-4.046 -3.375,-5.396c-2.245,-1.352 -5.232,-2.025 -8.951,-2.025c-3.888,-0 -7.038,0.64 -9.45,1.922c-2.412,1.281 -4.539,3.961 -6.368,8.047l-30.784,-3.407c2.031,-8.369 6.66,-14.832 13.865,-19.384c7.21,-4.539 18.387,-6.816 33.533,-6.816c17.169,-0 28.754,2.165 34.768,6.49c5.997,4.325 9.006,10.621 9.006,18.894c-0,5.507 -1.517,14.571 -4.566,27.201c-2.82,11.957 -4.235,20.279 -4.235,24.968c0,3.329 0.515,6.715 1.478,10.164l25.384,-118.795l33.722,-0l-25.802,120.777Zm68.287,2.053c-12.258,0 -21.513,-4.596 -27.777,-13.788l-9.739,45.151l-33.654,-0l26.052,-121.065l31.261,0l-1.665,8.776l0.326,0.326c4.769,-4.407 9.037,-7.364 12.825,-8.88c3.778,-1.511 8.33,-2.272 13.652,-2.272c9.808,-0 17.324,3.274 22.564,9.816c5.231,6.548 7.851,15.379 7.851,26.487c-0,14.853 -3.945,27.809 -11.829,38.86c-7.883,11.059 -17.839,16.589 -29.867,16.589Zm33.076,-2.053l18.721,-87.649l33.722,0l-18.724,87.649l-33.719,-0Zm574.657,-58.717c1.829,1.357 6.755,2.606 14.744,3.761c12.873,1.927 21.43,4.829 25.676,8.724c4.24,3.878 6.37,9.069 6.37,15.57c0,9.034 -4.169,16.742 -12.522,23.134c-8.34,6.392 -21.052,9.581 -38.123,9.581c-13.945,0 -24.155,-2.026 -30.63,-6.085c-6.469,-4.052 -10.267,-10.739 -11.367,-20.054l33.133,-2.883c1.422,7.038 6.061,10.558 13.924,10.558c3.658,0 6.896,-0.804 9.706,-2.398c2.817,-1.593 4.211,-3.89 4.211,-6.873c0,-2.697 -1.002,-4.517 -3.034,-5.454c-2.011,-0.936 -5.851,-1.85 -11.493,-2.728c-12.978,-2.045 -21.759,-5.133 -26.356,-9.264c-4.597,-4.136 -6.888,-9.348 -6.888,-15.636c-0,-0.862 0.063,-1.719 0.161,-2.578c-2.411,-0.52 -4.597,-0.797 -6.51,-0.797c-6.454,-0 -11.689,2.319 -15.712,6.956c-4.029,4.639 -7.141,12.074 -9.341,22.296l-6.987,32.887l-64.324,-0c-0.764,-3.463 -1.142,-6.789 -1.142,-9.975c-8.774,8.023 -18.564,12.028 -29.363,12.028c-11.037,0 -18.963,-2.584 -23.791,-7.755c-3.357,-3.581 -5.508,-7.58 -6.531,-11.965l-3.714,17.68c-10.155,1.374 -17.59,2.073 -22.327,2.073c-9.432,0 -16.125,-2.264 -20.063,-6.775c-3.946,-4.517 -5.915,-9.444 -5.915,-14.785c0,-1.76 0.806,-6.458 2.418,-14.065l6.349,-30.043l-12.285,-0l0.554,-2.688l-27.302,2.953c-0.932,-5.274 -4.836,-7.918 -11.731,-7.918c-4.051,-0 -7.12,0.747 -9.201,2.239c-2.075,1.48 -3.105,3.216 -3.105,5.195c0,2.048 0.911,3.74 2.747,5.084c1.836,1.357 6.756,2.606 14.752,3.761c12.873,1.927 21.429,4.829 25.669,8.724c4.247,3.878 6.377,9.069 6.377,15.57c-0,9.034 -4.177,16.742 -12.523,23.134c-8.346,6.392 -21.051,9.581 -38.122,9.581c-13.945,0 -24.156,-2.026 -30.631,-6.085c-4.247,-2.653 -7.316,-6.464 -9.243,-11.382c-4.086,5.113 -8.893,9.041 -14.464,11.735c-7.905,3.818 -17.793,5.732 -29.699,5.732c-17.295,0 -29.587,-3.895 -36.889,-11.689c-7.295,-7.802 -10.939,-17.35 -10.939,-28.65c0,-2.253 0.155,-4.461 0.435,-6.638l-9.489,44.924l-33.623,-0l8.662,-40.757c2.081,-9.978 3.118,-15.674 3.118,-17.101c0,-4.81 -2.186,-7.218 -6.573,-7.218c-4.927,-0 -9.222,2.326 -12.901,6.969c-3.669,4.648 -6.439,11.341 -8.306,20.079l-8.155,38.028l-33.889,-0l18.792,-87.649l31.417,0l-2.89,13.205l0.331,0.331c9.217,-10.385 20.457,-15.586 33.744,-15.586c7.891,-0 13.812,2.02 17.765,6.074c3.945,4.046 5.921,9.022 5.921,14.919c0,2.978 -0.799,8.428 -2.362,16.293c0.806,-2.724 1.843,-5.382 3.119,-7.983c3.413,-6.914 8.045,-12.72 13.875,-17.404c5.831,-4.681 11.598,-7.834 17.267,-9.463c5.67,-1.621 12.306,-2.436 19.909,-2.436c16.349,-0 28.087,3.553 35.193,10.668c7.099,7.122 10.652,15.857 10.652,26.229c0,3.425 -0.743,9.294 -2.228,17.629l-66.952,0c0.925,11.721 6.145,17.59 15.662,17.59c6.447,0 11.584,-2.641 15.41,-7.913l26.132,2.419c-0.049,-0.344 -0.126,-0.665 -0.169,-1.009l33.126,-2.883c1.43,7.038 6.062,10.558 13.924,10.558c3.659,0 6.903,-0.804 9.706,-2.398c2.817,-1.593 4.219,-3.89 4.219,-6.873c-0,-2.697 -1.002,-4.517 -3.034,-5.454c-2.019,-0.936 -5.852,-1.85 -11.5,-2.728c-12.972,-2.045 -21.752,-5.133 -26.356,-9.264c-4.59,-4.136 -6.896,-9.348 -6.896,-15.636c0,-5.127 1.731,-10.145 5.186,-15.056c3.462,-4.905 8.696,-8.784 15.683,-11.62c7.008,-2.839 15.613,-4.259 25.824,-4.259c11.689,-0 20.645,1.724 26.881,5.174c4.156,2.285 7.246,5.715 9.342,10.227l2.768,-13.324l12.382,0l2.881,-13.621l37.575,-18.65l-6.832,32.271l17.309,0l-5.109,24.04l-17.575,-0l-6.286,31.067c-0.575,1.286 -0.862,2.669 -0.862,4.117c-0,3.901 2.635,5.853 7.905,5.853c1.436,-0 4.26,-0.367 8.458,-1.101l-0,-0.03c-0,-7.753 2.144,-13.659 6.447,-17.725c4.31,-4.07 9.615,-6.832 15.915,-8.288c6.314,-1.462 14.926,-2.738 25.837,-3.839c9.699,-1.048 16.181,-2.058 19.405,-3.049c0.658,-2.639 0.988,-4.665 0.988,-6.063c-0,-2.251 -1.121,-4.046 -3.371,-5.396c-2.249,-1.352 -5.228,-2.026 -8.949,-2.026c-3.889,0 -7.043,0.641 -9.446,1.923c-2.425,1.281 -4.541,3.96 -6.37,8.047l-30.785,-3.408c2.032,-8.368 6.643,-14.831 13.875,-19.383c7.204,-4.539 18.374,-6.816 33.518,-6.816c17.176,-0 28.753,2.165 34.765,6.49c5.999,4.325 9.012,10.621 9.012,18.894c0,5.507 -1.52,14.571 -4.562,27.201c-2.824,11.957 -4.239,20.279 -4.239,24.968c-0,2.718 0.35,5.488 0.995,8.294l17.82,-83.797l31.402,0l-3.868,17.117l0.329,0.325c5.242,-7.73 9.846,-12.911 13.82,-15.545c3.98,-2.634 8.339,-3.947 13.09,-3.947c3.581,-0 7.456,0.876 11.605,2.63l-4.534,9.436c3.209,-3.137 7.344,-5.748 12.418,-7.807c6.993,-2.839 15.592,-4.259 25.802,-4.259c11.689,-0 20.659,1.724 26.889,5.173c6.23,3.444 10.14,9.389 11.731,17.82l-31.36,3.389c-0.932,-5.274 -4.849,-7.918 -11.738,-7.918c-4.05,-0 -7.113,0.747 -9.187,2.239c-2.081,1.48 -3.111,3.216 -3.111,5.195c-0,2.048 0.911,3.739 2.747,5.084l-0,-0Zm-366.295,2.335c-0,-4.504 -1.346,-7.906 -4.016,-10.219c-2.677,-2.308 -5.977,-3.46 -9.902,-3.46c-4.134,-0 -7.953,1.576 -11.422,4.714c-3.49,3.142 -6.132,7.82 -7.954,14.042l32.712,0c0.385,-1.212 0.582,-2.909 0.582,-5.077Zm-244.028,-11.328c-6.208,0 -10.972,3.485 -14.289,10.449c-3.326,6.969 -4.98,14.097 -4.98,21.365c0,5.182 1.295,9.042 3.907,11.577c2.603,2.529 5.584,3.799 8.938,3.799c4.883,0 9.087,-3.104 12.602,-9.339c3.513,-6.223 5.275,-13.776 5.275,-22.65c0,-5.398 -1.13,-9.277 -3.375,-11.656c-2.258,-2.36 -4.949,-3.545 -8.078,-3.545Zm-159.689,42.427c0,2.836 0.958,5.067 2.869,6.71c1.913,1.634 4.379,2.452 7.377,2.452c4.216,0 8.38,-1.733 12.516,-5.204c4.128,-3.473 6.901,-9.452 8.327,-17.951c-15.377,2.611 -24.393,4.913 -27.076,6.911c-2.674,1.999 -4.013,4.358 -4.013,7.082Zm-287.701,0.799c0,0 25.02,18.068 76.442,-33.36c0,-0 -79.223,16.682 -76.442,33.36Zm893.654,-0.799c0,2.836 0.96,5.067 2.873,6.71c1.907,1.634 4.373,2.452 7.366,2.452c4.225,0 8.388,-1.733 12.522,-5.204c4.121,-3.473 6.903,-9.452 8.326,-17.951c-15.368,2.611 -24.394,4.913 -27.071,6.911c-2.677,1.999 -4.016,4.358 -4.016,7.082"/></g></svg>