<?xml version="1.0" encoding="UTF-8" standalone="no"?><!DOCTYPE svg PUBLIC "-//W3C//DTD SVG 1.1//EN" "http://www.w3.org/Graphics/SVG/1.1/DTD/svg11.dtd"><svg width="100%" height="100%" viewBox="0 0 1277 250" version="1.1" xmlns="http://www.w3.org/2000/svg" xmlns:xlink="http://www.w3.org/1999/xlink" xml:space="preserve" xmlns:serif="http://www.serif.com/" style="fill-rule:evenodd;clip-rule:evenodd;stroke-linejoin:round;stroke-miterlimit:2;"><g><path d="M194.759,67.047c-9.349,-5.412 -19.346,-8.36 -29.343,-8.531c-0.656,-0.157 -1.147,-0.157 -1.802,-0.157c-12.133,0 -23.939,3.276 -33.772,10.162c-9.67,6.714 -17.538,16.391 -23.277,27.862c-5.576,11.478 -8.36,25.086 -8.36,39.341c0,16.235 3.276,30.654 9.834,42.132c6.066,11.635 14.59,20.165 24.751,26.061c9.669,5.255 20.329,8.523 31.145,8.523l-0.328,-0.484l1.802,-0c9.997,-0.328 20.165,-3.119 29.835,-8.523c9.833,-5.412 18.199,-13.942 24.751,-25.577c6.066,-11.478 9.178,-25.897 9.178,-42.132c-0,-16.391 -3.112,-30.817 -9.67,-42.289c-6.551,-11.471 -14.91,-20.649 -24.744,-26.388Zm-16.398,115.238c-1.972,11.478 -6.231,17.217 -12.788,17.217l-0.164,-0c-6.886,-0 -11.144,-5.746 -13.116,-17.217c-1.638,-11.478 -2.621,-27.378 -2.621,-46.554c0,-8.687 0.328,-17.374 0.328,-24.587c-0,-6.722 0.989,-13.771 1.965,-19.667c0.655,-5.739 2.457,-10.987 4.757,-14.754c1.801,-3.937 5.084,-5.739 8.687,-5.739c6.721,0 10.98,6.23 12.952,17.702c1.965,11.478 2.784,27.378 2.784,47.045c0,19.182 -0.819,35.082 -2.784,46.554Zm1085.88,1.808l-0,-173.932l-59.179,0l-0.334,12.952c13.607,0 13.607,0 13.607,12.461l0,148.519c0,10.004 0,9.513 -12.46,9.513l0.334,12.624l70.493,0l-0,-12.624c-8.374,-0 -12.461,-0.171 -12.461,-9.513Zm-812.604,0l-0,-107.868l11.307,-0l0.164,-12.133l-11.471,-0.164l-0,-53.767l-11.963,0.164c-13.607,21.803 -30.988,38.365 -53.118,53.603l-0,12.297c10.816,-0 14.917,0.164 14.917,10.816l0,97.045c0,9.342 -5.411,9.513 -13.116,9.513l0,12.625l75.741,-0l-0,-12.625c-9.677,0.007 -12.461,-0.328 -12.461,-9.506Zm-86.236,0.819l-0,-90.815c-0,-20.82 -12.126,-35.731 -36.72,-35.731c-13.935,0 -28.027,6.231 -41.15,20.329l0,-14.76l-57.868,-0l0,12.297c12.133,-0 12.461,-0 12.461,10.659l0.328,97.38c-0,9.178 -0.819,9.342 -12.789,9.669l0,12.297l74.594,0l0,-12.624c-11.15,-0 -14.426,-0.164 -14.426,-9.834l0,-86.406c-0.819,-6.394 5.575,-15.573 13.116,-15.573c8.032,0 15.736,4.429 15.736,14.263l-0.163,110.161l60.816,-0l-0,-12.789c-8.524,-0.164 -13.935,0 -13.935,-8.523Zm138.692,-127.535c7.541,-0 14.099,-2.784 18.528,-8.032c4.258,-4.913 6.394,-10.816 6.394,-16.392c-0,-5.902 -2.784,-11.969 -7.049,-17.21c-4.265,-4.92 -10.823,-7.704 -17.866,-7.704c-6.615,0.004 -12.93,2.804 -17.374,7.704c-4.571,4.416 -7.123,10.528 -7.049,16.883l-0,0.327c-0,6.722 2.62,13.11 7.049,17.375c4.683,4.467 10.895,6.989 17.367,7.049Z"/><path d="M165.409,224.089c-15.573,3.937 -30.818,3.119 -44.097,-3.439c-29.842,-14.754 -56.722,-63.273 -56.722,-95.408c-0,-50.982 41.149,-105.404 93.933,-97.209c2.129,0.328 4.429,0.819 6.886,1.474c17.374,4.593 39.013,16.064 53.603,26.887l2.627,-10.168l-46.226,-45.735l-2.955,10.325c-2.62,-0.819 -4.92,-1.638 -7.049,-2.457c-22.465,-8.031 -20.493,-8.359 -42.623,-8.359c-18.03,-0 -35.411,3.937 -50.164,9.997c-13.935,5.576 -28.525,15.737 -38.856,26.723c-9.998,10.496 -20.166,25.079 -25.407,39.832c-5.083,14.925 -8.359,31.807 -8.359,48.69c0,22.95 6.23,45.408 16.391,64.099c9.67,18.036 25.734,34.591 44.425,44.759c18.036,10.161 40.494,15.9 64.099,15.9c13.109,-0 27.214,-1.146 40.494,-4.258c13.443,-3.283 26.068,-8.53 35.901,-16.89c10.489,-8.857 13.444,-8.523 20.159,-14.753l-4.586,-18.036c-16.555,14.091 -34.257,23.932 -51.474,28.026Zm369.339,-39.996l0,-120.158l-62.297,-0l0,11.969c10.823,0.328 12.461,0.492 12.461,11.144l-0,97.045c-0,9.342 -1.808,9.513 -13.28,9.513l0,12.624l75.741,0l-0,-12.624c-9.841,-0 -12.625,-0.171 -12.625,-9.513Zm230.654,-46.554l63.443,-0.327c0,-10.496 -1.651,-25.577 -4.599,-34.264c-2.464,-8.203 -7.213,-16.234 -12.625,-22.622c-5.254,-5.903 -12.303,-11.15 -19.83,-14.262c-7.384,-3.276 -15.9,-5.084 -25.086,-5.084l-1.303,-0c-11.806,-0 -23.127,1.638 -32.79,8.196c-9.676,6.721 -19.844,18.691 -25.242,30.653c-3.119,7.213 -4.934,15.409 -5.746,24.096c-0.467,5.782 -0.685,11.581 -0.655,17.381c0,3.603 0.157,7.213 0.655,10.816c1.191,7.94 3.512,15.668 6.892,22.95c4.85,10.304 12.673,18.925 22.458,24.751c9.506,5.745 21.312,9.014 34.428,9.185l1.303,-0c15.9,-0 31.644,-3.44 41.641,-11.478c9.342,-7.705 19.51,-23.605 19.019,-44.097l-13.273,-0.328c-1.16,22.786 -15.245,35.239 -28.859,39.348c-5.746,1.801 -12.795,2.948 -19.831,0.812c-2.06,-0.719 -4.038,-1.653 -5.903,-2.785c-7.704,-7.37 -5.254,-34.755 -5.254,-52.948l11.157,0l-0,0.007Zm-11.157,-50.655c-0,0 -0,-10.332 11.157,-10.823l1.146,0c9.998,0.164 9.998,10.823 9.998,10.823l-0,39.177l-11.144,0l-11.157,0.164l-0,-39.341Zm211.798,98.028l0,-90.815c0,-20.82 -11.969,-35.731 -36.556,-35.731c-14.085,0 -28.19,6.231 -41.306,20.329l-0,-14.76l-57.868,-0l-0,12.297c12.126,-0 12.46,-0 12.46,10.659l0.335,97.38c-0,9.178 -0.826,9.342 -12.639,9.669l0,12.297l74.601,0l0,-12.624c-11.314,-0 -14.596,-0.164 -14.596,-9.834l-0,-86.406c-0.812,-6.394 5.568,-15.573 13.115,-15.573c8.039,0 15.744,4.429 15.744,14.263l-0,110.161l60.659,-0l-0,-12.789c-8.373,-0.164 -13.949,0 -13.949,-8.523Zm-277.528,-0l0,-90.815c0,-20.82 -12.126,-35.731 -36.72,-35.731c-13.771,0 -27.863,6.231 -41.143,20.329l0,-14.76l-57.704,-0l0,12.297c12.133,-0 12.625,-0 12.625,10.659l0.163,97.38c0,9.178 -0.819,9.342 -12.788,9.669l0.164,12.297l74.594,0l-0,-12.624c-11.315,-0 -14.59,-0.164 -14.59,-9.834l-0,-86.406c-0.819,-6.394 5.568,-15.573 13.109,-15.573c8.032,0 15.743,4.429 15.743,14.263l-0.164,110.161l60.646,-0l-0,-12.789l-0.812,0c-7.875,-0.164 -13.123,-0.164 -13.123,-8.523Zm498.021,-0.983l0.334,-90.323c0,-23.768 -25.085,-39.832 -55.083,-39.832c-1.147,-0 -2.293,-0 -3.61,0.163c-16.392,1.474 -41.641,11.963 -53.604,20.493c0.99,8.032 0.171,8.687 0.171,16.064l34.585,-16.719c3.596,-1.808 12.126,-3.275 18.848,-2.457c4.265,0.656 7.704,2.13 9.021,5.084c0.99,2.457 2.948,6.067 2.948,9.67l0.171,16.555c-3.844,-2.186 -7.914,-3.946 -12.14,-5.247c-10.81,-3.112 -21.633,-2.785 -29.016,-0.819c-22.779,6.23 -32.79,30.824 -32.79,60.823c-0,20.977 12.624,53.923 40.33,53.923c9.677,0 15.743,-2.456 21.469,-6.066c2.784,-1.638 5.411,-3.603 8.373,-5.569c7.049,6.558 20.977,6.395 27.378,6.395l36.386,0.327l-0.321,-13.116c-11.321,0.157 -13.45,-0.17 -13.45,-9.349Zm-56.394,3.938c-0.655,-0 -1.303,-0.164 -1.972,-0.164c-8.025,-0.491 -10.154,-4.92 -11.956,-16.719c0,-13.6 0,-30.817 -0.171,-37.703c-0.32,-12.29 4.108,-18.357 11.649,-18.357l0.478,0c7.54,0.328 11.805,6.722 11.805,14.918c0,10.488 0.335,30.326 0.335,41.961c0.164,10.816 -3.61,16.064 -10.168,16.064Zm-79.671,-3.774l-0,-107.868l11.157,-0l0.321,-12.133l-11.478,-0.164l-0,-53.767l-11.956,0.164c-13.607,21.803 -30.988,38.365 -53.125,53.603l-0,12.297c10.823,-0 14.753,0.164 14.753,10.816l0,97.045c0,9.342 -5.241,9.513 -12.938,9.513l-0,12.625l75.904,-0l0,-12.625c-10.018,0.007 -12.638,-0.328 -12.638,-9.506Z"/></g></svg>