<?xml version="1.0" encoding="UTF-8" standalone="no"?><!DOCTYPE svg PUBLIC "-//W3C//DTD SVG 1.1//EN" "http://www.w3.org/Graphics/SVG/1.1/DTD/svg11.dtd"><svg width="100%" height="100%" viewBox="0 0 1362 250" version="1.1" xmlns="http://www.w3.org/2000/svg" xmlns:xlink="http://www.w3.org/1999/xlink" xml:space="preserve" xmlns:serif="http://www.serif.com/" style="fill-rule:evenodd;clip-rule:evenodd;stroke-linejoin:round;stroke-miterlimit:2;"><g><path d="M3.404,122.197c9.301,-26.436 35.148,-51.91 63.687,-56.258c23.81,-3.329 46.717,-4.315 63.819,8.389c-4.439,9.143 -9.442,18.75 -9.442,18.75c0,0 -7.486,-4.638 -11.934,-5.838c-9.035,-3.951 -22.352,-5.027 -30.733,1.606l-3.603,5.797l-19.511,74.155c-0.348,2.377 -0.53,5.631 1.167,7.702c4.605,4.613 12.299,1.731 18.444,2.6l2.045,-2.037l13.293,-49.45l57.011,0.472l0.679,1.201c-5.516,22.013 -10.369,44.208 -16.572,65.864l-1.209,1.185l-89.633,-0.373c-13.656,0.646 -26.601,-4.919 -33.243,-15.851c-0.505,-3.429 -4.248,-5.325 -4.058,-9.077l-0.861,-0c-3.876,-15.048 -3.652,-34.154 0.654,-48.837Zm673.395,-0.547c8.488,16.414 18.857,35.322 26.493,51.885l-0.87,2.41c-22.775,22.468 -45.392,51.926 -75.985,60.042c-2.898,0.34 -3.751,-1.896 -4.43,-4.124c0.397,-15.545 17.317,-23.147 23.843,-36.282c6.178,-11.255 7.578,-24.572 13.25,-36.15c5.16,-12.116 9.301,-24.572 15.992,-35.992l1.707,-1.789Z" style="fill:#28539c;"/><path d="M628.127,242.654c50.585,-17.433 80.125,-76.432 128.168,-102.064c4.447,-2.219 8.041,-6.294 12.985,-6.956c1.698,2.037 3.752,4.091 3.752,7.006c-33.872,19.363 -64.349,50.353 -92.772,79.115c-14.716,13.624 -31.139,23.131 -48.58,30.245c-1.864,-2.219 -2.534,-4.803 -3.553,-7.346Zm34.518,-184.293c17.409,-10.926 35.329,-21.017 53.699,-30.236c-1.905,8.878 -3.313,19.636 -0.439,29.027l-0.862,1.698l-37.789,21.582l-2.393,-0.017c-4.738,-6.593 -9.106,-13.444 -13.086,-20.522l0.87,-1.532Zm17.483,30.783c12.306,-0.339 22.186,2.021 32.431,2.816l-0,1.383c-10.775,5.938 -21.706,12.564 -32.82,16.29c0.182,-6.84 1.565,-13.665 0.389,-20.489Zm2.476,29.367c12.497,-7.296 25.152,-14.774 38.477,-20.373c3.463,9.511 9.039,18.114 16.307,25.16c7.875,-2.725 9.267,-12.091 16.107,-15.503l12.233,19.164l-0.514,1.366c-18.634,11.71 -37.798,23.959 -54.916,40.274l-1.714,0c-9.176,-16.414 -18.17,-32.978 -25.98,-50.088Zm38.576,-53.839l-1.242,19.122c-8.381,0.886 -18.957,0.207 -29.533,-0.77l-0.861,-0.853l29.599,-17.499l2.037,-0Zm72.921,-1.019l58.734,0l14.559,43.827c-0,0 0.513,0.687 0.845,1.193c13.54,-12.928 37.01,-45.02 37.01,-45.02l31.073,0l0,2.046l-58.783,73.748c-0,0 -9.839,36.672 -15.354,55.273l-4.448,1.184l-57.872,-0l-0.679,-1.184l13.648,-55.985l-22.825,-73.053c-0.008,-0.008 2.891,-0.836 4.092,-2.029Zm153.642,1.002l1.375,-0.853l105.169,-0.281c1.019,-0.174 2.559,1.109 2.559,1.109l-5.01,22.908l-47.471,-0.133l-2.054,3.594l-5.027,25.392l1.209,0.853l28.663,-0.505l-5.871,26.005l-31.413,0.256c0,0 -5.01,18.941 -6.741,28.68l1.184,0.845l44.398,0.149l1.185,0.844c-0.514,7.86 -3.628,13.881 -5.342,21.21l-2.915,1.242l-105.335,0.439l31.437,-131.754Zm-735.722,6.253c25.077,-13.532 60.017,-10.957 81.26,2.642c18.22,15.594 23.106,40.183 17.408,62.701c-7.255,26.609 -30.046,55.057 -58.403,60.945c-26.311,6.741 -57.723,3.768 -74.899,-18.311c-15.819,-19.18 -12.299,-51.082 -0.986,-71.72c7.048,-15.163 21.085,-28.257 35.62,-36.257Zm8.77,95.48c-1.209,3.917 -1.391,9.383 1.665,12.629c2.741,1.715 6.31,2.75 9.731,1.748c3.254,-1.358 7.014,-3.412 8.729,-6.973c7.072,-23.048 10.89,-47.446 17.449,-70.817c0.017,-6.311 6.617,-14.733 -1.217,-18.518c-5.632,-1.383 -11.868,-0.646 -15.644,3.611c-5.16,11.263 -6.568,23.884 -9.839,35.669c-3.106,14.51 -7.247,28.497 -10.874,42.651Zm145.725,-90.925c24.713,-16.199 58.875,-18.559 83.678,-7.255c19.446,9.45 26.378,30.295 27.338,50.626c-0.604,30.369 -18.609,58.825 -45.276,72.233l-17.275,6.957c-24.755,3.172 -51.919,1.896 -69.6,-16.613c-16.514,-16.414 -17.797,-44.075 -10.567,-65.053c4.48,-16.555 17.499,-31.032 31.702,-40.895Zm19.346,100.788c2.89,1.897 6.642,3.28 10.236,2.087c3.807,-1.529 6.999,-4.284 9.069,-7.826l11.569,-48.282c0.696,-2.568 0.53,-5.963 1.739,-7.686c1.4,-10.054 6.617,-18.501 5.806,-28.745c-1.358,-1.359 -2.799,-4.531 -4.853,-4.878c-5.118,-1.21 -10.071,-0.034 -13.491,3.536c-8.779,24.737 -12.613,51.537 -19.52,77.119c-0.365,4.779 -3.28,10.054 -0.555,14.675Zm126.66,-111.447l3.413,-0.853l87.247,-0.074c13.98,1.921 26.924,15.437 32.183,28.779c9.292,29.044 -2.236,58.535 -20.729,80.523c-14.046,14.12 -30.791,22.891 -50.941,22.891c-31.454,-0 -81.947,-0.116 -81.947,-0.116c-0,-0 24.903,-107.944 30.774,-131.15Zm31.943,110.222c4.083,2.733 9.044,0.372 13.483,0.53c4.099,-1.002 5.805,-4.597 7.867,-7.81c0,0 21.483,-75.314 17.748,-80.622c-3.909,-3.934 -9.598,-2.518 -16.638,-2.518c-0.513,1.366 -0.861,2.725 -1.209,4.083l-21.251,86.337Z" style="fill:#28539c;"/><path d="M734.472,15.031c19.686,-16.836 47.488,-11.114 73.434,-11.553c32.431,3.669 68.473,2.584 100.416,-3.478c0.828,9.921 -6.89,18.592 -15.271,23.694c-22.568,12.058 -51.065,7.859 -76.673,6.427l-0.016,1.532l10.576,4.141c-0.174,3.42 -3.951,5.275 -6.502,6.633c-4.107,1.698 -9.06,1.516 -13.167,3.214c1.2,1.532 4.612,0.356 4.091,3.254c-7.537,8.356 -20.332,8.315 -29.889,4.348l-1.201,1.358c0.323,8.207 -0.049,17.251 -4.671,24.075c-3.254,0.497 -5.126,-2.418 -7.685,-3.611c-2.054,5.102 -1.226,12.282 -5.16,16.705c-3.412,-0.166 -6.128,-4.63 -9.201,-5.822c-3.784,8.182 -6.037,17.043 -12.033,24.207c-6.128,-0.356 -9.184,-7.876 -11.727,-12.679c-2.203,-9.897 -3.006,-21.864 -0.762,-32.092c-5.954,-9.242 -10.526,-21.201 -6.045,-32.804c1.557,-6.642 6.02,-13.126 11.486,-17.549Zm9.806,35.38l-8.182,-0.87l0.662,1.541c5.988,0.521 4.853,8.463 9.789,9.838l-2.269,-10.509l4.141,-19.28c2.898,1.549 7.346,2.402 10.592,0.886c2.915,-4.439 8.977,-3.983 13.93,-4.132c4.091,-0.853 3.685,-8.796 8.977,-6.56c1.897,-0.513 5.127,-1.871 4.969,-3.577c-5.482,3.064 -11.776,-4.82 -15.205,2.004c-3.255,2.89 -8.381,2.7 -12.29,3.213c-1.391,4.779 -6.518,7.652 -10.965,8.166l-4.149,19.28Zm368.23,13.135l52.067,-0.017l2.054,2.228l13.606,130.205c0,0.679 -59.073,-0 -59.073,-0l-2.327,-20.514l-45.061,0.24l-13.201,20.266l-26.642,0.116c-0,-0 66.055,-112.764 78.577,-132.524Zm-24.332,88.283l27.321,-0.017l-3.991,-39.52l-23.33,39.537Zm137.004,-86.834l1.715,-1.193l103.637,-0.033c11.776,0.373 20.282,9.11 26.22,18.518c7.147,11.984 5.905,28.539 -0.613,40.465c-5.16,9.54 -14.576,18.393 -23.81,24.166c2.973,15.172 6.617,30.294 10.112,45.806c0.505,2.037 -0.513,3.412 -2.41,3.238l-57.873,0.323l-2.037,-1.201l-10.468,-37.251c-0.861,-1.541 -2.733,-0.696 -4.108,-0.861l-1.714,2.376l-9.491,35.347l-1.714,1.358l-58.891,0.166c-1.019,-2.733 -0.149,-4.415 0.869,-6.99c10.195,-41.301 21.069,-82.776 30.576,-124.234Zm46.071,67.405c2.22,2.037 7.603,1.987 10.659,1.648c3.089,-1.035 5.565,-4.332 7.114,-7.412l8.282,-32.249c1.714,-3.23 0.546,-7.33 -1.682,-9.905c-3.395,-1.888 -9.2,-1.905 -12.629,-0.033l-11.744,47.951Z" style="fill:#28539c;"/></g></svg>