<?xml version="1.0" encoding="UTF-8" standalone="no"?><!DOCTYPE svg PUBLIC "-//W3C//DTD SVG 1.1//EN" "http://www.w3.org/Graphics/SVG/1.1/DTD/svg11.dtd"><svg width="100%" height="100%" viewBox="0 0 1080 250" version="1.1" xmlns="http://www.w3.org/2000/svg" xmlns:xlink="http://www.w3.org/1999/xlink" xml:space="preserve" xmlns:serif="http://www.serif.com/" style="fill-rule:evenodd;clip-rule:evenodd;stroke-linejoin:round;stroke-miterlimit:2;"><path d="M125.386,28.123c-14.062,0.391 -27.732,3.13 -40.62,8.987l16.794,29.688c7.422,-3.124 16.018,-5.075 23.826,-5.075c2.738,0 5.08,0.386 7.813,0.771c32.029,2.348 57.811,35.557 55.475,67.189c-2.739,34.763 -30.476,56.643 -63.288,58.208l-6.254,0c-21.478,-4.689 -39.446,-13.67 -49.992,-33.986l-35.154,-60.94c-4.695,14.067 -6.254,27.352 -5.086,41.804c5.477,46.097 40.631,81.245 86.722,86.717c3.124,0.391 6.645,0.391 9.764,0.391c53.518,-0.782 96.485,-43.364 97.268,-96.486c-0.783,-52.736 -41.022,-93.361 -92.188,-97.268l-5.08,0Zm-0,221.877c-68.743,0 -125.386,-56.246 -125.386,-124.609c0,-33.589 13.273,-64.065 35.154,-86.716l59.761,103.125c2.733,4.678 6.64,8.981 11.323,12.497c5.477,3.129 11.72,5.466 18.36,5.466l0.782,-0c24.222,0.782 41.011,-25.391 32.812,-46.874c-4.689,-13.67 -18.359,-22.652 -32.806,-22.652c-1.956,0 -3.913,0 -5.863,0.392c-10.546,1.173 -21.092,10.149 -25.781,19.527l-47.26,-82.033c22.268,-18.187 50.153,-28.126 78.904,-28.123c69.145,0 125.391,56.252 125.391,125.391c-0,68.363 -56.246,124.609 -125.391,124.609m319.145,-109.765l-19.136,-32.426c-0.783,3.129 -1.174,6.254 -1.174,9.769l-0,89.461l34.371,-0l0,-42.196l-14.061,-24.608Zm203.517,-6.645l18.36,31.644l-0,41.408l-0.392,-0l0,0.391l-38.674,-0l-0,-108.982l20.706,35.539Zm0,-17.18l18.36,31.242l-0,-20.305c-0,-14.844 24.999,-16.012 24.999,0l-0,79.295l23.048,-0l-0,0.391l19.919,-0l-0,-79.686c-0,-14.844 25.004,-16.012 25.004,0l0,79.686l38.675,-0l-0,-81.642c-0,-44.14 -55.475,-52.339 -75.785,-24.613c-12.502,-17.18 -38.283,-20.701 -56.257,-10.541l-0,-5.471l-36.328,-0l18.365,31.644Zm215.623,38.278l-42.184,-73.046l-0,125.005l34.371,0l0,-5.08c8.246,4.125 17.344,6.265 26.564,6.248c33.203,0 60.544,-27.34 60.544,-60.935c-0,-33.197 -27.341,-60.544 -60.544,-60.544c-9.764,0 -18.751,2.348 -26.558,6.249l-0,-50.389l-34.377,-0l-0,21.869l42.967,73.828c3.13,-6.248 10.155,-10.931 17.968,-10.931c10.943,-0 19.924,8.981 19.924,19.918c0,10.938 -8.981,19.925 -19.924,19.925c-8.596,-0 -15.626,-4.69 -18.751,-12.111l0,-0.006Zm137.497,1.168l-28.112,-48.433c-9.383,10.546 -14.849,24.217 -14.849,39.452c-0,33.589 27.346,60.935 60.935,60.935c33.203,-0 60.544,-27.341 60.544,-60.935c-0,-33.198 -27.341,-60.544 -60.544,-60.544c-15.235,-0 -28.911,5.466 -39.849,14.844l21.875,37.11c3.329,-6.89 10.322,-11.298 17.974,-11.329c10.937,0 19.924,8.981 19.924,19.919c-0,10.937 -8.987,19.924 -19.924,19.924c-7.813,-0 -14.844,-4.303 -17.974,-10.943Zm-442.971,19.539c6.259,-2.348 10.551,-8.21 11.725,-14.85l39.843,0c-5.861,24.714 -26.41,43.394 -51.568,46.879c-2.342,0 -5.075,0.386 -7.808,0.386c-33.198,-0 -60.544,-27.341 -60.544,-60.935c0,-13.285 4.292,-24.999 11.329,-35.154l31.247,53.513c3.13,7.031 9.764,11.714 17.968,11.714c2.733,0 5.466,-0.385 7.808,-1.553Zm-27.341,-39.066l39.457,-0c-0.782,-7.417 -5.477,-13.285 -12.116,-16.012c-2.342,-1.174 -5.075,-1.565 -7.808,-1.565c-10.541,-0 -18.751,7.422 -19.533,17.577Zm27.341,-49.607c-2.342,0 -5.075,-0.391 -7.808,-0.391c-16.403,-0 -32.03,7.031 -42.967,18.354l28.905,50.003l0,-2.739l74.611,0c0,-1.956 0.392,-3.509 0.392,-5.074c-0,-30.465 -23.445,-56.246 -53.133,-60.153Zm-113.666,36.316l-14.453,-24.607c3.763,-4.509 8.801,-7.777 14.453,-9.373c3.13,-1.173 6.639,-1.565 9.769,-1.565l27.732,0l-0,32.036l-7.819,-0c-8.981,-0 -15.621,6.242 -15.621,15.62l0,12.117l-14.061,-24.228Zm-119.523,31.65l-42.587,-73.046l-0,125.005l34.382,0l0,-5.08c8.205,3.912 17.186,6.248 26.559,6.248c33.203,0 60.94,-27.34 60.94,-60.935c0,-33.197 -27.737,-60.544 -60.94,-60.544c-9.373,0 -18.354,2.348 -26.559,6.249l0,-50.389l-34.382,-0l-0,21.869l42.967,73.828c3.13,-6.248 10.155,-10.931 17.968,-10.931c10.943,-0 19.924,8.981 19.924,19.918c0,10.938 -8.987,19.919 -19.924,19.919c-8.199,-0 -15.23,-4.689 -18.354,-12.111" style="fill:#c7070f;"/></svg>