<?xml version="1.0" encoding="UTF-8" standalone="no"?><!DOCTYPE svg PUBLIC "-//W3C//DTD SVG 1.1//EN" "http://www.w3.org/Graphics/SVG/1.1/DTD/svg11.dtd"><svg width="100%" height="100%" viewBox="0 0 471 250" version="1.1" xmlns="http://www.w3.org/2000/svg" xmlns:xlink="http://www.w3.org/1999/xlink" xml:space="preserve" xmlns:serif="http://www.serif.com/" style="fill-rule:evenodd;clip-rule:evenodd;stroke-linejoin:round;stroke-miterlimit:2;"><g><ellipse cx="235.365" cy="125" rx="235.365" ry="125"/><ellipse cx="235.365" cy="125" rx="224.385" ry="114.021" style="fill:#fff;"/><ellipse cx="235.365" cy="125" rx="215.242" ry="104.877"/><path d="M141.695,65.43c22.649,-0 31.652,12.005 31.652,23.601c-0,9.416 -6.005,18.555 -16.509,20.465c13.37,3.007 16.827,14.421 16.806,23.336c-0.02,10.306 -6.165,23.874 -27.587,23.874l-58.941,-0l-0,-91.276l54.579,-0Z" style="fill:#fff;fill-rule:nonzero;"/><path d="M120.406,101.007l11.736,-0c4.776,-0 7.092,-5.149 7.092,-8.155c-0,-3.003 -2.456,-7.986 -8.184,-7.986l-10.644,0l-0,16.141Z" style="fill-rule:nonzero;"/><path d="M250.608,65.393l-0,24.696l-32.049,0.037l-0,12.129l32.049,0l-0,15.98l-32.049,-0l-0.013,14.825l32.062,0.008l-0,23.605l-65.695,0.037l0,-91.28l65.695,-0.037Zm50.253,0.037l-0,67.63l30.751,-0l-0,23.65l-63.201,0l-0,-91.28l32.45,-0Z" style="fill:#fff;fill-rule:nonzero;"/><path d="M120.406,135.876l11.736,0c4.776,0 7.092,-5.153 7.092,-8.155c-0,-3.002 -2.456,-7.985 -8.184,-7.985l-10.644,-0l-0,16.14Z" style="fill-rule:nonzero;"/><path d="M374.086,65.43l0,67.63l30.751,-0l-0,23.65l-63.197,0l-0,-91.28l32.446,-0Z" style="fill:#fff;fill-rule:nonzero;"/><path d="M185.385,177.978l-0,-9.834l-25.003,0l0,29.883l25.003,-0l-0,-9.834l-15.169,-0l0,-3.048l15.169,-0l-0,-4.119l-15.169,0l0,-3.048l15.169,0Zm-45.088,-9.834l-0,10.025l-11.203,-0l0,-10.025l-9.834,0l0,29.883l9.834,-0l0,-10.025l11.203,0l-0,10.025l9.834,-0l-0,-29.883l-9.834,0Zm54.959,0l-0,29.883l21.95,-0l0,-9.834l-12.116,-0l-0,-20.049l-9.834,0Zm100.386,0l29.498,0l-0,9.834l-9.83,0l-0,20.049l-9.834,-0l0,-20.049l-9.834,0l0,-9.834Zm-4.003,9.834l0,-9.834l-24.998,0l-0,29.883l24.998,-0l0,-9.834l-15.168,-0l-0,-3.048l15.168,-0l0,-4.119l-15.168,0l-0,-3.048l15.168,0Zm-43.636,-9.834l-9.053,18.589l-9.052,-18.589l-9.834,0l0,29.883l9.834,-0l-0,-12.957l6.311,12.957l5.483,-0l6.311,-12.957l-0,12.957l9.834,-0l-0,-29.883l-9.834,0Zm96.552,30.313c-4.081,-0.033 -9.602,-1.452 -12.881,-3.358l2.588,-5.868c3.005,2.221 6.631,3.447 10.368,3.506c2.059,0 4.789,-1.253 4.789,-2.82c-0,-1.571 -2.833,-1.873 -4.305,-2.138c-3.681,-0.566 -5.302,-1.046 -8.701,-2.394c-3.792,-1.568 -5.773,-4.359 -5.773,-7.622c-0,-7.187 5.636,-9.904 13.44,-10.065c3.631,-0.075 9.606,1.451 12.881,3.358l-2.592,5.868c-3.004,-2.221 -6.629,-3.447 -10.364,-3.507c-2.059,-0 -4.788,1.257 -4.788,2.824c-0,1.568 2.828,1.874 4.3,2.134c3.681,0.571 5.339,1.22 8.697,2.395c3.875,1.356 5.777,4.358 5.777,7.625c0.004,7.188 -5.392,10.124 -13.436,10.062Z" style="fill:#fff;fill-rule:nonzero;"/><path d="M419.356,138.452c2.349,0 4.355,0.832 6.013,2.498c1.65,1.654 2.477,3.656 2.477,5.996c-0,2.362 -0.827,4.376 -2.477,6.038c-1.65,1.663 -3.656,2.498 -6.013,2.498c-2.357,-0 -4.363,-0.831 -6.013,-2.498c-1.611,-1.59 -2.501,-3.774 -2.46,-6.038c-0,-2.34 0.823,-4.342 2.477,-5.996c1.567,-1.625 3.739,-2.529 5.996,-2.498Zm9.879,8.482c0,-2.721 -0.963,-5.045 -2.886,-6.964c-1.834,-1.876 -4.362,-2.916 -6.985,-2.874c-2.712,-0 -5.028,0.959 -6.947,2.874c-1.88,1.823 -2.926,4.345 -2.887,6.964c0,2.742 0.952,5.078 2.862,7.001c1.819,1.894 4.347,2.945 6.972,2.899c2.73,0 5.062,-0.963 6.985,-2.899c1.883,-1.837 2.927,-4.371 2.886,-7.001Zm-7.236,-2.117c-0,0.823 -0.377,1.381 -1.129,1.67c-0.595,0.188 -1.218,0.269 -1.841,0.24l-1.745,0l0,-3.879l1.65,0c1.071,0 1.853,0.133 2.337,0.401c0.484,0.269 0.728,0.786 0.728,1.568Zm-6.625,-3.325l-0,10.822l1.906,0l0,-4.23l1.518,-0c1.021,-0 1.732,0.115 2.138,0.347c0.686,0.401 1.029,1.22 1.029,2.465l0,0.847l0.042,0.348l0.025,0.12l0.024,0.103l1.783,0l-0.071,-0.132c-0.064,-0.181 -0.096,-0.371 -0.095,-0.563c-0.019,-0.267 -0.029,-0.534 -0.029,-0.802l0,-0.786c0,-0.545 -0.194,-1.104 -0.583,-1.67c-0.388,-0.567 -1,-0.922 -1.84,-1.055c0.55,-0.066 1.081,-0.245 1.559,-0.525c0.703,-0.459 1.055,-1.174 1.055,-2.146c-0,-1.365 -0.563,-2.283 -1.688,-2.75c-0.628,-0.261 -1.621,-0.393 -2.969,-0.393l-3.804,-0Z" style="fill:#fff;fill-rule:nonzero;"/></g></svg>