<?xml version="1.0" encoding="UTF-8" standalone="no"?><!DOCTYPE svg PUBLIC "-//W3C//DTD SVG 1.1//EN" "http://www.w3.org/Graphics/SVG/1.1/DTD/svg11.dtd"><svg width="100%" height="100%" viewBox="0 0 908 250" version="1.1" xmlns="http://www.w3.org/2000/svg" xmlns:xlink="http://www.w3.org/1999/xlink" xml:space="preserve" xmlns:serif="http://www.serif.com/" style="fill-rule:evenodd;clip-rule:evenodd;stroke-linejoin:round;stroke-miterlimit:2;"><g><path d="M3.028,3.128l0,173.123l59.422,-0l-0,-111.28l28.652,0l-0,111.28l59.422,-0.104l-0,-111.172l28.148,-0l-0,111.279l59.422,-0l-0,-173.126l-235.066,0Zm261.8,0l-0,173.123l173.929,-0l0,-173.123l-173.929,0Zm200.967,0l0,173.123l59.422,-0l-0,-111.28l28.652,0l-0,111.28l59.425,-0.104l-0,-111.172l28.148,-0l0,111.279l59.422,-0l-0,-173.126l-235.069,0Zm261.703,0l0,173.123l174.03,-0l-0,-173.123l-174.03,0Zm-402.641,62.147l51.957,-0l0,47.315l-51.957,0l-0,-47.315Zm462.77,-0l51.958,-0l-0,47.315l-51.958,0l-0,-47.315Z" style="fill:#fedd03;fill-rule:nonzero;"/><path d="M261.703,0l-0,179.376l180.183,-0l-0,-179.376l-180.183,0Zm462.767,0l-0,179.376l180.083,-0l-0,-179.376l-180.083,0Zm-724.47,0.1l0,179.176l65.475,-0l-0,-111.276l22.599,-0l-0,111.272l65.375,-0.1l-0,-111.176l22.195,0l-0,111.283l65.375,-0l-0,-179.179l-241.019,0Zm462.77,0l0,179.176l65.375,-0l0,-111.276l22.699,-0l-0,111.272l65.375,-0.1l-0,-111.176l22.195,0l-0,111.283l65.375,-0l-0,-179.179l-241.019,0Zm-456.717,5.953l229.016,0l-0,167.273l-53.375,-0l-0,-111.38l-34.195,0l-0,111.276l-53.372,0.104l-0,-111.38l-34.705,0l-0,111.38l-53.369,-0l0,-167.273Zm462.67,0l229.113,0l-0,167.273l-53.469,-0l0,-111.38l-34.105,0l0,111.276l-53.468,0.104l-0,-111.38l-34.602,0l-0,111.38l-53.472,-0l0.003,-167.273Zm-200.87,0.1l167.779,0l0,167.069l-167.779,0l-0,-167.069Zm462.77,0l167.78,0l-0,167.069l-167.78,0l0,-167.069Zm-408.791,55.993l-0,53.572l58.111,0l-0,-53.572l-58.111,0Zm462.67,0l-0,53.572l58.111,0l-0,-53.572l-58.111,0Zm-456.514,6.257l45.701,0l0,41.162l-45.701,0l0,-41.162Zm462.77,0l45.701,0l0,41.162l-45.701,0l0,-41.162Z" style="fill:#231f20;fill-rule:nonzero;"/><path d="M0.707,207.828l0,42.169l8.978,-0l0,-42.166l-8.978,-0.003Zm192.289,-0l0,6.656l18.263,0l0,35.513l8.975,-0l0,-35.513l18.263,0l0,-6.656l-45.501,-0Zm239.305,-0l-22.095,42.172l9.688,0l4.439,-8.374l26.634,-0l4.439,8.374l9.582,0l-22.095,-42.172l-10.592,-0Zm216.505,-0l0,42.169l37.934,-0l-0,-6.557l-28.856,-0l0,-35.612l-9.078,-0Zm204.903,-0l1.914,2.221l20.381,22.695l0,17.253l9.078,-0l0,-17.25l22.902,-24.919l-11.199,-0l-15.938,17.959l-16.142,-17.959l-10.996,-0Zm-416.059,7.87l10.089,19.267l-20.178,0l10.089,-19.267Z" style="fill:#ed1c24;fill-rule:nonzero;"/></g></svg>