<?xml version="1.0" encoding="UTF-8" standalone="no"?><!DOCTYPE svg PUBLIC "-//W3C//DTD SVG 1.1//EN" "http://www.w3.org/Graphics/SVG/1.1/DTD/svg11.dtd"><svg width="100%" height="100%" viewBox="0 0 1265 250" version="1.1" xmlns="http://www.w3.org/2000/svg" xmlns:xlink="http://www.w3.org/1999/xlink" xml:space="preserve" xmlns:serif="http://www.serif.com/" style="fill-rule:evenodd;clip-rule:evenodd;stroke-linejoin:round;stroke-miterlimit:2;"><g><rect x="0" y="0" width="1264.98" height="250" style="fill:#ffe100;fill-rule:nonzero;"/><path d="M177.986,124.899c-0,24.797 -20.142,44.939 -44.939,44.939c-24.798,0 -44.94,-20.142 -44.94,-44.939c0,-24.798 20.142,-44.939 44.94,-44.939c24.797,-0 44.939,20.141 44.939,44.939Z" style="fill:#fff;fill-rule:nonzero;"/><path d="M231.377,124.899l-152.025,-88.411l49.089,40.384c-68.37,2.379 -69.585,90.891 0,96.053l-49.089,40.435l152.025,-88.461Zm-143.219,-0c-0,-24.798 20.091,-44.939 44.939,-44.939c24.798,-0 44.939,20.091 44.939,44.939c0,24.797 -20.091,44.939 -44.939,44.939l-0.05,0c-24.798,0 -44.94,-20.142 -44.889,-44.939Z" style="fill-rule:nonzero;"/><path d="M98.33,134.413l-3.644,7.895l55.01,-0c11.286,0.101 18.826,-8.249 19.838,-18.624c0.911,-9.565 -7.793,-16.295 -16.346,-16.194l-44.534,-0l-3.998,8.704l8.249,0l-8.401,18.168l-6.174,0.051Zm37.601,-18.624l6.275,0c5.365,-0.202 3.695,7.794 3.745,7.136c-0.354,4.15 -3.643,11.437 -10.678,11.083l-7.692,0l8.35,-18.219Z" style="fill:#e60012;fill-rule:nonzero;"/><path d="M1154.91,79.808l-121.862,-0l-8.249,17.915l18.977,-0l-24.645,53.998l-19.029,-0l-8.249,17.915l82.844,-0l8.249,-17.966l-17.156,0l8.604,-18.775l54.858,-0c7.439,-0 17.814,-2.075 23.431,-11.286c8.856,-14.322 23.027,-41.801 2.227,-41.801Zm-41.043,24.038c-1.417,4.96 -2.378,12.399 -12.145,12.45l-19.636,-0l8.502,-18.573l20.091,-0c4.96,-0.051 3.796,3.998 3.188,6.123Zm-400.202,-6.174l14.322,0l8.198,-17.814l-53.795,0l-8.604,17.814l15.334,0l-15.789,34.565l-27.783,-52.379l-53.897,0l-8.452,17.915l16.245,0l-24.747,53.948l-16.346,-0l-8.148,17.965l56.428,0l8.198,-17.864l-15.385,-0l15.992,-35.779l28.897,53.643l36.184,0l33.148,-72.014Zm-305.668,17.814c5.668,-11.842 9.818,-35.678 -14.018,-35.678l-109.16,-0l-8.35,17.915l16.953,-0l-24.798,53.896l-16.902,0l-8.3,18.017l107.591,-0c40.334,-0 51.316,-42.257 56.984,-54.15Zm-70.344,36.133l-21.205,0l24.646,-53.795l15.182,-0c11.842,-0.607 8.502,8.249 5.719,18.37c-2.783,10.122 -13.866,35.223 -24.342,35.425Zm125.557,18.978c-0.709,0 11.285,0.101 25,-0.81c17.611,-1.214 33.502,-5.566 41.801,-21.659l23.634,-50.254l15.435,0l8.35,-18.168l-53.542,0l-8.249,18.017l15.283,-0l-18.168,40.587c-6.073,10.981 -9.362,12.753 -24.494,12.449c-15.131,-0.304 -14.676,-7.136 -11.741,-14.878l17.359,-38.209l14.878,0l8.249,-17.915l-79.251,0l-8.553,17.966l16.853,-0c-0,-0 -19.838,43.269 -20.193,44.18c-10.627,30.87 23.229,28.087 37.349,28.694Zm274.139,-18.927l-16.548,0l-8.148,17.966l119.99,-0l20.546,-44.737l-17.358,-0l-23.026,26.771l-26.67,0l24.392,-53.947l15.334,-0l8.199,-17.915l-80.82,-0l-8.3,17.813l17.106,0l-24.697,54.049Zm133.401,16.903c4.15,1.366 33.3,5.212 67.763,3.289c49.595,-0.303 62.146,-44.635 69.332,-64.322c4.707,-12.904 4.707,-26.113 -23.684,-29.048c-19.939,-1.417 -39.929,-1.62 -59.869,-0.658c-12.904,1.063 -28.491,2.682 -42.965,15.536c-4.049,3.644 -12.854,15.132 -23.279,43.472c-9.818,26.265 10.779,31.073 12.702,31.731Zm36.235,-34.514c3.947,-10.527 13.411,-29.201 15.992,-32.591c5.162,-7.136 11.842,-7.541 27.682,-6.326c6.022,1.315 13.765,5.111 5.364,22.975c-7.338,15.638 -12.145,30.314 -20.546,33.249c-6.478,2.227 -13.209,2.581 -22.521,1.468c-7.439,-0.962 -11.083,-5.162 -5.971,-18.775Z" style="fill-rule:nonzero;"/></g></svg>